<?xml version="1.0" encoding="utf-8"?>
<!-- Generator: Adobe Illustrator 15.0.0, SVG Export Plug-In . SVG Version: 6.00 Build 0)  -->
<!DOCTYPE svg PUBLIC "-//W3C//DTD SVG 1.1//EN" "http://www.w3.org/Graphics/SVG/1.1/DTD/svg11.dtd">
<svg version="1.1" id="Layer_1" xmlns="http://www.w3.org/2000/svg" xmlns:xlink="http://www.w3.org/1999/xlink" x="0px" y="0px"
	 width="860.47px" height="256.647px" viewBox="0 0 860.47 256.647" enable-background="new 0 0 860.47 256.647"
	 xml:space="preserve">
<g>
	<radialGradient id="SVGID_1_" cx="128.3213" cy="128.3232" r="126.7798" gradientUnits="userSpaceOnUse">
		<stop  offset="0.8202" style="stop-color:#E8E7E6"/>
		<stop  offset="1" style="stop-color:#545456"/>
	</radialGradient>
	<path fill="url(#SVGID_1_)" d="M255.1,128.323c0,70.022-56.759,126.781-126.785,126.781c-70.007,0-126.771-56.759-126.771-126.781
		c0-70.021,56.764-126.78,126.771-126.78C198.341,1.543,255.1,58.302,255.1,128.323z"/>
	<path d="M128.314,256.647C57.558,256.647,0,199.079,0,128.323C0,57.562,57.558,0,128.314,0
		c70.761,0,128.328,57.562,128.328,128.323C256.643,199.079,199.075,256.647,128.314,256.647z M128.314,3.086
		c-69.049,0-125.228,56.18-125.228,125.237c0,69.054,56.179,125.238,125.228,125.238c69.058,0,125.242-56.185,125.242-125.238
		C253.557,59.266,197.372,3.086,128.314,3.086z"/>
	<path fill="#FFFFFF" d="M128.304,12.085c-64.099,0-116.248,52.149-116.248,116.254c0,64.1,52.149,116.248,116.248,116.248
		c64.104,0,116.249-52.148,116.249-116.248C244.553,64.234,192.408,12.085,128.304,12.085z"/>
	<path fill="#EF3E33" d="M416.807,194.516c-1.668,1.578-3.58,2.911-5.683,3.97c-2.048,1.029-4.225,1.573-6.427,1.613
		c-5.568-0.105-10.157-1.947-13.628-5.473c-3.476-3.531-5.299-8.2-5.403-13.854c0.05-4.544,0.929-8.359,2.616-11.346
		c1.673-2.98,3.886-5.248,6.577-6.741c2.701-1.498,5.668-2.257,8.894-2.263c4.685,0,8.809,1.788,12.595,5.469l0.804,0.779
		l8.17-9.508l-0.774-0.685c-2.188-1.928-5.113-3.65-8.699-5.114c-3.605-1.478-7.73-2.267-12.294-2.352
		c-5.769,0.074-11.017,1.543-15.61,4.365c-4.564,2.811-8.24,6.621-10.906,11.325c-2.667,4.694-4.051,9.982-4.115,15.735
		c0.04,5.543,1.328,10.717,3.825,15.365c2.512,4.664,6.087,8.47,10.627,11.307c4.534,2.841,9.942,4.324,16.079,4.404h0.05
		c3.836,0,7.581-0.675,11.127-2.008c3.575-1.349,6.781-3.426,9.518-6.178l0.664-0.664l-7.181-8.934L416.807,194.516z
		 M403.503,210.46L403.503,210.46v0.006V210.46z"/>
	<path fill="#F1729C" d="M486.539,164.698c-2.746-4.685-6.571-8.494-11.386-11.32c-4.813-2.817-10.437-4.285-16.729-4.365
		c-6.272,0.08-11.886,1.548-16.699,4.365c-4.814,2.826-8.64,6.636-11.386,11.325c-2.741,4.694-4.155,9.947-4.205,15.62
		c0.03,5.718,1.398,10.991,4.055,15.676c2.652,4.664,6.433,8.439,11.246,11.23c4.799,2.771,10.517,4.215,16.989,4.285h0.01h0.01
		c6.481-0.07,12.199-1.514,16.999-4.285c4.813-2.791,8.594-6.566,11.245-11.236c2.647-4.674,4.016-9.947,4.045-15.685
		C490.694,174.655,489.286,169.402,486.539,164.698z M478.01,180.304c-0.055,3.54-0.979,6.842-2.736,9.807
		c-1.788,2.982-4.185,5.409-7.121,7.207c-2.917,1.803-6.192,2.736-9.703,2.781c-3.53-0.045-6.807-0.984-9.737-2.781
		c-2.922-1.793-5.313-4.221-7.102-7.207c-1.763-2.965-2.687-6.267-2.741-9.777c0.055-3.814,0.979-7.256,2.736-10.222
		c1.788-2.981,4.17-5.358,7.086-7.056c2.932-1.709,6.207-2.592,9.743-2.633c3.54,0.041,6.821,0.924,9.742,2.633
		c2.927,1.702,5.313,4.079,7.092,7.051C477.031,173.077,477.955,176.519,478.01,180.304z"/>
	<path fill="#F47422" d="M578.724,154.73c-4.31-3.905-9.833-5.888-16.43-5.888h-0.305c-3.925,0-7.655,0.789-11.091,2.342
		c-3.086,1.394-5.604,3.621-7.501,6.643c-2.287-3.446-4.854-5.818-7.65-7.066c-2.887-1.279-5.812-1.928-8.699-1.928
		c-0.239,0-0.479,0.005-0.858,0.01c-3.196,0-6.382,0.67-9.458,1.988c-2.197,0.943-4.021,2.297-5.453,4.045v-4.705h-12.075v59.846
		h12.075v-35.94c0.09-4.524,1.368-7.985,3.814-10.292c2.507-2.357,5.658-3.511,9.738-3.525c3.226,0,5.857,1.033,8.045,3.166
		c2.182,2.122,3.331,5.558,3.421,10.191v36.4h12.085v-35.945c0.069-4.52,1.348-7.98,3.8-10.287c2.507-2.357,5.668-3.511,9.772-3.525
		c3.227,0,5.857,1.033,8.045,3.166c2.183,2.122,3.336,5.558,3.421,10.191v36.4h12.085v-37.528
		C585.354,164.638,583.073,158.661,578.724,154.73z"/>
	<path fill="#19A3A0" d="M687.097,198.775c-1.318,0-2.467-0.529-3.51-1.608c-1.074-1.123-1.653-3.181-1.703-6.092v-67.221h-12.085
		v68.004c0.08,6.268,1.598,10.941,4.499,13.902c2.896,2.932,6.816,4.415,11.66,4.415h5.334v-11.405L687.097,198.775z
		 M685.958,209.112L685.958,209.112v0.015V209.112z"/>
	<path fill="#957DB0" d="M745.015,191.165c-5.014,5.907-10.807,8.828-17.688,8.934c-5.397-0.096-9.877-1.633-13.303-4.579
		c-3.156-2.696-5.224-6.183-6.162-10.382h49.218l-0.01-1.064c-0.155-10.562-3.081-19.086-8.699-25.348
		c-5.663-6.297-13.264-9.562-22.632-9.713c-6.202,0.074-11.685,1.528-16.279,4.32c-4.584,2.796-8.189,6.586-10.717,11.27
		c-2.517,4.664-3.815,9.918-3.845,15.611c0.01,5.367,1.264,10.472,3.715,15.166c2.473,4.719,6.168,8.609,10.986,11.555
		c4.819,2.947,10.812,4.49,17.817,4.58h0.08c5.144,0,9.942-1.049,14.272-3.121c4.364-2.093,8.559-5.373,12.475-9.754l0.738-0.828
		l-9.308-7.426L745.015,191.165z M716.051,162.806c2.526-1.528,5.758-2.327,9.598-2.383c4.954,0.09,9.099,1.578,12.335,4.425
		c2.931,2.582,4.783,5.938,5.513,9.987h-35.68c0.404-2.143,1.193-4.219,2.352-6.201
		C711.566,166.256,713.489,164.349,716.051,162.806z M727.496,210.46L727.496,210.46v0.006V210.46z"/>
	<path fill="#1BAAE2" d="M785.823,198.771c-2.003,0-2.736-0.41-3.017-0.67c-0.459-0.419-0.674-1.243-0.639-2.486v-34.417h9.198
		v-10.856h-9.198v-13.963h-12.075v13.963h-7.98v10.856h7.98v35.501c-0.09,4.679,0.959,8.145,3.126,10.297
		c2.147,2.143,5.713,3.186,10.887,3.186l0.324-0.005l1.503,0.011c1.838,0,3.386-0.041,4.664-0.115l0.989-0.061v-11.24H785.823z"/>
	<path fill="#009E4C" d="M848.404,191.165c-5.014,5.907-10.807,8.828-17.688,8.934c-5.398-0.096-9.878-1.633-13.304-4.579
		c-3.146-2.692-5.223-6.183-6.167-10.382h49.224l-0.011-1.064c-0.154-10.566-3.086-19.091-8.709-25.348
		c-5.652-6.292-13.253-9.562-22.621-9.713c-6.218,0.074-11.695,1.528-16.28,4.32c-4.604,2.806-8.204,6.596-10.716,11.27
		c-2.517,4.664-3.815,9.918-3.846,15.611c0.011,5.367,1.264,10.472,3.716,15.166c2.472,4.719,6.167,8.609,10.986,11.555
		c4.818,2.947,10.811,4.49,17.817,4.58h0.08c5.144,0,9.942-1.049,14.271-3.121c4.365-2.093,8.56-5.373,12.475-9.754l0.739-0.828
		l-9.309-7.426L848.404,191.165z M819.44,162.806c2.527-1.528,5.753-2.327,9.588-2.383c4.954,0.09,9.109,1.578,12.345,4.42
		c2.946,2.607,4.794,5.963,5.514,9.992h-35.686c0.409-2.146,1.203-4.225,2.357-6.201
		C814.956,166.256,816.879,164.349,819.44,162.806z M830.887,210.46L830.887,210.46v0.006V210.46z"/>
	<g>
		<path fill="#545456" d="M373.062,106.815c-0.16-11.61-3.376-20.993-9.568-27.89c-6.222-6.927-14.586-10.521-24.878-10.682
			c-6.837,0.075-12.864,1.673-17.928,4.754c-5.059,3.091-9.019,7.261-11.785,12.395c-2.767,5.139-4.185,10.911-4.225,17.169
			c0.01,5.928,1.388,11.545,4.095,16.693c2.727,5.193,6.786,9.469,12.075,12.715c5.298,3.23,11.895,4.924,19.604,5.028h0.115
			c5.618,0,10.892-1.159,15.665-3.437c4.789-2.281,9.408-5.893,13.738-10.721l0.813-0.909l-10.242-8.17l-0.724,0.849
			c-5.523,6.508-11.905,9.724-19.471,9.838c-5.928-0.1-10.852-1.797-14.642-5.043c-3.461-2.957-5.728-6.792-6.767-11.421h54.137
			L373.062,106.815z M327.948,83.41c2.781-1.673,6.332-2.557,10.557-2.616c5.448,0.094,10.008,1.732,13.563,4.858
			c3.245,2.861,5.283,6.557,6.072,11.001H318.88c0.449-2.342,1.318-4.629,2.597-6.821C322.979,87.255,325.157,85.093,327.948,83.41z
			 M340.567,135.839L340.567,135.839v0.006V135.839z"/>
		<polygon fill="#545456" points="371.823,67.296 393.177,67.296 393.177,135.789 407.419,135.789 407.419,67.296 428.781,67.296 
			428.781,54.651 371.823,54.651 		"/>
		<path fill="#545456" d="M478.18,89.438v12.644h30.761c-1.258,4.245-3.23,7.945-5.893,11.037
			c-3.086,3.596-6.846,6.387-11.186,8.279c-4.345,1.912-9.054,2.892-13.973,2.901c-5.593-0.04-10.896-1.318-15.76-3.796
			c-4.834-2.471-8.794-5.932-11.78-10.287c-2.972-4.318-4.52-9.397-4.6-15.045c0.08-5.664,1.599-10.717,4.505-15.026
			c2.937-4.354,6.861-7.825,11.69-10.317c4.844-2.502,10.212-3.795,15.93-3.846c3.641,0,7.445,0.699,11.32,2.073
			c3.896,1.368,7.546,3.466,10.856,6.222l1.254,1.044l9.253-9.938l-1.498-1.148c-5.193-3.99-10.452-6.852-15.63-8.495
			c-4.994-1.588-10.058-2.392-15.057-2.392h-0.514c-7.416,0.056-14.133,1.288-19.965,3.681c-5.793,2.393-10.767,5.638-14.782,9.652
			c-3.995,4-7.07,8.52-9.138,13.424c-2.073,4.904-3.127,9.963-3.137,15.041c0.01,5.078,1.063,10.137,3.137,15.036
			c2.067,4.903,5.143,9.418,9.138,13.418c4.021,4.021,8.994,7.266,14.787,9.647c5.798,2.393,12.519,3.631,19.96,3.681h0.02
			c8.33-0.02,16.104-1.833,23.121-5.394c7.041-3.585,12.784-8.849,17.059-15.635c4.274-6.781,6.502-15.102,6.621-24.719l0.021-1.743
			H478.18z"/>
	</g>
	<path fill="#00539F" d="M655.427,163.724c-2.767-4.554-6.542-8.229-11.211-10.916c-4.649-2.666-9.872-4.05-15.535-4.114
		c-4.484,0.005-8.799,0.924-12.824,2.727c-3.885,1.747-7.206,3.67-10.756,7.36c-5.334,5.538-8.28,10.757-9.594,23.875
		c-0.045,0.41-0.024,31.825-0.005,50.512v1.049h12.065v-31.541c1.978,2.213,4.419,4.065,7.28,5.533
		c3.745,1.918,8.24,2.916,13.394,2.967c5.588-0.045,10.821-1.418,15.55-4.08c4.71-2.656,8.569-6.412,11.476-11.161
		c2.887-4.739,4.395-10.321,4.475-16.614C659.682,173.571,658.229,168.323,655.427,163.724z M627.752,160.438
		c4.284,0.074,7.96,1.078,10.916,2.98c2.961,1.903,5.264,4.355,6.831,7.281c1.554,2.932,2.348,5.988,2.357,9.064
		c-0.06,4.239-1.039,7.904-2.911,10.91c-1.873,3.017-4.325,5.363-7.286,6.972c-2.981,1.618-6.212,2.442-9.578,2.457
		c-3.646-0.035-6.971-0.938-9.897-2.687c-2.956-1.748-5.333-4.14-7.086-7.102c-1.743-2.945-2.642-6.307-2.682-9.973
		c0.05-3.71,0.964-7.101,2.722-10.076c1.772-2.982,4.14-5.379,7.051-7.132C621.08,161.388,624.296,160.479,627.752,160.438z"/>
	<g>
		<path fill="#F1729C" d="M41.413,58.387v139.904c8.115,10.058,17.913,18.696,28.994,25.442V32.938
			C59.326,39.69,49.528,48.329,41.413,58.387z"/>
		<path fill="#00539F" d="M239.929,128.339c0-24.04-7.67-46.307-20.644-64.549v129.093
			C232.259,174.646,239.929,152.374,239.929,128.339z"/>
		<path fill="#EF3E33" d="M83.625,26.077v204.518c4.04,1.773,8.2,3.316,12.47,4.604V21.473
			C91.825,22.761,87.665,24.305,83.625,26.077z"/>
		<path fill="#F47422" d="M128.304,16.714c-3.261,0-6.486,0.17-9.678,0.449v222.352c3.191,0.273,6.417,0.443,9.678,0.443
			c4.56,0,9.039-0.305,13.453-0.838V17.553C137.343,17.023,132.863,16.714,128.304,16.714z"/>
		<path fill="#1BAAE2" d="M191.854,36.649v183.379c4.399-3.057,8.564-6.422,12.469-10.062V46.706
			C200.419,43.066,196.254,39.705,191.854,36.649z"/>
		<path fill="#009A66" d="M156.509,20.334v216.008c5.243-1.373,10.342-3.105,15.256-5.193V25.523
			C166.851,23.44,161.752,21.703,156.509,20.334z"/>
		<path fill="#009A66" d="M16.689,128.339c0,14.956,2.977,29.223,8.335,42.271V86.067C19.666,99.115,16.689,113.382,16.689,128.339z
			"/>
	</g>
	<g>
		<path d="M104.818,19.221v218.231c2.317,0.499,4.645,0.934,7.012,1.283V17.938C109.463,18.292,107.136,18.727,104.818,19.221z"/>
		<path d="M24.285,87.939v80.798c3.565,9.145,8.284,17.713,14.012,25.509V62.427C32.569,70.227,27.851,78.791,24.285,87.939z"/>
		<path d="M176.858,27.845v200.988c4.879-2.367,9.558-5.079,14.012-8.105V35.95C186.416,32.924,181.737,30.212,176.858,27.845z"/>
		<path d="M145.808,18.097v220.478c1.887-0.295,3.75-0.645,5.603-1.033V19.136C149.558,18.741,147.694,18.397,145.808,18.097z"/>
		<path d="M73.503,31.151v194.371c1.838,1.044,3.7,2.038,5.604,2.977V28.175C77.203,29.113,75.341,30.112,73.503,31.151z"/>
		<path d="M209.647,52.02v152.638c2.467-2.626,4.804-5.367,7.011-8.219V60.239C214.451,57.388,212.114,54.646,209.647,52.02z"/>
		<path fill="#19A3A0" d="M97.168,21.168v214.34c2.308,0.67,4.64,1.269,7.002,1.793V19.371
			C101.808,19.895,99.476,20.494,97.168,21.168z"/>
	</g>
</g>
</svg>
