<?xml version="1.0" encoding="utf-8"?>
<!-- Generator: Adobe Illustrator 15.0.0, SVG Export Plug-In . SVG Version: 6.00 Build 0)  -->
<!DOCTYPE svg PUBLIC "-//W3C//DTD SVG 1.1//EN" "http://www.w3.org/Graphics/SVG/1.1/DTD/svg11.dtd">
<svg version="1.1" id="Layer_1" xmlns="http://www.w3.org/2000/svg" xmlns:xlink="http://www.w3.org/1999/xlink" x="0px" y="0px"
	 width="61.191px" height="61.199px" viewBox="3.4 3.4 61.191 61.199" enable-background="new 3.4 3.4 61.191 61.199"
	 xml:space="preserve">
<g>
	<g>
		<g>
			<path fill="#424243" d="M64.591,34C64.591,50.9,50.896,64.6,34,64.6C17.101,64.6,3.4,50.9,3.4,34C3.4,17.103,17.101,3.4,34,3.4
				C50.896,3.4,64.591,17.103,64.591,34z"/>
		</g>
		<g>
			<path fill="#FFFFFF" d="M35.552,35.045h-2.754l-0.501,2.318h3.256c0.688,0,1.235-0.52,1.235-1.158
				C36.787,35.561,36.24,35.045,35.552,35.045z"/>
			<path fill="#FFFFFF" d="M36.227,30.19H33.85l-0.337,1.54l-0.096,0.459h0.315h1.386h1.109c0.213,0,0.406-0.055,0.582-0.157
				c0.29-0.179,0.477-0.492,0.477-0.844C37.285,30.636,36.809,30.19,36.227,30.19z"/>
			<path fill="#FFFFFF" d="M22.33,30.468h-1.723l-0.573,2.645h2.296c0.771,0,1.409-0.587,1.409-1.319
				C23.739,31.062,23.102,30.468,22.33,30.468z"/>
			<path fill="#FFFFFF" d="M50.254,23.781h-32.51C12.1,23.781,7.521,28.354,7.521,34c0,5.647,4.579,10.221,10.223,10.221h32.51
				c5.644,0,10.221-4.574,10.221-10.221C60.475,28.354,55.896,23.781,50.254,23.781z M22.757,36.82h-3.524l-0.956,4.395h-4.68
				l3.22-14.815h6.151l-0.065,0.011c2.978,0.081,5.372,2.377,5.372,5.203C28.275,34.486,25.8,36.82,22.757,36.82z M41.338,36.609
				c0,2.549-2.188,4.605-4.888,4.605l0,0h-4.993h-4.36L30.319,26.4h4.351h3.081c2.477,0,4.312,1.856,4.114,4.054
				c-0.113,1.234-0.845,2.297-1.891,2.976C40.824,34.254,41.338,35.375,41.338,36.609z M54.787,36.205
				c0,1.866-1.595,5.295-6.184,5.295c-4.588,0-6.352-2.793-6.352-5.418h4.394c0,1.281,0.666,2.049,1.815,2.049
				c0.757,0,1.836-0.115,1.836-1.264c0-1.822-6.777-1.246-6.777-5.899c0-3.394,3.653-4.75,6.06-4.75c1.889,0,5.663,0.499,5.663,4.97
				h-4.293c0-1.171-1.014-1.641-1.763-1.641c-0.737,0-1.421,0.481-1.421,1.16C47.766,32.011,54.787,32.188,54.787,36.205z"/>
		</g>
	</g>
</g>
</svg>
