<?xml version="1.0" encoding="utf-8"?>
<!-- Generator: Adobe Illustrator 15.0.0, SVG Export Plug-In . SVG Version: 6.00 Build 0)  -->
<!DOCTYPE svg PUBLIC "-//W3C//DTD SVG 1.1//EN" "http://www.w3.org/Graphics/SVG/1.1/DTD/svg11.dtd">
<svg version="1.1" id="Layer_1" xmlns="http://www.w3.org/2000/svg" xmlns:xlink="http://www.w3.org/1999/xlink" x="0px" y="0px"
	 width="22.897px" height="20.918px" viewBox="0 0 22.897 20.918" enable-background="new 0 0 22.897 20.918" xml:space="preserve">
<g>
	<path fill="#6E6F71" d="M1.2,20.918c0.308,0,0.614-0.117,0.849-0.352l10.104-10.11L2.049,0.352c-0.469-0.469-1.229-0.469-1.697,0
		s-0.469,1.229,0,1.697l8.408,8.408L0.352,18.87c-0.469,0.469-0.468,1.229,0.001,1.696C0.587,20.801,0.894,20.918,1.2,20.918z"/>
	<path fill="#6E6F71" d="M11.942,20.918c0.308,0,0.614-0.117,0.849-0.352l10.106-10.11L12.791,0.352
		c-0.469-0.469-1.229-0.469-1.697,0s-0.468,1.229,0,1.697l8.41,8.408l-8.41,8.413c-0.469,0.469-0.468,1.229,0.001,1.696
		C11.328,20.801,11.636,20.918,11.942,20.918z"/>
</g>
</svg>
