<?xml version="1.0" encoding="utf-8"?>
<!-- Generator: Adobe Illustrator 15.0.0, SVG Export Plug-In . SVG Version: 6.00 Build 0)  -->
<!DOCTYPE svg PUBLIC "-//W3C//DTD SVG 1.1//EN" "http://www.w3.org/Graphics/SVG/1.1/DTD/svg11.dtd">
<svg version="1.1" id="Layer_1" xmlns="http://www.w3.org/2000/svg" xmlns:xlink="http://www.w3.org/1999/xlink" x="0px" y="0px"
	 width="61.199px" height="61.199px" viewBox="3.4 3.4 61.199 61.199" enable-background="new 3.4 3.4 61.199 61.199"
	 xml:space="preserve">
<g>
	<g>
		<g>
			<path fill="#424243" d="M64.6,34c0,16.901-13.703,30.6-30.603,30.6C17.103,64.6,3.4,50.9,3.4,34
				C3.4,17.103,17.103,3.4,33.997,3.4C50.896,3.4,64.6,17.103,64.6,34z"/>
		</g>
		<g>
			<path fill="#FFFFFF" d="M40.068,21.661c0,3.312-2.674,5.996-5.987,5.996c-3.312,0-5.998-2.684-5.998-5.996
				c0-3.309,2.686-5.991,5.998-5.991C37.395,15.67,40.068,18.353,40.068,21.661z"/>
			<path fill="#FFFFFF" d="M47.14,37.066c-0.882-1.639-2.132-3.927-3.345-5.492c-0.329-0.485-0.736-0.918-1.199-1.274
				c-0.029-0.026-0.072-0.055-0.095-0.072c-0.018-0.011-0.025-0.018-0.032-0.025c-0.914-0.655-2.014-1.051-3.225-1.051h-9.18
				c-1.737,0-3.287,0.738-4.378,1.905c-0.018,0.026-0.041,0.039-0.065,0.063c-0.021,0.027-0.044,0.055-0.068,0.088
				c-0.074,0.09-0.157,0.181-0.234,0.281c-2.001,2.385-3.129,5.26-4.522,8.205c-1.464,3.103-0.983,6.68,1.181,9.123
				c2.175,2.451,8.137,4.631,12.423,2.889c3.777-1.557,1.18-4.703-1.454-4.82c-2.645-0.116-5.49-0.785-6.544-1.221
				c-1.069-0.434-1.586-1.297-0.323-1.219c1.263,0.08,3.79-0.556,4.106-1.17c0.312-0.61-0.908-1.472-1.181-2.462
				c-0.283-0.988-0.317-2.823,1.366-2.823c1.679,0,2.07,2.261,3.34,3.79c1.264,1.519,3.108,2.729,6.075,2.151
				c-1.169,0.984-2.264,1.832-2.389,2.404c-0.257,1.171,0,3.518,3.406,2.968c3.408-0.552,5.129-3.118,6.339-5.054
				C48.35,42.305,48.35,39.302,47.14,37.066z M38.83,43.276c-2.304,0-4.172-1.867-4.172-4.175c0-2.311,1.868-4.177,4.172-4.177
				c2.309,0,4.183,1.866,4.183,4.177C43.013,41.409,41.139,43.276,38.83,43.276z"/>
		</g>
	</g>
</g>
</svg>
