<?xml version="1.0" encoding="utf-8"?>
<!-- Generator: Adobe Illustrator 16.0.3, SVG Export Plug-In . SVG Version: 6.00 Build 0)  -->
<!DOCTYPE svg PUBLIC "-//W3C//DTD SVG 1.1//EN" "http://www.w3.org/Graphics/SVG/1.1/DTD/svg11.dtd">
<svg version="1.1" id="Layer_1" xmlns="http://www.w3.org/2000/svg" xmlns:xlink="http://www.w3.org/1999/xlink" x="0px" y="0px"
	 width="24px" height="24px" viewBox="0 0 24 24" enable-background="new 0 0 24 24" xml:space="preserve">
<path fill="#F1F1F1" d="M24,12c0,6.629-5.373,12-12,12C5.37,24,0,18.629,0,12C0,5.373,5.37,0,12,0C18.627,0,24,5.373,24,12z"/>
<path fill="#434143" d="M18.066,6.835c-0.103-0.095-0.205-0.181-0.311-0.26c-0.033-0.024-0.066-0.044-0.102-0.067
	c-0.071-0.049-0.143-0.095-0.215-0.134c-0.039-0.021-0.08-0.038-0.119-0.057c-0.066-0.03-0.133-0.059-0.198-0.078
	c-0.042-0.014-0.084-0.024-0.127-0.033c-0.063-0.014-0.129-0.023-0.193-0.027c-0.024-0.002-0.052-0.01-0.075-0.01
	c-0.021,0-0.043,0.006-0.064,0.007c-0.034,0.003-0.069,0.007-0.104,0.011c-0.058,0.01-0.113,0.022-0.17,0.041
	c-0.033,0.011-0.068,0.021-0.101,0.035c-0.062,0.024-0.118,0.057-0.179,0.094c-0.027,0.018-0.057,0.031-0.086,0.052
	c-0.084,0.062-0.17,0.133-0.252,0.221c-2.328,2.472-4.201,4.693-5.356,6.113l-2.276-2.096c-0.087-0.08-0.175-0.141-0.265-0.193
	c-0.024-0.016-0.052-0.028-0.078-0.041c-0.067-0.034-0.136-0.063-0.205-0.083c-0.024-0.009-0.05-0.017-0.075-0.022
	c-0.089-0.021-0.178-0.033-0.269-0.033c-0.002,0-0.004,0-0.007,0c-0.006,0-0.012,0-0.018,0c-0.086,0.002-0.175,0.015-0.262,0.035
	c-0.02,0.004-0.038,0.006-0.057,0.012c-0.09,0.022-0.178,0.054-0.268,0.094c-0.015,0.007-0.031,0.016-0.047,0.023
	c-0.081,0.039-0.16,0.084-0.238,0.135c-0.014,0.009-0.027,0.016-0.041,0.025c-0.086,0.058-0.168,0.123-0.252,0.193
	c-0.018,0.016-0.035,0.031-0.053,0.047c-0.083,0.074-0.164,0.153-0.242,0.238c-0.703,0.763-0.933,1.627-0.17,2.331l3.764,3.465
	c0.348,0.32,0.802,0.496,1.271,0.496c0.056,0,0.11-0.002,0.166-0.008c0.526-0.047,1.008-0.313,1.329-0.732
	c0.025-0.033,2.623-3.436,6.38-7.424C19.216,8.45,18.82,7.547,18.066,6.835z"/>
</svg>
