<?xml version="1.0" encoding="utf-8"?>
<!-- Generator: Adobe Illustrator 16.0.3, SVG Export Plug-In . SVG Version: 6.00 Build 0)  -->
<!DOCTYPE svg PUBLIC "-//W3C//DTD SVG 1.1//EN" "http://www.w3.org/Graphics/SVG/1.1/DTD/svg11.dtd">
<svg version="1.1" id="Layer_1" xmlns="http://www.w3.org/2000/svg" xmlns:xlink="http://www.w3.org/1999/xlink" x="0px" y="0px"
	 width="24px" height="24px" viewBox="0 0 24 24" enable-background="new 0 0 24 24" xml:space="preserve">
<path fill="#F1F1F1" d="M24,12c0,6.629-5.373,12-12,12C5.37,24,0,18.629,0,12C0,5.373,5.37,0,12,0C18.627,0,24,5.373,24,12z"/>
<path fill="#434143" d="M16.727,7.171L16.727,7.171c0.108,0,0.347,0.104,0.654,0.394c0.455,0.43,0.59,0.75,0.396,0.955
	c-3.614,3.838-6.164,7.133-6.447,7.504c-0.15,0.196-0.375,0.321-0.622,0.344c-0.024,0.003-0.052,0.004-0.077,0.004
	c-0.221,0-0.432-0.082-0.594-0.23l-3.764-3.468c-0.133-0.121-0.334-0.307,0.229-0.916c0.328-0.356,0.607-0.481,0.747-0.481
	c0.028,0,0.095,0,0.213,0.108l2.276,2.097l0.783,0.722l0.67-0.825c1.151-1.414,3.006-3.611,5.31-6.059
	C16.563,7.25,16.652,7.171,16.727,7.171 M16.727,6.171c-0.33,0-0.651,0.14-0.953,0.46c-2.328,2.471-4.2,4.692-5.356,6.113
	l-2.276-2.098c-0.283-0.262-0.586-0.373-0.892-0.373c-0.519,0-1.041,0.324-1.483,0.805c-0.701,0.762-0.932,1.626-0.17,2.33
	l3.764,3.466c0.348,0.319,0.803,0.496,1.271,0.496c0.056,0,0.11-0.003,0.166-0.009c0.526-0.047,1.009-0.313,1.329-0.732
	c0.025-0.033,2.623-3.436,6.38-7.424c0.711-0.755,0.315-1.656-0.438-2.368C17.632,6.428,17.173,6.171,16.727,6.171L16.727,6.171z"/>
</svg>
