<?xml version="1.0" encoding="utf-8"?>
<!-- Generator: Adobe Illustrator 16.0.3, SVG Export Plug-In . SVG Version: 6.00 Build 0)  -->
<!DOCTYPE svg PUBLIC "-//W3C//DTD SVG 1.1//EN" "http://www.w3.org/Graphics/SVG/1.1/DTD/svg11.dtd">
<svg version="1.1" id="Layer_1" xmlns="http://www.w3.org/2000/svg" xmlns:xlink="http://www.w3.org/1999/xlink" x="0px" y="0px"
	 width="24px" height="24px" viewBox="0 0 24 24" enable-background="new 0 0 24 24" xml:space="preserve">
<path fill="#F1F1F2" d="M0.099,12C0.099,5.426,5.428,0.098,12,0.098c6.576,0,11.902,5.328,11.902,11.901
	c0,6.573-5.326,11.903-11.902,11.903C5.428,23.902,0.099,18.572,0.099,12z"/>
<g>
	<circle fill="#424142" cx="11.992" cy="6.029" r="1.711"/>
</g>
<path fill="#424142" d="M13.8,8.052c-0.733,0-0.573,0-1.808,0c-1.233,0-1.072,0-1.807,0c-0.732,0-1.008,0.688-1.008,0.939
	s0,4.422,0,5.135c0,0.711,0.688,0.916,1.008,0.916c0,0.871,0,3.736,0,3.736c0,0.459,0.458,0.822,0.758,0.822
	c0.299,0,1.049,0,1.049,0s0.754,0,1.051,0c0.299,0,0.757-0.363,0.757-0.822c0,0,0-2.865,0-3.736c0.319,0,1.008-0.205,1.008-0.916
	c0-0.713,0-4.881,0-5.135C14.808,8.74,14.535,8.052,13.8,8.052z"/>
<g>
	<circle fill="#424142" cx="6.027" cy="7.058" r="1.46"/>
</g>
<g>
	<path fill="#424142" d="M6.027,18.645c0,0,0.644,0,0.897,0s0.646-0.313,0.646-0.701c0,0,0-2.445,0-3.189
		c0.274,0,0.861-0.176,0.861-0.783c0-0.605,0-4.167,0-4.381c0-0.217-0.236-0.803-0.861-0.803s-0.488,0-1.541,0s-0.916,0-1.543,0
		c-0.625,0-0.861,0.586-0.861,0.803c0,0.215,0,3.776,0,4.381c0,0.607,0.589,0.783,0.861,0.783c0,0.744,0,3.189,0,3.189
		c0,0.389,0.393,0.701,0.646,0.701C5.386,18.645,6.027,18.645,6.027,18.645z"/>
</g>
<g>
	<circle fill="#424142" cx="18.078" cy="7.058" r="1.46"/>
</g>
<path fill="#424142" d="M19.621,8.785c-0.629,0-0.489,0-1.543,0c-1.053,0-0.916,0-1.541,0c-0.627,0-0.86,0.588-0.86,0.804
	c0,0.215,0,3.775,0,4.38c0,0.607,0.588,0.783,0.86,0.783c0,0.744,0,3.189,0,3.189c0,0.391,0.391,0.703,0.646,0.703
	c0.254,0,0.896,0,0.896,0s0.643,0,0.897,0c0.253,0,0.646-0.313,0.646-0.703c0,0,0-2.445,0-3.189c0.273,0,0.859-0.176,0.859-0.783
	c0-0.604,0-4.166,0-4.38C20.482,9.373,20.244,8.785,19.621,8.785z"/>
</svg>
