<?xml version="1.0" encoding="utf-8"?>
<!-- Generator: Adobe Illustrator 16.0.3, SVG Export Plug-In . SVG Version: 6.00 Build 0)  -->
<!DOCTYPE svg PUBLIC "-//W3C//DTD SVG 1.1//EN" "http://www.w3.org/Graphics/SVG/1.1/DTD/svg11.dtd">
<svg version="1.1" id="Layer_1" xmlns="http://www.w3.org/2000/svg" xmlns:xlink="http://www.w3.org/1999/xlink" x="0px" y="0px"
	 width="24px" height="24px" viewBox="0 0 24 24" enable-background="new 0 0 24 24" xml:space="preserve">
<g id="VLP7cD_1_">
</g>
<g id="VLP7cD_2_">
</g>
<g id="VLP7cD_4_">
</g>
<path fill="#F1F1F1" d="M0.062,12.062C0.062,5.467,5.407,0.124,12,0.124c6.595,0,11.938,5.343,11.938,11.938
	C23.938,18.654,18.595,24,12,24C5.406,24,0.062,18.654,0.062,12.062z"/>
<g>
	<path fill="#424142" d="M18.463,8.505c1.024,0,1.854-0.834,1.854-1.857c0-1.025-0.83-1.855-1.854-1.855
		c-1.026,0-1.856,0.83-1.856,1.855C16.606,7.671,17.437,8.505,18.463,8.505z M18.463,5.637c0.556,0,1.009,0.452,1.009,1.01
		s-0.453,1.011-1.009,1.011c-0.558,0-1.012-0.453-1.012-1.011S17.905,5.637,18.463,5.637z"/>
	<path fill="#424142" d="M20.081,8.977c-0.657,0-0.514,0-1.618,0s-0.964,0-1.621,0s-0.903,0.616-0.903,0.843s0,3.967,0,4.604
		s0.617,0.82,0.903,0.82c0,0.779,0,3.35,0,3.35c0,0.41,0.411,0.736,0.679,0.736s0.942,0,0.942,0s0.673,0,0.94,0
		c0.267,0,0.678-0.326,0.678-0.736c0,0,0-2.568,0-3.35c0.287,0,0.904-0.186,0.904-0.82c0-0.637,0-4.377,0-4.604
		S20.737,8.977,20.081,8.977z M20.14,14.383c-0.021,0.008-0.043,0.014-0.059,0.014h-0.846v0.848v3.242h-0.772h-0.774v-3.242
		l0.004-0.848h-0.844c-0.019,0-0.043-0.006-0.063-0.014V9.876c0.011-0.021,0.03-0.045,0.058-0.055h1.621h1.618h0.021
		c0.012,0.008,0.028,0.031,0.039,0.055v4.506H20.14z"/>
	<path fill="#424142" d="M11.999,7.717c1.254,0,2.268-1.017,2.268-2.27S13.253,3.18,11.999,3.18c-1.253,0-2.268,1.016-2.268,2.269
		C9.731,6.703,10.746,7.717,11.999,7.717z M11.999,4.026c0.784,0,1.422,0.638,1.422,1.422c0,0.785-0.639,1.423-1.422,1.423
		s-1.421-0.639-1.421-1.423S11.215,4.026,11.999,4.026z"/>
	<path fill="#424142" d="M13.978,8.292c-0.806,0-0.629,0-1.979,0s-1.175,0-1.979,0c-0.805,0-1.105,0.754-1.105,1.029
		c0,0.277,0,4.844,0,5.622c0,0.779,0.753,1.004,1.105,1.004c0,0.955,0,4.094,0,4.094c0,0.5,0.502,0.9,0.828,0.9
		c0.325,0,1.149,0,1.149,0s0.823,0,1.151,0c0.324,0,0.828-0.4,0.828-0.9c0,0,0-3.139,0-4.094c0.351,0,1.104-0.223,1.104-1.004
		c0-0.777,0-5.344,0-5.622C15.081,9.046,14.778,8.292,13.978,8.292z M14.235,14.943c0,0.145-0.256,0.158-0.258,0.158h-0.847v0.848
		l0.003,4.072c-0.008,0.021-0.037,0.055-0.064,0.076h-1.07h-1.07c-0.027-0.02-0.058-0.053-0.063-0.057v-4.094l-0.006-0.84
		l-0.84-0.006c-0.002,0-0.258-0.016-0.258-0.158V9.357c0.014-0.05,0.072-0.218,0.258-0.218h1.979h1.979
		c0.187,0,0.246,0.168,0.26,0.218L14.235,14.943L14.235,14.943z"/>
	<path fill="#424142" d="M5.536,8.505c1.025,0,1.855-0.834,1.855-1.857c0-1.025-0.83-1.855-1.855-1.855s-1.855,0.83-1.855,1.855
		C3.679,7.671,4.511,8.505,5.536,8.505z M5.536,5.637c0.557,0,1.01,0.452,1.01,1.01s-0.453,1.011-1.01,1.011s-1.01-0.453-1.01-1.011
		S4.979,5.637,5.536,5.637z"/>
	<path fill="#424142" d="M7.156,8.977c-0.658,0-0.515,0-1.62,0s-0.963,0-1.62,0S3.013,9.593,3.013,9.82s0,3.967,0,4.604
		s0.616,0.82,0.903,0.82c0,0.779,0,3.35,0,3.35c0,0.41,0.411,0.736,0.679,0.736s0.941,0,0.941,0s0.673,0,0.941,0
		c0.267,0,0.678-0.326,0.678-0.736c0,0,0-2.568,0-3.35c0.287,0,0.904-0.186,0.904-0.82c0-0.637,0-4.377,0-4.604
		S7.812,8.977,7.156,8.977z M7.214,14.383c-0.021,0.008-0.044,0.014-0.059,0.014H6.31v0.848v3.242H5.535H4.763v-3.242l0.004-0.848
		H3.921c-0.018,0-0.042-0.006-0.064-0.014V9.876c0.011-0.021,0.031-0.045,0.06-0.055h1.62h1.62h0.021
		C7.188,9.83,7.204,9.853,7.215,9.876L7.214,14.383z"/>
</g>
</svg>
