<?xml version="1.0" encoding="utf-8"?>
<!-- Generator: Adobe Illustrator 16.0.3, SVG Export Plug-In . SVG Version: 6.00 Build 0)  -->
<!DOCTYPE svg PUBLIC "-//W3C//DTD SVG 1.1//EN" "http://www.w3.org/Graphics/SVG/1.1/DTD/svg11.dtd">
<svg version="1.1" id="Layer_1" xmlns="http://www.w3.org/2000/svg" xmlns:xlink="http://www.w3.org/1999/xlink" x="0px" y="0px"
	 width="24px" height="24px" viewBox="0 0 24 24" enable-background="new 0 0 24 24" xml:space="preserve">
<g>
	<path fill="#F1F1F2" d="M24,12.053C24,18.652,18.65,24,12.053,24C5.451,24,0.106,18.652,0.106,12.053
		c0-6.598,5.347-11.947,11.947-11.947C18.65,0.105,24,5.455,24,12.053z"/>
	<path fill="#424142" d="M15.935,18.525c-0.079,0-0.157-0.021-0.231-0.059l-3.65-1.918l-3.65,1.918
		c-0.166,0.089-0.371,0.075-0.524-0.038c-0.153-0.11-0.229-0.3-0.198-0.485l0.7-4.065l-2.955-2.877
		c-0.136-0.132-0.185-0.33-0.126-0.511c0.059-0.18,0.214-0.312,0.402-0.338l4.08-0.595l1.826-3.698c0.168-0.34,0.725-0.34,0.894,0
		l1.827,3.698l4.08,0.595c0.188,0.026,0.345,0.157,0.402,0.338c0.059,0.182,0.012,0.379-0.126,0.511l-2.956,2.877l0.697,4.065
		c0.031,0.187-0.045,0.375-0.196,0.485C16.142,18.492,16.037,18.525,15.935,18.525z M12.052,15.49c0.08,0,0.158,0.019,0.231,0.057
		l2.99,1.57l-0.572-3.33c-0.027-0.16,0.026-0.325,0.144-0.44l2.42-2.356l-3.342-0.485c-0.163-0.022-0.304-0.125-0.375-0.272
		l-1.496-3.027l-1.496,3.027c-0.073,0.147-0.213,0.25-0.375,0.272L6.839,10.99l2.42,2.356c0.117,0.115,0.171,0.28,0.144,0.44
		l-0.572,3.33l2.99-1.569C11.893,15.508,11.972,15.49,12.052,15.49z"/>
</g>
</svg>
