<?xml version="1.0" encoding="utf-8"?>
<!-- Generator: Adobe Illustrator 16.0.3, SVG Export Plug-In . SVG Version: 6.00 Build 0)  -->
<!DOCTYPE svg PUBLIC "-//W3C//DTD SVG 1.1//EN" "http://www.w3.org/Graphics/SVG/1.1/DTD/svg11.dtd">
<svg version="1.1" id="Layer_1" xmlns="http://www.w3.org/2000/svg" xmlns:xlink="http://www.w3.org/1999/xlink" x="0px" y="0px"
	 width="24px" height="24px" viewBox="0 0 24 24" enable-background="new 0 0 24 24" xml:space="preserve">
<g>
	<path fill="#F1F1F1" d="M24,11.999C24,18.629,18.627,24,12,24C5.37,24,0,18.629,0,11.999c0-6.627,5.37-12,12-12
		C18.627-0.001,24,5.372,24,11.999z"/>
	<path fill="#434143" d="M8.137,9.683H3.419c-0.276,0-0.5-0.224-0.5-0.5c0-0.275,0.224-0.5,0.5-0.5h4.718c0.276,0,0.5,0.225,0.5,0.5
		S8.413,9.683,8.137,9.683z"/>
	<path fill="#434143" d="M8.137,11.956h-3.75c-0.277,0-0.5-0.225-0.5-0.5s0.223-0.5,0.5-0.5h3.75c0.276,0,0.5,0.225,0.5,0.5
		S8.413,11.956,8.137,11.956z"/>
	<path fill="#434143" d="M8.137,14.229H5.042c-0.274,0-0.5-0.224-0.5-0.5s0.224-0.502,0.5-0.502h3.095c0.276,0,0.5,0.226,0.5,0.502
		C8.637,14.007,8.413,14.229,8.137,14.229z"/>
	<g>
		<polygon fill="#434143" points="19.689,7.959 10.006,7.959 14.85,11.522 		"/>
		<path fill="#434143" d="M15.145,12.546c-0.088,0.064-0.192,0.098-0.295,0.098c-0.105,0-0.211-0.031-0.299-0.098l-5.21-3.834v7.116
			c0,0.276,0.224,0.501,0.5,0.501h10.013c0.276,0,0.5-0.225,0.5-0.501V8.713L15.145,12.546z"/>
	</g>
</g>
</svg>
