<?xml version="1.0" encoding="utf-8"?>
<!-- Generator: Adobe Illustrator 16.0.3, SVG Export Plug-In . SVG Version: 6.00 Build 0)  -->
<!DOCTYPE svg PUBLIC "-//W3C//DTD SVG 1.1//EN" "http://www.w3.org/Graphics/SVG/1.1/DTD/svg11.dtd">
<svg version="1.1" id="Layer_1" xmlns="http://www.w3.org/2000/svg" xmlns:xlink="http://www.w3.org/1999/xlink" x="0px" y="0px"
	 width="24px" height="24px" viewBox="12 12 24 24" enable-background="new 12 12 24 24" xml:space="preserve">
<path fill="#F1F1F1" d="M35.998,23.996c0,6.628-5.372,11.998-11.998,11.998c-6.629,0-11.998-5.37-11.998-11.998
	c0-6.626,5.369-11.998,11.998-11.998C30.626,11.998,35.998,17.37,35.998,23.996z"/>
<g>
	<path fill="#434143" d="M31.853,28.324H21.841c-0.276,0-0.5-0.223-0.5-0.5v-7.367c0-0.276,0.224-0.5,0.5-0.5h10.011
		c0.276,0,0.499,0.224,0.499,0.5v7.368C32.352,28.102,32.129,28.324,31.853,28.324z M22.341,27.324h9.011v-6.367h-9.011V27.324z"/>
	<path fill="#434143" d="M20.137,21.68H15.42c-0.276,0-0.5-0.223-0.5-0.5c0-0.276,0.224-0.5,0.5-0.5h4.717
		c0.276,0,0.5,0.224,0.5,0.5C20.637,21.457,20.413,21.68,20.137,21.68z"/>
	<path fill="#434143" d="M20.137,23.953h-3.75c-0.276,0-0.5-0.224-0.5-0.5s0.224-0.5,0.5-0.5h3.75c0.276,0,0.5,0.224,0.5,0.5
		S20.413,23.953,20.137,23.953z"/>
	<path fill="#434143" d="M20.137,26.227h-3.093c-0.276,0-0.5-0.225-0.5-0.5c0-0.276,0.224-0.5,0.5-0.5h3.093
		c0.276,0,0.5,0.224,0.5,0.5C20.636,26.002,20.413,26.227,20.137,26.227z"/>
	<path fill="#434143" d="M26.848,24.641c-0.105,0-0.21-0.032-0.298-0.098l-4.787-3.522c-0.222-0.164-0.271-0.477-0.106-0.699
		c0.164-0.221,0.477-0.271,0.699-0.106l4.491,3.304l4.42-3.251c0.222-0.164,0.534-0.116,0.697,0.106
		c0.165,0.222,0.117,0.536-0.105,0.699l-4.716,3.47C27.056,24.608,26.951,24.641,26.848,24.641z"/>
</g>
</svg>
