<?xml version="1.0" encoding="utf-8"?>
<!-- Generator: Adobe Illustrator 15.0.0, SVG Export Plug-In . SVG Version: 6.00 Build 0)  -->
<!DOCTYPE svg PUBLIC "-//W3C//DTD SVG 1.1//EN" "http://www.w3.org/Graphics/SVG/1.1/DTD/svg11.dtd">
<svg version="1.1" id="Layer_1" xmlns="http://www.w3.org/2000/svg" xmlns:xlink="http://www.w3.org/1999/xlink" x="0px" y="0px"
	 width="50.934px" height="44.909px" viewBox="0 0 50.934 44.909" enable-background="new 0 0 50.934 44.909" xml:space="preserve">
<g>
	<path fill="#424142" d="M50.332,39.945l-22-38.106c-1.414-2.451-4.316-2.451-5.73,0l-22,38.106
		c-0.709,1.225-0.795,2.481-0.238,3.446s1.688,1.518,3.104,1.518h44c1.416,0,2.547-0.553,3.104-1.518S51.041,41.169,50.332,39.945z"
		/>
	<path fill="#FFFFFF" d="M24.113,15.363h2.707v16.25h-2.707V15.363z"/>
	<path fill="#FFFFFF" d="M25.463,34.548c1.4,0,2.557,1.162,2.557,2.553c0,1.396-1.156,2.557-2.557,2.557
		c-1.393,0-2.549-1.16-2.549-2.557C22.914,35.71,24.07,34.548,25.463,34.548z"/>
</g>
</svg>
