<?xml version="1.0" encoding="utf-8"?>
<!-- Generator: Adobe Illustrator 16.0.3, SVG Export Plug-In . SVG Version: 6.00 Build 0)  -->
<!DOCTYPE svg PUBLIC "-//W3C//DTD SVG 1.1//EN" "http://www.w3.org/Graphics/SVG/1.1/DTD/svg11.dtd">
<svg version="1.1" id="Layer_1" xmlns="http://www.w3.org/2000/svg" xmlns:xlink="http://www.w3.org/1999/xlink" x="0px" y="0px"
	 width="24px" height="24px" viewBox="0 0 24 24" enable-background="new 0 0 24 24" xml:space="preserve">
<g>
	<path fill="#F1F1F1" d="M23.938,12.063C23.938,18.657,18.592,24,12,24C5.404,24,0.062,18.657,0.062,12.063
		C0.062,5.471,5.404,0.125,12,0.125C18.592,0.125,23.938,5.471,23.938,12.063z"/>
	<rect x="8.404" y="14.326" fill="#434143" width="7.047" height="4.493"/>
	<path fill="#434143" d="M18.016,10.783H16.68V8.508c0-0.012-0.007-0.021-0.007-0.031c-0.003-0.044-0.012-0.086-0.026-0.128
		c-0.006-0.017-0.008-0.031-0.017-0.047c-0.022-0.054-0.055-0.104-0.097-0.146l-2.729-2.728c-0.043-0.043-0.094-0.073-0.146-0.098
		c-0.017-0.007-0.031-0.012-0.048-0.018c-0.041-0.014-0.082-0.021-0.127-0.025c-0.01,0-0.021-0.006-0.031-0.006H7.908
		c-0.275,0-0.498,0.223-0.498,0.497v5.003H5.984c-0.274,0-0.496,0.223-0.496,0.498v4.518c0,0.274,0.222,0.498,0.496,0.498H7.41
		v-2.469c0-0.274,0.223-0.498,0.498-0.498h8.04c0.274,0,0.497,0.224,0.497,0.498v2.469h1.568c0.274,0,0.498-0.224,0.498-0.498
		v-4.518C18.514,11.006,18.289,10.783,18.016,10.783z M14.98,8.011h-1.029V6.98L14.98,8.011z M8.404,6.277h4.552v2.23
		c0,0.274,0.224,0.498,0.496,0.498h2.229v1.777H8.404V6.277z"/>
</g>
</svg>
