<?xml version="1.0" encoding="utf-8"?>
<!-- Generator: Adobe Illustrator 16.0.3, SVG Export Plug-In . SVG Version: 6.00 Build 0)  -->
<!DOCTYPE svg PUBLIC "-//W3C//DTD SVG 1.1//EN" "http://www.w3.org/Graphics/SVG/1.1/DTD/svg11.dtd">
<svg version="1.1" id="Layer_1" xmlns="http://www.w3.org/2000/svg" xmlns:xlink="http://www.w3.org/1999/xlink" x="0px" y="0px"
	 width="24px" height="24px" viewBox="0 0 24 24" enable-background="new 0 0 24 24" xml:space="preserve">
<g>
	<path fill="#F1F1F1" d="M24,12.042C24,18.647,18.646,24,12.042,24C5.435,24,0.084,18.647,0.084,12.042
		c0-6.604,5.351-11.958,11.958-11.958C18.646,0.084,24,5.438,24,12.042z"/>
	<g>
		<path fill="#434143" d="M18.067,16.283H6.017c-0.275,0-0.498-0.224-0.498-0.499v-4.525c0-0.275,0.223-0.498,0.498-0.498h12.051
			c0.276,0,0.498,0.223,0.498,0.498v4.525C18.565,16.062,18.344,16.283,18.067,16.283z M6.515,15.287h11.055v-3.529H6.515V15.287z"
			/>
		<g>
			<rect x="7.942" y="13.81" fill="#F1F1F1" width="8.055" height="4.526"/>
			<path fill="#434143" d="M15.997,18.834H7.942c-0.275,0-0.498-0.224-0.498-0.498V13.81c0-0.273,0.223-0.496,0.498-0.496h8.055
				c0.275,0,0.498,0.223,0.498,0.496v4.526C16.495,18.61,16.272,18.834,15.997,18.834z M8.44,17.837h7.059V14.31H8.44V17.837z"/>
		</g>
		<path fill="#434143" d="M16.229,11.758H7.942c-0.275,0-0.498-0.223-0.498-0.499v-5.51c0-0.275,0.223-0.498,0.498-0.498h5.556
			c0.132,0,0.259,0.052,0.353,0.146l2.732,2.731c0.094,0.095,0.146,0.22,0.146,0.353v2.778
			C16.729,11.535,16.507,11.758,16.229,11.758z M8.44,10.761h7.293V8.687l-2.441-2.439H8.44V10.761L8.44,10.761z"/>
		<path fill="#434143" d="M16.229,8.979h-2.731C13.224,8.979,13,8.757,13,8.481V5.75c0-0.201,0.121-0.383,0.308-0.46
			c0.187-0.076,0.399-0.034,0.543,0.107l2.732,2.732c0.143,0.143,0.186,0.355,0.107,0.543C16.614,8.858,16.433,8.979,16.229,8.979z
			 M13.997,7.983h1.031l-1.031-1.031V7.983z"/>
	</g>
</g>
</svg>
