<?xml version="1.0" encoding="utf-8"?>
<!-- Generator: Adobe Illustrator 15.0.0, SVG Export Plug-In . SVG Version: 6.00 Build 0)  -->
<!DOCTYPE svg PUBLIC "-//W3C//DTD SVG 1.1//EN" "http://www.w3.org/Graphics/SVG/1.1/DTD/svg11.dtd">
<svg version="1.1" id="Layer_1" xmlns="http://www.w3.org/2000/svg" xmlns:xlink="http://www.w3.org/1999/xlink" x="0px" y="0px"
	 width="54px" height="54.001px" viewBox="0 0 54 54.001" enable-background="new 0 0 54 54.001" xml:space="preserve">
<g>
	<path fill="#FFFFFF" d="M53.414,50.587L37.063,34.237c2.99-3.619,4.789-8.257,4.789-13.307C41.853,9.389,32.465,0,20.927,0
		C9.388,0,0,9.389,0,20.93c0,11.538,9.388,20.924,20.927,20.924c5.051,0,9.689-1.799,13.309-4.789l16.351,16.351
		c0.391,0.391,0.902,0.586,1.414,0.586s1.023-0.195,1.414-0.586C54.195,52.634,54.195,51.369,53.414,50.587z M4,20.93
		C4,11.595,11.594,4,20.927,4s16.926,7.595,16.926,16.93c0,4.633-1.874,8.833-4.9,11.893c-0.023,0.021-0.055,0.028-0.078,0.052
		s-0.03,0.055-0.053,0.079c-3.059,3.026-7.261,4.9-11.895,4.9C11.594,37.854,4,30.262,4,20.93z"/>
</g>
</svg>
