<?xml version="1.0" encoding="utf-8"?>
<!-- Generator: Adobe Illustrator 15.0.0, SVG Export Plug-In . SVG Version: 6.00 Build 0)  -->
<!DOCTYPE svg PUBLIC "-//W3C//DTD SVG 1.1//EN" "http://www.w3.org/Graphics/SVG/1.1/DTD/svg11.dtd">
<svg version="1.1" id="Layer_1" xmlns="http://www.w3.org/2000/svg" xmlns:xlink="http://www.w3.org/1999/xlink" x="0px" y="0px"
	 width="28.101px" height="28px" viewBox="0 0 28.101 28" enable-background="new 0 0 28.101 28" xml:space="preserve">
<g>
	<g>
		<path fill="#424142" d="M6.101,28H0.1V8h6.001V28z M28.101,28h-6V17.318c0-2.786-0.992-4.172-2.957-4.172
			c-1.56,0-2.547,0.775-3.043,2.331V28h-6c0,0,0.08-18,0-20h4.736l0.365,4h0.125c1.23-2,3.195-3.354,5.891-3.354
			c2.051,0,3.709,0.568,4.975,2.001c1.275,1.434,1.908,3.357,1.908,6.061V28z"/>
		<ellipse fill="#424142" cx="3.101" cy="3" rx="3.1" ry="3"/>
	</g>
</g>
</svg>
