<?xml version="1.0" encoding="utf-8"?>
<!-- Generator: Adobe Illustrator 15.0.0, SVG Export Plug-In . SVG Version: 6.00 Build 0)  -->
<!DOCTYPE svg PUBLIC "-//W3C//DTD SVG 1.1//EN" "http://www.w3.org/Graphics/SVG/1.1/DTD/svg11.dtd">
<svg version="1.1" id="Layer_1" xmlns="http://www.w3.org/2000/svg" xmlns:xlink="http://www.w3.org/1999/xlink" x="0px" y="0px"
	 width="860.47px" height="250.344px" viewBox="0 0 860.47 250.344" enable-background="new 0 0 860.47 250.344"
	 xml:space="preserve">
<g>
	<g>
		<rect x="173.6" y="0.061" fill="#F1729C" width="73.848" height="24.169"/>
		<rect x="281.105" fill="#EF3E33" width="31.764" height="24.154"/>
		<rect x="370.217" fill="#F47422" width="58.92" height="24.154"/>
		<rect x="556.732" fill="#1BAAE2" width="31.771" height="24.154"/>
		<rect x="466.715" fill="#009A66" width="38.881" height="24.154"/>
		<rect x="116.244" fill="#009A66" width="15.625" height="24.154"/>
	</g>
	<rect x="335.932" width="16.102" height="24.154"/>
	<rect x="602.932" width="16.102" height="24.154"/>
	<rect x="626.592" fill="#00539F" width="16.088" height="24.154"/>
	<rect x="316.445" fill="#19A3A0" width="16.104" height="24.154"/>
	<g>
		<path fill="none" stroke="#E4E4E3" stroke-width="4.5689" stroke-miterlimit="3.8637" d="M536.395,24.26"/>
		<path fill="none" stroke="#E4E4E3" stroke-width="1.8268" stroke-miterlimit="3.8637" d="M446.586,24.26"/>
		<path fill="none" stroke="#E3EDEC" stroke-width="2.2844" stroke-miterlimit="3.8637" d="M324.498,24.05"/>
	</g>
	<g>
		<path fill="#6E6F71" d="M362.809,138.807c-2.656,0.029-4.908,0.957-6.705,2.768c-1.779,1.766-2.707,4.041-2.783,6.779
			c0.076,2.709,1.004,4.984,2.783,6.766c1.773,1.781,4.027,2.723,6.697,2.783h0.008h0.008c2.672-0.061,4.916-1.002,6.697-2.783
			c1.766-1.781,2.693-4.057,2.768-6.779c-0.074-2.725-1.002-5-2.768-6.766C367.717,139.764,365.457,138.836,362.809,138.807z"/>
		<rect x="355.926" y="171.984" fill="#6E6F71" width="13.752" height="76.609"/>
		<path fill="#6E6F71" d="M452.229,183.508c-3.188-4.279-7.273-7.557-12.168-9.771c-5.117-2.32-10.596-3.488-16.305-3.488
			c-7.123,0.061-13.768,1.826-19.754,5.254c-5.92,3.457-10.709,8.17-14.24,14.008c-3.547,5.852-5.387,12.57-5.477,19.994
			c0.09,8.035,2.004,15.205,5.686,21.311c3.689,6.076,8.598,10.895,14.592,14.291c6.031,3.428,12.684,5.193,19.785,5.238l0,0
			c6.539-0.059,12.256-1.332,16.971-3.785c4.504-2.305,8.17-5.389,10.91-9.16v11.195h13.768V137.189h-13.768V183.508z
			 M448.561,196.633c2.381,4.041,3.607,8.666,3.668,13.754c-0.045,4.998-1.258,9.578-3.607,13.617
			c-2.35,4.027-5.566,7.273-9.562,9.668c-4.012,2.395-8.523,3.637-13.41,3.697c-4.533-0.016-8.889-1.152-12.945-3.352
			c-4.033-2.23-7.355-5.434-9.869-9.533c-2.537-4.102-3.854-9.1-3.928-14.846c0.014-4.295,1.055-8.352,3.188-12.393
			c2.109-3.996,5.223-7.348,9.234-9.938c3.994-2.617,8.955-3.98,14.756-4.07c4.668,0.061,9.039,1.303,12.975,3.682
			C442.949,189.285,446.137,192.562,448.561,196.633z"/>
		<path fill="#6E6F71" d="M556.238,215.311c-0.18-13.59-3.906-24.574-11.074-32.625c-7.184-8.082-16.836-12.258-28.689-12.438
			c-7.902,0.076-14.875,1.932-20.713,5.523c-5.852,3.592-10.43,8.439-13.617,14.426s-4.834,12.721-4.879,20.039
			c0.014,6.914,1.602,13.455,4.729,19.471c3.158,6.045,7.842,11.029,13.947,14.785c6.152,3.787,13.77,5.748,22.674,5.852h0.119
			c6.555,0,12.662-1.346,18.154-4.01c5.566-2.664,10.939-6.9,15.938-12.572l0.27-0.299l-10.266-8.262l-0.301-0.223l-0.238,0.283
			c-6.645,7.887-14.652,11.957-23.781,12.107c-7.242-0.135-13.289-2.244-17.973-6.271c-4.564-3.936-7.438-9.113-8.561-15.398h64.277
			L556.238,215.311z M503.32,186.516c3.412-2.094,7.781-3.188,13.006-3.277c6.689,0.121,12.316,2.156,16.715,6.062
			c4.266,3.814,6.84,8.814,7.662,14.859h-48.756c0.447-3.293,1.586-6.539,3.367-9.637
			C497.199,191.291,499.893,188.596,503.32,186.516z"/>
		<rect x="605.25" y="171.984" fill="#6E6F71" width="13.738" height="76.609"/>
		<path fill="#6E6F71" d="M612.135,138.807c-2.664,0.029-4.908,0.957-6.705,2.768c-1.781,1.781-2.723,4.057-2.783,6.779
			c0.061,2.695,1.002,4.969,2.783,6.766c1.766,1.781,4.025,2.723,6.705,2.783l0,0h0.016c2.648-0.061,4.908-1.002,6.703-2.783
			c1.781-1.826,2.693-4.102,2.738-6.779c-0.045-2.68-0.957-4.955-2.738-6.766C617.043,139.764,614.783,138.836,612.135,138.807z"/>
		<path fill="#6E6F71" d="M793.082,215.311c-0.193-13.635-3.92-24.604-11.074-32.625c-7.184-8.082-16.836-12.258-28.703-12.438
			c-7.902,0.076-14.861,1.932-20.697,5.523c-5.838,3.576-10.402,8.426-13.59,14.426c-3.201,5.986-4.848,12.736-4.893,20.039
			c0.029,6.914,1.631,13.469,4.758,19.471c3.113,6.045,7.797,11.014,13.904,14.785c6.15,3.787,13.783,5.748,22.701,5.852h0.105
			c6.525,0,12.631-1.346,18.154-4.01c5.566-2.68,10.924-6.9,15.938-12.572l0.27-0.299l-10.281-8.262l-0.285-0.223l-0.238,0.283
			c-6.645,7.887-14.652,11.957-23.811,12.107c-7.244-0.135-13.275-2.244-17.959-6.271c-4.549-3.936-7.424-9.113-8.576-15.398h64.293
			L793.082,215.311z M740.195,186.516c3.381-2.094,7.752-3.188,12.975-3.277c6.689,0.121,12.316,2.156,16.686,6.062
			c4.295,3.801,6.885,8.799,7.707,14.859h-48.771c0.463-3.322,1.602-6.57,3.383-9.637
			C734.029,191.291,736.738,188.596,740.195,186.516z"/>
		<path fill="#6E6F71" d="M208.051,200.6h40.025c-1.609,7.422-4.482,13.857-8.561,19.154c-4.16,5.357-9.211,9.504-15.025,12.332
			c-5.852,2.828-12.129,4.266-18.654,4.281c-7.482-0.061-14.547-1.947-21.012-5.627c-6.451-3.637-11.771-8.785-15.805-15.311
			c-4.018-6.465-6.119-14.082-6.248-22.643c0.113-8.426,2.164-16.014,6.1-22.523c3.965-6.51,9.248-11.688,15.684-15.4
			c6.48-3.695,13.633-5.611,21.281-5.672c4.842,0,9.93,1.033,15.115,3.055c5.141,2.004,10.012,5.102,14.502,9.232l0.291,0.27
			l9.047-10.805l0.254-0.285l-0.299-0.254c-6.525-5.553-13.088-9.504-19.508-11.764c-6.277-2.199-12.607-3.322-18.805-3.322
			l-0.605,0.016c-9.324,0.074-17.711,1.781-24.947,5.104c-7.221,3.293-13.402,7.768-18.371,13.289
			c-4.982,5.568-8.799,11.777-11.336,18.467c-2.566,6.734-3.869,13.664-3.875,20.594c0.006,6.914,1.309,13.842,3.875,20.592
			c2.545,6.721,6.354,12.93,11.336,18.469c4.984,5.537,11.164,9.996,18.371,13.289c7.25,3.322,15.646,5.027,24.947,5.104h0.008
			c10.416-0.045,20.129-2.561,28.854-7.484c8.746-4.938,15.863-12.195,21.16-21.549c5.314-9.324,8.082-20.803,8.217-34.092v-0.389
			h-56.016V200.6z"/>
		<path fill="#6E6F71" d="M324.414,215.025c-0.066,7.139-1.787,12.691-5.102,16.521c-3.354,3.816-8.061,5.777-13.986,5.822
			c-6.166-0.164-10.625-2.26-13.244-6.211c-2.635-3.98-3.922-8.92-3.846-14.682v-44.492h-13.77v49.447
			c0.105,6.838,1.564,12.48,4.355,16.746c2.799,4.234,6.465,7.363,10.902,9.309c4.303,1.9,8.98,2.857,13.896,2.857h0.238
			c4.318-0.014,8.41-0.943,12.168-2.768c3.547-1.752,6.359-4.221,8.387-7.379v8.396h13.746v-76.609h-13.746V215.025z"/>
		<path fill="#6E6F71" d="M584.523,233.209c-1.586-1.662-2.439-4.596-2.529-8.711v-87.309H568.24v88.326
			c0.09,7.947,1.961,13.873,5.568,17.586c3.592,3.65,8.469,5.492,14.516,5.492h5.941v-12.977h-4.49
			C587.785,235.617,586.08,234.824,584.523,233.209z"/>
		<path fill="#6E6F71" d="M685.436,173.062c-4.385-1.916-9.113-2.873-14.053-2.873h-0.105c-4.279,0.014-8.35,0.957-12.137,2.799
			c-3.531,1.721-6.359,4.189-8.381,7.361v-8.395h-13.752v76.607h13.752v-43.041c0.045-7.123,1.752-12.676,5.09-16.477
			c3.322-3.846,8.035-5.807,13.992-5.836c6.256,0.164,10.58,2.186,13.229,6.195c2.635,3.996,3.938,8.92,3.861,14.666v44.492h13.738
			v-49.445c-0.09-6.854-1.541-12.48-4.34-16.73C693.547,178.15,689.881,175.023,685.436,173.062z"/>
		<path fill="#6E6F71" d="M856.979,213.918c-2.41-3.338-6.615-5.941-12.512-7.707l-17.607-5.088
			c-2.889-0.838-4.982-2.035-6.256-3.533c-1.256-1.496-1.869-3.217-1.84-5.268c0.059-2.979,1.227-5.402,3.576-7.422
			c2.365-2.006,5.508-3.039,9.668-3.129c8.291,0,12.729,4.086,13.566,12.467l0.029,0.344h12.842v-0.389
			c0.029-3.906-0.809-7.723-2.484-11.314c-1.662-3.621-4.461-6.645-8.291-8.994c-3.832-2.334-9.018-3.561-15.422-3.637
			c-8.83,0.166-15.641,2.484-20.234,6.914c-4.625,4.4-6.975,9.938-7.004,16.463c-0.059,4.625,1.137,8.74,3.562,12.211
			c2.408,3.488,6.449,6.062,12.018,7.664l13.139,3.635c4.908,1.332,8.359,2.844,10.273,4.49c1.902,1.646,2.785,3.576,2.695,5.957
			c0.119,2.305-0.869,4.609-2.949,6.869c-2.02,2.244-5.889,3.471-11.5,3.65c-3.996-0.014-7.424-1.047-10.223-3.082
			c-2.799-2.006-4.475-5.029-4.982-8.979l-0.045-0.33h-12.855l0.014,0.404c0.256,7.363,2.889,13.289,7.828,17.613
			c4.924,4.297,11.928,6.525,20.832,6.615l0,0c4.773,0,9.256-0.912,13.355-2.709c4.236-1.824,7.588-4.459,10.236-8.035
			c2.619-3.592,3.982-8.037,4.057-13.201C860.555,221.461,859.387,217.256,856.979,213.918z"/>
	</g>
	<g>
		<rect x="706.312" y="7.692" fill="#545456" width="13.799" height="13.005"/>
		<path fill="#545456" d="M269.088,50.913c-5.83,5.882-9.002,13.485-8.943,21.401l-0.021,47.561h13.926V75.816
			c0.066-6.898,1.729-12.227,4.938-15.85c3.143-3.577,7.498-5.417,12.945-5.462c2.066,0.029,4.057,0.27,5.912,0.719l0.471,0.119
			V40.452h-3.396C285.094,40.452,275.68,44.269,269.088,50.913z"/>
		<path fill="#545456" d="M134.002,42.652c-4.34-1.916-9.047-2.874-13.963-2.874h-0.24c-4.355,0.03-8.455,0.973-12.197,2.799
			c-3.547,1.721-6.375,4.205-8.418,7.377V6.601H85.385v111.853h13.799V75.248c0.053-7.139,1.773-12.721,5.127-16.582
			c3.322-3.817,8.051-5.792,14.037-5.853c6.211,0.18,10.686,2.275,13.289,6.226c2.635,4.012,3.936,8.965,3.875,14.756v44.658h13.807
			V68.812c-0.09-6.869-1.564-12.513-4.363-16.792C142.158,47.755,138.477,44.597,134.002,42.652z"/>
		<path fill="#545456" d="M244.492,85.051c-0.195-13.68-3.943-24.725-11.135-32.806c-7.199-8.082-16.896-12.271-28.809-12.467
			c-7.977,0.105-14.973,1.976-20.803,5.567c-5.836,3.578-10.43,8.457-13.656,14.473c-3.209,6.016-4.855,12.781-4.885,20.113
			c0,6.898,1.6,13.484,4.729,19.545c3.188,6.092,7.895,11.074,14.008,14.846c6.105,3.771,13.768,5.762,22.777,5.896h0.105
			c6.555,0,12.689-1.361,18.227-4.025c5.582-2.693,10.963-6.943,15.998-12.631l0.27-0.314l-10.609-8.516l-0.24,0.285
			c-6.645,7.916-14.682,12.002-23.885,12.152c-7.258-0.121-13.326-2.23-18.018-6.271c-4.588-3.965-7.484-9.174-8.621-15.475h64.547
			V85.051z M191.342,56.106c3.494-2.111,7.879-3.219,13.057-3.293c6.75,0.135,12.393,2.186,16.77,6.091
			c4.295,3.816,6.891,8.846,7.715,14.936h-48.961c0.457-3.322,1.602-6.584,3.406-9.682
			C185.168,60.955,187.861,58.232,191.342,56.106z"/>
		<path fill="#545456" d="M449.668,45.091c-5.955-3.472-12.615-5.252-19.82-5.313c-5.756,0.016-11.262,1.197-16.357,3.518
			c-4.955,2.229-9.197,4.712-13.775,9.488c-6.945,7.259-10.551,13.739-12.273,30.919c-0.059,0.539-0.014,59.771,0,66.521v0.389
			h13.807V107.17c2.762,3.814,6.443,6.914,10.963,9.219c4.713,2.469,10.453,3.756,17.053,3.83
			c7.102-0.061,13.791-1.826,19.852-5.268c6.031-3.428,10.955-8.262,14.65-14.367c3.697-6.121,5.627-13.318,5.717-21.385
			c-0.074-7.395-1.93-14.143-5.506-20.07C460.414,53.218,455.596,48.503,449.668,45.091z M428.627,53.276
			c5.822,0.09,10.805,1.467,14.816,4.087c4.055,2.619,7.168,5.973,9.279,9.982c2.094,4.025,3.172,8.201,3.201,12.422
			c-0.09,5.775-1.422,10.789-3.951,14.936c-2.559,4.131-5.881,7.332-9.906,9.547c-4.131,2.23-8.396,3.338-13.006,3.367
			c-4.93-0.059-9.457-1.301-13.453-3.695c-4.012-2.424-7.244-5.703-9.607-9.742c-2.365-4.012-3.592-8.621-3.652-13.664
			c0.074-5.088,1.316-9.742,3.697-13.783c2.424-4.102,5.641-7.393,9.562-9.758C419.559,54.563,423.928,53.321,428.627,53.276z"/>
		<path fill="#545456" d="M561.58,85.051c-0.178-13.693-3.92-24.725-11.104-32.806c-7.184-8.082-16.881-12.271-28.809-12.467
			c-7.977,0.105-14.98,1.976-20.803,5.567c-5.852,3.591-10.445,8.47-13.648,14.473c-3.201,6-4.863,12.766-4.908,20.113
			c0.016,6.959,1.617,13.545,4.773,19.545c3.129,6.061,7.842,11.061,13.963,14.846c6.121,3.771,13.783,5.762,22.793,5.896h0.105
			c6.555,0,12.689-1.361,18.227-4.025c5.568-2.693,10.941-6.943,15.998-12.631l0.27-0.299l-10.596-8.531l-0.238,0.285
			c-6.66,7.916-14.711,12.002-23.9,12.152c-7.258-0.121-13.318-2.23-18.018-6.271c-4.596-3.98-7.484-9.189-8.621-15.475h64.531
			L561.58,85.051z M508.469,56.106c3.486-2.111,7.871-3.219,13.049-3.293c6.75,0.135,12.393,2.186,16.762,6.091
			c4.326,3.816,6.914,8.846,7.707,14.936h-48.951c0.463-3.307,1.602-6.568,3.396-9.682
			C502.303,60.941,505.012,58.232,508.469,56.106z"/>
		<path fill="#545456" d="M627.025,84.736c-0.045,7.168-1.766,12.734-5.119,16.582c-3.307,3.83-8.035,5.791-14.037,5.852
			c-6.195-0.18-10.67-2.26-13.289-6.211c-2.635-4.012-3.936-8.98-3.861-14.756V41.529h-13.812V91.17
			c0.104,7.02,1.525,12.527,4.354,16.793c2.799,4.25,6.48,7.408,10.941,9.383c4.414,1.9,9.143,2.873,14.098,2.873h0.104
			c4.34-0.029,8.455-0.973,12.213-2.812c3.531-1.707,6.344-4.176,8.41-7.379v8.426h13.812V41.529h-13.812V84.736z"/>
		<path fill="#545456" d="M680.586,104.266c-0.838-0.777-1.227-2.125-1.182-4.01V53.847h12.047V41.529h-12.047V23.122h-13.783
			v18.407h-10.445v12.317h10.445v47.86c-0.119,5.836,1.152,10.162,3.801,12.84c2.574,2.59,7.125,3.906,13.514,3.906h0.436
			c0.553,0,1.092,0,1.615,0c2.424,0,4.564-0.045,6.375-0.15l0.359-0.014v-12.871h-6.449
			C682.951,105.418,681.381,105.029,680.586,104.266z"/>
		<rect x="706.312" y="41.529" fill="#545456" width="13.799" height="76.924"/>
		<path fill="#545456" d="M794.07,99.238l-0.299,0.283c-2.305,2.186-4.879,3.996-7.662,5.402c-2.844,1.422-5.838,2.186-8.875,2.246
			c-7.543-0.166-13.77-2.695-18.498-7.514c-4.729-4.85-7.197-11.254-7.348-19.006c0.074-6.137,1.271-11.33,3.562-15.43
			c2.273-4.102,5.297-7.229,8.963-9.294c3.727-2.051,7.768-3.098,12.078-3.113c6.33,0,12.121,2.529,17.195,7.513l0.283,0.285
			l9.34-10.972l-0.27-0.254c-2.738-2.453-6.451-4.667-11.061-6.583c-4.609-1.901-9.891-2.918-15.713-3.024
			c-7.363,0.105-14.037,1.991-19.859,5.612c-5.836,3.607-10.521,8.515-13.934,14.577c-3.412,6.047-5.178,12.855-5.252,20.25
			c0.045,7.152,1.691,13.812,4.879,19.814c3.203,5.986,7.752,10.879,13.529,14.531c5.791,3.637,12.689,5.551,20.502,5.656l0,0
			c4.924,0,9.713-0.867,14.277-2.588c4.504-1.723,8.574-4.387,12.076-7.918l0.24-0.238l-7.887-9.924L794.07,99.238z"/>
		<path fill="#545456" d="M367.32,51.542c-3.225-3.758-7.49-6.585-12.689-8.38c-5.141-1.737-10.768-2.634-16.725-2.634h-0.15
			c-3.246-0.09-7.227,0.313-11.703,1.107c-4.385,0.763-9.338,2.275-15.129,4.653l-0.389,0.15l5.73,10.985l0.172,0.328l0.338-0.164
			c6.689-3.263,13.514-4.938,20.27-4.97h0.502c3.143,0,6.271,0.375,9.557,1.139c3.299,0.822,6.082,2.305,8.283,4.415
			c2.17,2.096,3.322,5.164,3.42,9.1v6.883c-3.285-2.783-6.832-4.818-10.559-6.061c-3.877-1.271-7.797-1.93-11.658-1.93h-0.262
			c-6.908,0.074-12.834,1.316-17.631,3.666c-4.811,2.379-8.521,5.566-11.021,9.459c-2.5,3.891-3.771,8.23-3.785,12.914
			c0.059,5.598,1.541,10.477,4.398,14.518c2.867,4.025,6.795,7.168,11.674,9.338l0.613,0.27c4.459,1.975,6.705,2.979,12.676,3.383
			c0.016,0,0.016,0.014,0.029,0.014c2.373,0.18,4.654,0.285,6.766,0.285c0.029,0,0.045,0,0.074,0c0.479,0,0.943,0.059,1.422,0.059
			c4.1,0,6.988-0.357,8.77-1.092c0.029-0.016,0.061-0.016,0.09-0.029c5.941-1.482,11.24-4.445,14.973-8.262
			c1.205-1.211,2.246-2.514,3.092-3.891c7.271-11.822,4.01-39.389,3.859-40.527C372.236,60.297,370.561,55.343,367.32,51.542z
			 M318.256,92.742c-0.096-3.727,1.363-6.959,4.461-9.893c3.082-2.889,8.471-4.43,16.027-4.609
			c7.564,0.18,12.961,1.721,16.029,4.596c3.098,2.947,4.557,6.18,4.459,9.936c0.098,3.668-1.406,7.004-4.459,9.893
			c-3.1,2.904-8.486,4.445-16.014,4.596c-7.543-0.15-12.945-1.691-16.043-4.596C319.664,99.775,318.16,96.439,318.256,92.742z"/>
		<polygon fill="#545456" points="0,20.144 31.951,20.144 31.951,118.527 45.93,118.527 45.93,20.144 77.836,20.144 77.836,6.57 
			0,6.57 		"/>
	</g>
	<rect x="255.984" width="12.916" height="24.154"/>
	<rect x="440.092" width="12.914" height="24.154"/>
	<rect x="520.291" width="32.266" height="24.154"/>
	<rect x="131.869" y="0.061" width="32.258" height="24.154"/>
</g>
</svg>
