<svg id="Layer_1" data-name="Layer 1" xmlns="http://www.w3.org/2000/svg" xmlns:xlink="http://www.w3.org/1999/xlink" viewBox="0 0 294.8031 87.874"><defs><style>.cls-1{fill:none;}.cls-2{fill:#ef3e33;}.cls-3{fill:#f1729c;}.cls-4{fill:#f37321;}.cls-5{fill:#1aa3a0;}.cls-6{fill:#957db0;}.cls-7{fill:#00ace8;}.cls-8{fill:#009e4d;}.cls-9{fill:#545456;}.cls-10{fill:#00539f;}.cls-11{clip-path:url(#clip-path);}.cls-12{fill:url(#radial-gradient);}.cls-13{fill:#231f20;}.cls-14{fill:#fff;}.cls-15{fill:#009a66;}</style><clipPath id="clip-path"><path class="cls-1" d="M.9251,43.9393A43.129,43.129,0,1,0,44.0521.8084,43.1292,43.1292,0,0,0,.9251,43.9393"/></clipPath><radialGradient id="radial-gradient" cx="-405.791" cy="500.5391" r="3.7965" gradientTransform="matrix(11.3603, 0, 0, -11.3603, 4653.9636, 5730.2142)" gradientUnits="userSpaceOnUse"><stop offset="0" stop-color="#e9e7e7"/><stop offset="0.8202" stop-color="#e9e7e7"/><stop offset="1" stop-color="#545456"/></radialGradient></defs><title>eTGComplete-logo</title><path class="cls-2" d="M142.1935,53.5569a8.0638,8.0638,0,0,1-1.9324,1.3515,5.106,5.106,0,0,1-2.1867.55,6.4361,6.4361,0,0,1-4.6354-1.864,6.633,6.633,0,0,1-1.8375-4.7114,7.9832,7.9832,0,0,1,.8884-3.8609,5.8083,5.8083,0,0,1,2.2361-2.293,6.2029,6.2029,0,0,1,3.0257-.7707,5.9542,5.9542,0,0,1,4.2861,1.86l.2734.2657L145.09,40.85l-.2619-.2316A10.4244,10.4244,0,0,0,141.867,38.88a11.4675,11.4675,0,0,0-4.1836-.801,10.2415,10.2415,0,0,0-5.3074,1.4844,10.6315,10.6315,0,0,0-3.7129,3.8533,10.9365,10.9365,0,0,0-1.397,5.353,11.117,11.117,0,0,0,1.2983,5.2276,10.1973,10.1973,0,0,0,3.618,3.8457,10.407,10.407,0,0,0,5.4706,1.4958h.0152a10.7557,10.7557,0,0,0,3.785-.6795,9.04,9.04,0,0,0,3.2383-2.1032l.224-.2278-2.4411-3.0371Z"/><path class="cls-3" d="M165.9137,43.4156a10.704,10.704,0,0,0-3.8723-3.8533,11.6289,11.6289,0,0,0-11.37,0,10.6754,10.6754,0,0,0-3.8723,3.8533,10.55,10.55,0,0,0-1.4313,5.315,10.7876,10.7876,0,0,0,1.3781,5.33,10.2462,10.2462,0,0,0,3.8268,3.823,11.7062,11.7062,0,0,0,5.7781,1.4578h.0076a11.71,11.71,0,0,0,5.7819-1.4578,10.2181,10.2181,0,0,0,3.8268-3.823,10.7819,10.7819,0,0,0,1.3743-5.3377,10.4743,10.4743,0,0,0-1.4275-5.3074m-2.9,5.3074a6.6955,6.6955,0,0,1-.93,3.337,7.2,7.2,0,0,1-2.4221,2.4525,6.256,6.256,0,0,1-6.6133,0A7.2221,7.2221,0,0,1,150.63,52.06a6.6855,6.6855,0,0,1-.93-3.3257,6.9366,6.9366,0,0,1,.93-3.4774,6.7985,6.7985,0,0,1,2.4107-2.4032,6.6025,6.6025,0,0,1,6.6285,0,6.7592,6.7592,0,0,1,2.4107,2.3994,6.9156,6.9156,0,0,1,.9339,3.47"/><path class="cls-4" d="M197.2761,40.0231a8.0375,8.0375,0,0,0-5.5883-2.0045h-.1063a9.1173,9.1173,0,0,0-3.7736.7973,5.8177,5.8177,0,0,0-2.5474,2.2588,6.425,6.425,0,0,0-2.6043-2.4031,7.3275,7.3275,0,0,0-2.9612-.653h-.2923a8.0723,8.0723,0,0,0-3.2155.68,4.7953,4.7953,0,0,0-1.8565,1.3743V38.47H170.223v20.36h4.1077V46.6061a4.7511,4.7511,0,0,1,1.2984-3.5041,4.6251,4.6251,0,0,1,3.3142-1.2,3.7378,3.7378,0,0,1,2.7372,1.0781,4.83,4.83,0,0,1,1.1617,3.4661V58.8305h4.1115V46.6023a4.7146,4.7146,0,0,1,1.2908-3.5,4.6472,4.6472,0,0,1,3.3256-1.2,3.7378,3.7378,0,0,1,2.7372,1.0781,4.83,4.83,0,0,1,1.1655,3.4661V58.8305h4.1115V46.0632a8.0058,8.0058,0,0,0-2.3082-6.04"/><path class="cls-5" d="M234.1418,55.0079a1.6134,1.6134,0,0,1-1.1921-.5467,3.0968,3.0968,0,0,1-.5809-2.0728V29.5189h-4.1114V52.6541a6.6931,6.6931,0,0,0,1.53,4.73,5.3589,5.3589,0,0,0,3.9672,1.5h1.8147v-3.88Zm-.3873,3.5154h0v0Z"/><path class="cls-6" d="M253.8435,52.418a7.78,7.78,0,0,1-6.0173,3.0409,6.9275,6.9275,0,0,1-4.5214-1.56,6.3419,6.3419,0,0,1-2.1-3.5307h16.7459l-.0038-.3606a12.7728,12.7728,0,0,0-2.9612-8.6254,10.11,10.11,0,0,0-7.699-3.3029,10.7974,10.7974,0,0,0-5.539,1.4692,10.016,10.016,0,0,0-3.6445,3.8344,11.1778,11.1778,0,0,0-1.306,5.3111,11.03,11.03,0,0,0,1.2642,5.1593,10.0173,10.0173,0,0,0,3.7357,3.9293,11.77,11.77,0,0,0,6.0628,1.5565h.0266a11.1944,11.1944,0,0,0,4.8556-1.0592,13.8351,13.8351,0,0,0,4.2406-3.318l.2543-.281-3.17-2.5284Zm-9.8516-9.6467a6.4289,6.4289,0,0,1,3.2649-.8124,6.3255,6.3255,0,0,1,4.195,1.5072,5.7442,5.7442,0,0,1,1.8754,3.3978H241.19a6.6677,6.6677,0,0,1,.8011-2.1108,5.5626,5.5626,0,0,1,2.0007-1.9818"/><path class="cls-7" d="M267.7285,55.0048c-.6834,0-.93-.14-1.0251-.2277a1.0868,1.0868,0,0,1-.22-.8466V42.2224h3.132V38.5285h-3.132V33.7792h-4.1039v4.7493h-2.7182v3.6939h2.7182V54.2987a4.647,4.647,0,0,0,1.0591,3.5041,5.1036,5.1036,0,0,0,3.7053,1.0858l.11-.0038.5125.0038c.6264,0,1.15-.0152,1.5869-.038l.3341-.0228v-3.823Z"/><path class="cls-8" d="M289.0179,52.418a7.78,7.78,0,0,1-6.0173,3.0409,6.9311,6.9311,0,0,1-4.5253-1.56,6.385,6.385,0,0,1-2.0994-3.5307h16.7459l-.0038-.3606a12.7733,12.7733,0,0,0-2.9612-8.6254,10.1078,10.1078,0,0,0-7.6953-3.3029,10.7563,10.7563,0,0,0-5.5389,1.4692,9.939,9.939,0,0,0-3.6484,3.8344,11.2232,11.2232,0,0,0-1.3059,5.3111,11.0762,11.0762,0,0,0,1.2642,5.1593,10.0446,10.0446,0,0,0,3.7356,3.9293,11.77,11.77,0,0,0,6.0629,1.5565h.0266a11.1819,11.1819,0,0,0,4.8555-1.0592,13.8462,13.8462,0,0,0,4.2444-3.318l.2506-.281-3.1662-2.5284Zm-9.8517-9.6467a6.7533,6.7533,0,0,1,7.46.691,5.77,5.77,0,0,1,1.8755,3.4016H276.3607a6.6086,6.6086,0,0,1,.8048-2.1108,5.5642,5.5642,0,0,1,2.0007-1.9818"/><path class="cls-9" d="M127.3135,23.7222c-.0569-3.9483-1.15-7.141-3.2573-9.4872a11.1021,11.1021,0,0,0-8.4622-3.6332,11.8036,11.8036,0,0,0-6.097,1.6173,10.9646,10.9646,0,0,0-4.0089,4.2178,12.3425,12.3425,0,0,0-1.4389,5.8389,12.1084,12.1084,0,0,0,1.3933,5.6794,11.1,11.1,0,0,0,4.1077,4.3241,13.0056,13.0056,0,0,0,6.67,1.7121h.0379a12.2923,12.2923,0,0,0,5.33-1.1693,15.165,15.165,0,0,0,4.6733-3.6483l.2771-.3075-3.485-2.779-.2468.2886a8.5542,8.5542,0,0,1-6.6247,3.3446,7.6286,7.6286,0,0,1-4.9809-1.716,6.985,6.985,0,0,1-2.3006-3.8837h18.4163Zm-15.3488-7.9611a7.1268,7.1268,0,0,1,3.5914-.8921,6.9781,6.9781,0,0,1,4.6164,1.6552,6.3368,6.3368,0,0,1,2.0652,3.7433H108.882a7.3962,7.3962,0,0,1,.8808-2.3234,6.2215,6.2215,0,0,1,2.2019-2.183"/><polygon class="cls-9" points="126.891 10.279 134.153 10.279 134.153 33.581 139.001 33.581 139.001 10.279 146.268 10.279 146.268 5.978 126.891 5.978 126.891 10.279"/><path class="cls-9" d="M163.0725,17.8116v4.3013h10.4629a10.0723,10.0723,0,0,1-2.0045,3.7546,10.52,10.52,0,0,1-3.804,2.8169,11.8507,11.8507,0,0,1-10.1136-.3037,10.746,10.746,0,0,1-4.009-3.5,9.2225,9.2225,0,0,1-.03-10.2313,10.5785,10.5785,0,0,1,3.9749-3.5079,11.9627,11.9627,0,0,1,5.4212-1.31,11.5481,11.5481,0,0,1,3.85.7061,12.012,12.012,0,0,1,3.6938,2.1146l.4252.3568,3.1472-3.3825-.5087-.3873a17.5386,17.5386,0,0,0-5.3187-2.8928,16.9126,16.9126,0,0,0-5.1214-.8125h-.1746a18.2535,18.2535,0,0,0-6.7917,1.2529,15.23,15.23,0,0,0-5.0265,3.2838,14.3007,14.3007,0,0,0-3.1092,4.5671,12.799,12.799,0,0,0,0,10.2313,14.3268,14.3268,0,0,0,3.1092,4.5632,15.2866,15.2866,0,0,0,5.03,3.2839,18.1328,18.1328,0,0,0,6.7879,1.2528h.0076a17.3225,17.3225,0,0,0,7.8661-1.8374,14.5887,14.5887,0,0,0,5.8009-5.3188,15.9132,15.9132,0,0,0,2.2551-8.409l.0038-.5922Z"/><path class="cls-10" d="M223.37,43.0811a10.6786,10.6786,0,0,0-13.462-4.1836,10.8368,10.8368,0,0,0-3.66,2.5018c-1.8146,1.8868-2.8169,3.66-3.2649,8.1243-.0151.14-.0075,10.8273,0,17.1825v.3569h4.104V56.3343a8.53,8.53,0,0,0,2.4752,1.8831,10.1717,10.1717,0,0,0,4.56,1.006,10.7176,10.7176,0,0,0,9.1948-5.1821,11.0275,11.0275,0,0,0,1.5224-5.6528,10.2968,10.2968,0,0,0-1.4692-5.3074m-9.4151-1.1161a7.0122,7.0122,0,0,1,3.7129,1.0136,6.668,6.668,0,0,1,3.1244,5.5618,7.1037,7.1037,0,0,1-.987,3.709,6.6221,6.6221,0,0,1-2.4791,2.3728,6.831,6.831,0,0,1-3.2611.8352,6.6,6.6,0,0,1-3.3636-.9112,6.7324,6.7324,0,0,1-3.3256-5.8084,6.8576,6.8576,0,0,1,.9263-3.4282,6.9278,6.9278,0,0,1,2.3993-2.4259,6.3441,6.3441,0,0,1,3.2535-.9187"/><g class="cls-11"><rect class="cls-12" x="0.9251" y="0.8084" width="86.2579" height="86.2579"/></g><path class="cls-13" d="M44.0525,87.5917A43.6547,43.6547,0,1,1,87.7073,43.937,43.7013,43.7013,0,0,1,44.0525,87.5917m0-86.2578A42.605,42.605,0,1,0,86.6594,43.937,42.65,42.65,0,0,0,44.0525,1.3339"/><path class="cls-14" d="M44.05,4.3953a39.5471,39.5471,0,1,0,39.547,39.547A39.5916,39.5916,0,0,0,44.05,4.3953"/><path class="cls-3" d="M14.49,20.1465V67.7381a38.1364,38.1364,0,0,0,9.863,8.6558V11.4907a38.2822,38.2822,0,0,0-9.863,8.6558"/><path class="cls-10" d="M82.0225,43.9431a37.7571,37.7571,0,0,0-7.0233-21.9584V65.9014a37.7571,37.7571,0,0,0,7.0233-21.9583"/><path class="cls-2" d="M28.85,9.1552V78.7279a37.2759,37.2759,0,0,0,4.2406,1.5679V7.5873A38.0151,38.0151,0,0,0,28.85,9.1552"/><path class="cls-4" d="M44.05,5.97c-1.1086,0-2.2057.057-3.2915.1519V81.765c1.0858.0911,2.1829.1481,3.2915.1481a37.854,37.854,0,0,0,4.5746-.2847V6.2548A38.6229,38.6229,0,0,0,44.05,5.97"/><path class="cls-7" d="M65.668,12.7515V75.1339a38.3162,38.3162,0,0,0,4.2406-3.4206V16.1721a38.3162,38.3162,0,0,0-4.2406-3.4206"/><path class="cls-15" d="M53.6441,7.2016v73.483a37.6147,37.6147,0,0,0,5.19-1.7653V8.9669a37.6014,37.6014,0,0,0-5.19-1.7653"/><path class="cls-15" d="M6.08,43.9431A37.7784,37.7784,0,0,0,8.9154,58.3238V29.5623A37.7786,37.7786,0,0,0,6.08,43.9431"/><path class="cls-13" d="M36.06,6.8227V81.0612c.79.1708,1.5793.3189,2.3841.4366V6.3861c-.8048.1215-1.5945.27-2.3841.4366"/><path class="cls-13" d="M8.6633,30.2V57.6856a37.8051,37.8051,0,0,0,4.7683,8.6786V21.5212A37.7276,37.7276,0,0,0,8.6633,30.2"/><path class="cls-13" d="M60.5668,9.7565V78.13a38.3209,38.3209,0,0,0,4.7683-2.7562V12.5127a38.3335,38.3335,0,0,0-4.7683-2.7562"/><path class="cls-13" d="M50.0034,6.44V81.4458c.6416-.1025,1.2756-.22,1.9058-.3531V6.7935c-.63-.1329-1.2642-.2506-1.9058-.3531"/><path class="cls-13" d="M25.4069,10.881V77.0028q.94.5354,1.9058,1.0137V9.8674c-.6454.3189-1.2794.6606-1.9058,1.0136"/><path class="cls-13" d="M71.721,17.9807V69.9078q1.2585-1.344,2.3841-2.798V20.7786q-1.1274-1.4579-2.3841-2.7979"/><path class="cls-5" d="M33.4572,7.4852V80.4025q1.1787.3417,2.38.6074V6.8739q-1.2015.2677-2.38.6113"/><path class="cls-13" d="M104.3142,70.0766h1.3994V75.068h.0309a3.7319,3.7319,0,0,1,3.08-1.4626,4.1853,4.1853,0,0,1,4.2138,4.152,4.2638,4.2638,0,0,1-4.2769,4.3233,3.5491,3.5491,0,0,1-3.0165-1.43h-.0309V81.894h-1.3994Zm4.26,4.8356a2.931,2.931,0,1,0,2.97,2.8606A2.8931,2.8931,0,0,0,108.5743,74.9122Z"/><path class="cls-13" d="M117.1464,81.769l-3.3744-7.9769h1.5862l2.5967,6.2519,2.6277-6.2519h1.4921l-4.976,11.5226h-1.4612Z"/><path class="cls-13" d="M129.6207,71.476h-2.9533V70.0766h7.4015V71.476h-2.9547V81.894h-1.4935Z"/><path class="cls-13" d="M140.711,77.1819c0-1.2128-.4969-2.27-1.8809-2.27-1.3068,0-2.1.8857-2.1,2.4255V81.894h-1.3994V70.0766H136.73v4.6643h.0323a2.5472,2.5472,0,0,1,2.2234-1.1355,2.8749,2.8749,0,0,1,3.1245,3.0487v5.24H140.711Z"/><path class="cls-13" d="M151.8167,80.3233a4.6622,4.6622,0,0,1-3.6537,1.7574,4.1752,4.1752,0,0,1-4.4159-4.2447,4.0893,4.0893,0,0,1,4.1829-4.2306c2.5027,0,4.2447,1.9132,4.2447,4.7738h-6.9355a2.8129,2.8129,0,0,0,2.9084,2.3947,3.3775,3.3775,0,0,0,2.5967-1.3054ZM150.5885,77.23a2.7022,2.7022,0,0,0-5.3493,0Z"/><path class="cls-13" d="M153.8745,73.7921h1.3994v1.151h.0309a2.3136,2.3136,0,0,1,2.55-1.3377v1.478a2.8818,2.8818,0,0,0-.6373-.0786c-1.1664,0-1.9441.8085-1.9441,2.2866V81.894h-1.3994Z"/><path class="cls-13" d="M164.5591,76.4674c0-1.3376-1.3377-1.6324-2.4255-1.6324a4.9694,4.9694,0,0,0-2.24.5586l-.6064-1.1664a7.4009,7.4009,0,0,1,2.9238-.6218c1.9441,0,3.7478.8239,3.7478,2.7526v5.536h-1.3068v-.87a3.2948,3.2948,0,0,1-2.5814,1.057c-1.9749,0-3.5287-1.1047-3.5287-2.9084,0-1.4767,1.259-2.7835,3.5133-2.7835a3.6885,3.6885,0,0,1,2.5041.918Zm-2.24,1.151c-1.71,0-2.2852.824-2.2852,1.617s.5755,1.6171,2.2852,1.6171,2.2865-.824,2.2865-1.6171S164.03,77.6184,162.3189,77.6184Z"/><path class="cls-13" d="M167.9981,73.7921h1.3994V75.068h.0309a3.7319,3.7319,0,0,1,3.08-1.4626,4.1853,4.1853,0,0,1,4.2138,4.152,4.2638,4.2638,0,0,1-4.2769,4.3233,3.5491,3.5491,0,0,1-3.0165-1.43h-.0309v4.6644h-1.3994Zm4.26,1.12a2.931,2.931,0,1,0,2.97,2.8606A2.8931,2.8931,0,0,0,172.2582,74.9122Z"/><path class="cls-13" d="M186.101,80.3233a4.6622,4.6622,0,0,1-3.6537,1.7574,4.1752,4.1752,0,0,1-4.4159-4.2447,4.0893,4.0893,0,0,1,4.1829-4.2306c2.5027,0,4.2447,1.9132,4.2447,4.7738h-6.9355a2.8129,2.8129,0,0,0,2.9084,2.3947,3.3779,3.3779,0,0,0,2.5968-1.3054ZM184.8728,77.23a2.7022,2.7022,0,0,0-5.3493,0Z"/><path class="cls-13" d="M193.445,80.9451h-.0309a2.5472,2.5472,0,0,1-2.2234,1.1356,2.8749,2.8749,0,0,1-3.1259-3.0474V73.7921h1.3994v4.712c0,1.2128.4983,2.27,1.8823,2.27,1.3054,0,2.0985-.8858,2.0985-2.4256V73.7921h1.3994V81.894H193.445Z"/><path class="cls-13" d="M197.1955,71.8326h1.3995v1.96h1.2914V75.02H198.595v4.9759c0,.4366.14.591.685.591h.6372v1.2913c-.2021.0155-.5291.0155-.8562.0155-1.43,0-1.8655-.4969-1.8655-1.742V75.02h-1.12V73.7921h1.12Z"/><path class="cls-13" d="M202.11,70.2464a.98.98,0,1,1-.98.98A.9762.9762,0,0,1,202.11,70.2464Zm-.699,3.5457h1.4V81.894h-1.4Z"/><path class="cls-13" d="M210.5864,75.7207a2.6187,2.6187,0,0,0-1.8823-.8085,2.71,2.71,0,0,0-2.6739,3.001,2.6852,2.6852,0,0,0,4.618,2.0367l.8239,1.0261a3.88,3.88,0,0,1-2.7989,1.1047,4.1012,4.1012,0,0,1-4.1351-4.2138,4.2048,4.2048,0,0,1,4.1506-4.2615,4.5032,4.5032,0,0,1,2.8466,1.0106Z"/><path class="cls-13" d="M223.093,75.3782h5.9557c0,4.2461-2.9238,6.7025-6.235,6.7025a6.0956,6.0956,0,1,1,4.1674-10.5892l-.9488,1.1187a4.8689,4.8689,0,0,0-3.2186-1.3209,4.696,4.696,0,1,0,4.6026,5.4883H223.093Z"/><path class="cls-13" d="M236.0825,80.9451h-.0309a2.5473,2.5473,0,0,1-2.2234,1.1356,2.875,2.875,0,0,1-3.126-3.0474V73.7921h1.3995v4.712c0,1.2128.4983,2.27,1.8823,2.27,1.3054,0,2.0985-.8858,2.0985-2.4256V73.7921h1.3994V81.894h-1.3994Z"/><path class="cls-13" d="M240.2836,70.2464a.98.98,0,1,1-.98.98A.9762.9762,0,0,1,240.2836,70.2464Zm-.699,3.5457h1.3994V81.894h-1.3994Z"/><path class="cls-13" d="M250.0839,70.0766h1.3995V81.894h-1.3995V80.65h-.0323a3.5489,3.5489,0,0,1-3.0164,1.43,4.2635,4.2635,0,0,1-4.2756-4.3233,4.1844,4.1844,0,0,1,4.2138-4.152,3.7309,3.7309,0,0,1,3.0782,1.4626h.0323Zm-2.862,4.8356a2.9313,2.9313,0,1,0,2.862,2.9392A2.9314,2.9314,0,0,0,247.2219,74.9122Z"/><path class="cls-13" d="M261.2823,80.3233a4.6622,4.6622,0,0,1-3.6537,1.7574,4.1752,4.1752,0,0,1-4.4159-4.2447,4.0893,4.0893,0,0,1,4.1829-4.2306c2.5027,0,4.2446,1.9132,4.2446,4.7738h-6.9354a2.8127,2.8127,0,0,0,2.9083,2.3947,3.3779,3.3779,0,0,0,2.5968-1.3054ZM260.0541,77.23a2.7022,2.7022,0,0,0-5.3493,0Z"/><path class="cls-13" d="M264.5514,70.0766V79.359c0,.918.4506,1.2282.9012,1.2282h.4211V81.894h-.5755c-1.2914,0-2.1462-.7313-2.1462-2.4255V70.0766Z"/><path class="cls-13" d="M267.631,70.2464a.98.98,0,1,1-.98.98A.9762.9762,0,0,1,267.631,70.2464Zm-.699,3.5457h1.3995V81.894H266.932Z"/><path class="cls-13" d="M275.813,77.1819c0-1.2128-.4969-2.27-1.8809-2.27-1.3069,0-2.1.8857-2.1,2.4255V81.894h-1.3995V73.7921h1.3995v.9488h.0323a2.5471,2.5471,0,0,1,2.2234-1.1355,2.8749,2.8749,0,0,1,3.1245,3.0487v5.24H275.813Z"/><path class="cls-13" d="M286.9187,80.3233a4.6625,4.6625,0,0,1-3.6537,1.7574,4.1752,4.1752,0,0,1-4.4159-4.2447,4.0893,4.0893,0,0,1,4.1829-4.2306c2.5027,0,4.2446,1.9132,4.2446,4.7738h-6.9355a2.8129,2.8129,0,0,0,2.9084,2.3947,3.3779,3.3779,0,0,0,2.5968-1.3054ZM285.6905,77.23a2.7022,2.7022,0,0,0-5.3494,0Z"/><path class="cls-13" d="M289.7218,79.53a1.5338,1.5338,0,0,0,1.6788,1.3223c1.259,0,1.6015-.685,1.6015-1.1665,0-.5292-.3425-.8548-1.43-1.151l-1.4149-.3888a2.0053,2.0053,0,0,1-1.6479-2.083c0-1.3377,1.0107-2.4578,2.8916-2.4578a2.456,2.456,0,0,1,2.7834,2.5195h-1.3068a1.3509,1.3509,0,0,0-1.5075-1.3685c-.8871,0-1.4612.5292-1.4612,1.1664,0,.4506.2484.7931.9011.98l1.8978.5446a1.99,1.99,0,0,1,1.6942,2.1139,2.663,2.663,0,0,1-2.9393,2.52c-1.8963,0-3.001-1.0107-3.0473-2.55Z"/></svg>