<?xml version="1.0" standalone="no"?>
<!DOCTYPE svg PUBLIC "-//W3C//DTD SVG 1.1//EN" "http://www.w3.org/Graphics/SVG/1.1/DTD/svg11.dtd" >
<svg xmlns="http://www.w3.org/2000/svg" xmlns:xlink="http://www.w3.org/1999/xlink" version="1.1">
<metadata>
Created by FontForge 20141024 at Thu May 28 06:47:12 2015
 By System Administrator
Copyright 1990 as an unpublished work by Bitstream Inc.  All rights reserved.  Confidential.
</metadata>
<defs>
<font id="FranklinGothicITCbyBT-Book" horiz-adv-x="500" >
  <font-face 
    font-family="ITC Franklin Gothic"
    font-weight="400"
    font-stretch="normal"
    units-per-em="1000"
    panose-1="2 0 5 3 0 0 0 0 0 0"
    ascent="800"
    descent="-200"
    x-height="514"
    cap-height="694"
    bbox="-167 -236 1128 964"
    underline-thickness="48"
    underline-position="-89"
    stemh="64"
    stemv="70"
    unicode-range="U+0020-FB02"
  />
    <missing-glyph />
    <glyph glyph-name="space" unicode=" " horiz-adv-x="299" 
 />
    <glyph glyph-name="exclam" unicode="!" horiz-adv-x="319" 
d="M107 0v102h104v-102h-104zM142 174l-41 520h117l-41 -520h-35z" />
    <glyph glyph-name="quotedbl" unicode="&#x22;" horiz-adv-x="288" 
d="M103 700v-270h-57v270h57zM242 700v-270h-58v270h58z" />
    <glyph glyph-name="numbersign" unicode="#" horiz-adv-x="769" 
d="M450 711l-81 -230h127l82 230h70l-80 -230h150l-21 -60h-152l-46 -133h161l-21 -60h-162l-81 -229h-71l82 229h-129l-82 -229h-70l81 229h-156l21 60h156l47 133h-167l21 60h168l82 230h71zM475 421h-129l-46 -133h128z" />
    <glyph glyph-name="dollar" unicode="$" horiz-adv-x="597" 
d="M286 -86v103c-115 6 -193 64 -227 166l70 25c25 -79 78 -121 157 -123v241c-132 26 -199 86 -199 176c0 95 75 169 199 179v84h48v-84c103 -8 174 -54 202 -137l-66 -19c-28 62 -72 91 -136 93v-222c142 -27 212 -90 212 -191c0 -105 -80 -183 -212 -188v-103h-48z
M286 406v211c-77 -3 -122 -44 -122 -104c0 -57 41 -93 122 -107zM334 85c86 1 135 44 135 112c0 64 -44 101 -135 116v-228z" />
    <glyph glyph-name="percent" unicode="%" horiz-adv-x="771" 
d="M135 -14l438 722h62l-438 -722h-62zM183 710c95 0 161 -71 161 -182c0 -110 -65 -182 -161 -182c-95 0 -161 71 -161 182s66 182 161 182zM279 528c0 83 -39 132 -96 132c-56 0 -96 -49 -96 -132c0 -82 40 -132 96 -132s96 49 96 132zM587 351c95 0 161 -71 161 -182
c0 -110 -65 -182 -161 -182c-95 0 -160 71 -160 182s65 182 160 182zM683 169c0 83 -39 132 -96 132c-56 0 -96 -49 -96 -132c0 -82 40 -132 96 -132s96 49 96 132z" />
    <glyph glyph-name="ampersand" unicode="&#x26;" horiz-adv-x="630" 
d="M398 102l-159 253c-85 -31 -130 -88 -130 -160c0 -80 64 -141 153 -141c49 0 94 16 136 48zM436 51c-50 -41 -116 -64 -186 -64c-133 0 -223 89 -223 208c0 99 62 173 182 212c-39 62 -61 112 -61 157c0 84 61 144 152 144c96 0 162 -63 162 -147
c0 -77 -51 -138 -153 -181l141 -226c50 60 85 135 100 221l71 -17c-19 -91 -62 -178 -129 -259c17 -25 46 -38 84 -38c15 0 33 3 53 8v-72c-24 -7 -45 -11 -64 -11c-48 0 -89 22 -129 65zM278 434c74 27 113 72 113 124c0 49 -39 89 -90 89c-47 0 -81 -34 -81 -83
c0 -33 20 -75 58 -130z" />
    <glyph glyph-name="quoteright" unicode="&#x2019;" horiz-adv-x="255" 
d="M88 588v106h103v-94l-69 -133h-42l57 121h-49z" />
    <glyph glyph-name="parenleft" unicode="(" horiz-adv-x="326" 
d="M247 -130c-106 130 -158 266 -158 419c0 154 52 290 158 419h52c-95 -132 -139 -264 -139 -419s45 -287 140 -419h-53z" />
    <glyph glyph-name="parenright" unicode=")" horiz-adv-x="326" 
d="M27 -130c95 133 139 264 139 419c0 154 -44 287 -139 419h52c106 -130 158 -267 158 -419c0 -154 -51 -289 -157 -419h-53z" />
    <glyph glyph-name="asterisk" unicode="*" 
d="M250 464l-84 -149l-63 47l115 125l-165 35l23 73l154 -70l-14 169h68l-14 -169l154 70l23 -73l-165 -35l115 -125l-63 -47z" />
    <glyph glyph-name="plus" unicode="+" horiz-adv-x="833" 
d="M446 596v-269h263v-57h-263v-270h-58v270h-264v57h264v269h58z" />
    <glyph glyph-name="comma" unicode="," horiz-adv-x="299" 
d="M95 -10v121h113v-108l-76 -151h-46l62 138h-53z" />
    <glyph glyph-name="hyphen" unicode="-" horiz-adv-x="347" 
d="M58 229v68h231v-68h-231z" />
    <glyph glyph-name="period" unicode="." horiz-adv-x="299" 
d="M93 0v120h112v-120h-112z" />
    <glyph glyph-name="slash" unicode="/" horiz-adv-x="278" 
d="M-53 -93l295 801h60l-296 -801h-59z" />
    <glyph glyph-name="zero" unicode="0" horiz-adv-x="597" 
d="M298 -13c-152 0 -261 137 -261 361s109 360 261 360s262 -136 262 -360s-110 -361 -262 -361zM298 54c103 0 174 106 174 294c0 189 -71 293 -174 293s-173 -104 -173 -293c0 -188 70 -294 173 -294z" />
    <glyph glyph-name="one" unicode="1" horiz-adv-x="597" 
d="M83 0v69h208v535c-58 -64 -121 -114 -189 -149v84c94 50 165 107 211 169h62v-639h191v-69h-483z" />
    <glyph glyph-name="two" unicode="2" horiz-adv-x="597" 
d="M46 0v74c260 188 401 308 401 423c0 82 -63 142 -156 142c-89 0 -153 -61 -165 -159l-79 25c29 129 120 203 248 203c140 0 236 -91 236 -216s-129 -245 -373 -418h380v-74h-492z" />
    <glyph glyph-name="three" unicode="3" horiz-adv-x="597" 
d="M19 161l81 24c29 -84 93 -128 188 -128c105 0 173 59 173 134c0 76 -69 136 -173 136h-95v70h86c99 0 159 52 159 124c0 69 -57 121 -143 121s-145 -39 -166 -109l-77 22c37 101 121 154 247 154c137 0 226 -80 226 -184c0 -78 -50 -138 -135 -159
c100 -21 158 -88 158 -176c0 -119 -99 -204 -260 -204c-138 0 -234 64 -269 175z" />
    <glyph glyph-name="four" unicode="4" horiz-adv-x="597" 
d="M384 0v167h-344v53l316 488h102v-474h112v-67h-112v-167h-74zM384 234v408l-260 -408h260z" />
    <glyph glyph-name="five" unicode="5" horiz-adv-x="597" 
d="M44 146l75 26c30 -76 88 -116 169 -116c106 0 182 73 182 172c0 97 -74 170 -171 170c-65 0 -121 -33 -153 -94l-66 12l20 378h414l-8 -74h-345l-12 -231c38 49 94 76 167 76c140 0 239 -98 239 -235c0 -64 -21 -119 -62 -163c-49 -52 -119 -81 -197 -81
c-120 0 -210 57 -252 160z" />
    <glyph glyph-name="six" unicode="6" horiz-adv-x="597" 
d="M311 56c98 0 167 70 167 172c0 88 -68 156 -154 156c-101 0 -177 -75 -177 -162c0 -95 69 -166 164 -166zM129 320c39 86 118 136 202 136c139 0 235 -96 235 -228c0 -54 -20 -109 -57 -155c-45 -55 -115 -87 -191 -87c-169 0 -272 123 -272 338c0 238 113 384 279 384
c119 0 197 -51 232 -153l-81 -21c-23 70 -72 105 -144 105c-129 0 -203 -106 -203 -307v-12z" />
    <glyph glyph-name="seven" unicode="7" horiz-adv-x="597" 
d="M205 0c6 248 90 455 249 620h-371l7 74h446v-53c-163 -187 -240 -391 -240 -623v-18h-91z" />
    <glyph glyph-name="eight" unicode="8" horiz-adv-x="597" 
d="M289 326c-116 -28 -175 -77 -175 -148c0 -74 70 -126 186 -126c112 0 181 55 181 122c0 65 -64 115 -192 152zM300 404c108 29 159 69 159 132c0 61 -61 109 -156 109c-94 0 -155 -49 -155 -109c0 -59 52 -105 152 -132zM197 362c-87 33 -132 90 -132 165
c0 105 91 181 239 181c147 0 237 -74 237 -176c0 -75 -47 -131 -140 -161c112 -42 168 -105 168 -191c0 -110 -104 -194 -270 -194c-170 0 -270 81 -270 192c0 84 58 149 168 184z" />
    <glyph glyph-name="nine" unicode="9" horiz-adv-x="597" 
d="M289 638c-92 0 -162 -71 -162 -172c0 -89 66 -156 157 -156c97 0 174 77 174 163c0 96 -68 165 -169 165zM475 374c-40 -87 -116 -136 -208 -136c-130 0 -229 97 -229 228c0 54 20 110 57 155c45 55 116 87 192 87c169 0 272 -123 272 -338c0 -239 -114 -384 -280 -384
c-112 0 -188 48 -225 140l70 25c35 -64 84 -96 148 -96c130 0 203 106 203 307v12z" />
    <glyph glyph-name="colon" unicode=":" horiz-adv-x="299" 
d="M93 0v120h112v-120h-112zM93 394v120h112v-120h-112z" />
    <glyph glyph-name="semicolon" unicode=";" horiz-adv-x="299" 
d="M93 394v120h112v-120h-112zM93 -10v121h112v-108l-76 -151h-46l63 138h-53z" />
    <glyph glyph-name="less" unicode="&#x3c;" horiz-adv-x="833" 
d="M704 497l-488 -199l488 -198v-63l-575 236v50l575 236v-62z" />
    <glyph glyph-name="equal" unicode="=" horiz-adv-x="833" 
d="M709 420v-57h-585v57h585zM709 233v-57h-585v57h585z" />
    <glyph glyph-name="greater" unicode="&#x3e;" horiz-adv-x="833" 
d="M704 323v-50l-575 -236v63l488 198l-488 199v62z" />
    <glyph glyph-name="question" unicode="?" horiz-adv-x="558" 
d="M208 173v72c0 47 16 82 52 109c25 19 59 37 94 62c31 22 51 61 51 97c0 77 -54 126 -138 126c-85 0 -146 -56 -155 -150l-78 15c22 130 111 205 243 205c58 0 110 -19 142 -45c52 -43 79 -94 79 -153c0 -37 -11 -69 -34 -103c-25 -37 -74 -64 -139 -102
c-29 -17 -44 -39 -44 -69v-64h-73zM196 0v102h104v-102h-104z" />
    <glyph glyph-name="at" unicode="@" horiz-adv-x="1000" 
d="M587 231l29 118c-11 59 -49 93 -101 93c-96 0 -167 -98 -167 -224c0 -72 35 -112 96 -112c65 0 124 49 143 125zM631 412l28 59h54l-69 -277c-4 -16 -6 -29 -6 -39c0 -29 18 -44 54 -44c26 0 65 14 99 43c56 48 93 130 93 220c0 170 -135 288 -349 288
c-109 0 -204 -34 -279 -100c-92 -80 -138 -186 -138 -311c0 -112 38 -196 121 -261c64 -51 157 -82 261 -82c111 0 220 32 308 92l22 -32c-96 -72 -205 -108 -322 -108c-124 0 -227 30 -305 90c-99 76 -148 176 -148 305c0 107 34 203 98 282c94 114 228 175 392 175
c110 0 208 -31 273 -82c84 -65 128 -152 128 -250c0 -112 -43 -204 -120 -266c-45 -36 -98 -55 -152 -55c-64 0 -97 25 -97 76c0 3 1 7 1 11c-33 -57 -84 -87 -145 -87c-100 0 -153 57 -153 162c0 153 104 268 229 268c59 0 100 -26 122 -77z" />
    <glyph glyph-name="A" unicode="A" horiz-adv-x="558" 
d="M164 274h218l-110 341zM-1 0l230 694h99l227 -694h-84l-67 207h-262l-64 -207h-79z" />
    <glyph glyph-name="B" unicode="B" horiz-adv-x="618" 
d="M162 396h153c100 0 151 41 151 119c0 69 -49 110 -141 110h-163v-229zM162 72h164c107 0 162 44 162 124c0 88 -59 134 -176 134h-150v-258zM79 0v694h263c138 0 214 -67 214 -177c0 -70 -46 -127 -123 -148c94 -25 145 -89 145 -178c0 -124 -85 -191 -250 -191h-249z
" />
    <glyph glyph-name="C" unicode="C" horiz-adv-x="601" 
d="M494 469c-22 109 -84 168 -172 168c-115 0 -193 -105 -193 -289s77 -289 193 -289c89 0 149 58 176 171l77 -17c-33 -148 -121 -226 -253 -226c-174 0 -285 135 -285 361c0 117 32 210 95 278c49 53 116 82 190 82c132 0 218 -76 251 -223z" />
    <glyph glyph-name="D" unicode="D" horiz-adv-x="657" 
d="M162 72h132c149 0 234 99 234 275s-85 276 -237 276h-129v-551zM79 0v694h224c77 0 138 -17 184 -52c87 -66 134 -168 134 -295c0 -210 -128 -347 -330 -347h-212z" />
    <glyph glyph-name="E" unicode="E" horiz-adv-x="542" 
d="M79 0v694h440v-69h-357v-225h281v-67h-281v-261h366v-72h-449z" />
    <glyph glyph-name="F" unicode="F" horiz-adv-x="502" 
d="M79 0v694h440v-69h-357v-225h281v-67h-281v-333h-83z" />
    <glyph glyph-name="G" unicode="G" horiz-adv-x="641" 
d="M535 -7l-24 83c-38 -57 -105 -89 -189 -89c-174 0 -285 134 -285 361c0 117 32 210 95 278c49 53 117 82 190 82c130 0 221 -70 260 -201l-81 -20c-30 94 -90 150 -179 150c-115 0 -193 -105 -193 -289c0 -186 76 -289 200 -289c104 0 176 67 176 171v46h-179v72h263
v-355h-54z" />
    <glyph glyph-name="H" unicode="H" horiz-adv-x="653" 
d="M79 0v694h83v-291h329v291h83v-694h-83v331h-329v-331h-83z" />
    <glyph glyph-name="I" unicode="I" horiz-adv-x="248" 
d="M81 0v694h86v-694h-86z" />
    <glyph glyph-name="J" unicode="J" horiz-adv-x="390" 
d="M225 228v466h86v-461c0 -166 -67 -247 -208 -247c-33 0 -67 5 -103 14v76c38 -9 70 -14 97 -14c91 0 128 52 128 166z" />
    <glyph glyph-name="K" unicode="K" horiz-adv-x="590" 
d="M79 0v694h83v-397l312 397h90l-184 -232l242 -462h-87l-210 403l-163 -204v-199h-83z" />
    <glyph glyph-name="L" unicode="L" horiz-adv-x="465" 
d="M79 0v694h85v-618h317v-76h-402z" />
    <glyph glyph-name="M" unicode="M" horiz-adv-x="822" 
d="M78 0v694h122l212 -582l210 582h121v-694h-81v617l-228 -617h-59l-225 621v-621h-72z" />
    <glyph glyph-name="N" unicode="N" horiz-adv-x="667" 
d="M79 0v694h112l327 -572v572h70v-694h-85l-355 618v-618h-69z" />
    <glyph glyph-name="O" unicode="O" horiz-adv-x="644" 
d="M322 -13c-167 0 -285 138 -285 361s118 360 285 360s285 -137 285 -360s-118 -361 -285 -361zM322 59c116 0 192 105 192 289s-77 289 -192 289c-116 0 -193 -105 -193 -289s77 -289 193 -289z" />
    <glyph glyph-name="P" unicode="P" horiz-adv-x="566" 
d="M79 0v694h233c154 0 237 -77 237 -213c0 -116 -89 -200 -241 -200h-146v-281h-83zM162 353h137c104 0 157 47 157 138c0 78 -55 132 -151 132h-143v-270z" />
    <glyph glyph-name="Q" unicode="Q" horiz-adv-x="644" 
d="M514 348c0 184 -76 289 -192 289c-115 0 -193 -105 -193 -289s77 -289 193 -289s192 105 192 289zM321 -12c-173 4 -284 139 -284 360c0 223 118 360 285 360s285 -138 285 -360c0 -188 -82 -315 -218 -353v-3c0 -61 31 -90 96 -90c21 0 49 3 81 10v-73
c-31 -8 -60 -12 -85 -12c-103 0 -156 55 -160 161z" />
    <glyph glyph-name="R" unicode="R" horiz-adv-x="606" 
d="M316 623h-154v-249h147c114 0 170 40 170 125c0 79 -56 124 -163 124zM79 0v694h240c167 0 251 -68 251 -196c0 -84 -43 -144 -129 -177l140 -321h-85l-133 305h-201v-305h-83z" />
    <glyph glyph-name="S" unicode="S" horiz-adv-x="604" 
d="M25 190l83 16c28 -95 99 -147 198 -147s164 55 164 120c0 84 -58 107 -175 138c-66 17 -130 27 -186 78c-32 29 -50 70 -50 115c0 114 93 199 232 199c129 0 217 -62 254 -175l-81 -19c-24 79 -85 122 -173 122c-89 0 -144 -49 -144 -115c0 -32 15 -59 39 -75
c44 -29 96 -38 150 -53c150 -43 223 -91 223 -206c0 -118 -98 -201 -251 -201c-145 0 -244 72 -283 203z" />
    <glyph glyph-name="T" unicode="T" horiz-adv-x="456" 
d="M271 622v-622h-86v622h-195v72h476v-72h-195z" />
    <glyph glyph-name="U" unicode="U" horiz-adv-x="628" 
d="M79 694h85v-441c0 -131 45 -194 154 -194c115 0 160 63 160 194v441h71v-441c0 -179 -75 -267 -238 -267c-161 0 -232 87 -232 267v441z" />
    <glyph glyph-name="V" unicode="V" horiz-adv-x="558" 
d="M238 0l-237 694h85l198 -590l196 590h76l-234 -694h-84z" />
    <glyph glyph-name="W" unicode="W" horiz-adv-x="815" 
d="M170 0l-171 694h82l145 -595l155 595h69l154 -590l143 590h72l-174 -694h-89l-144 551l-147 -551h-95z" />
    <glyph glyph-name="X" unicode="X" horiz-adv-x="502" 
d="M-14 0l225 364l-197 330h90l153 -258l156 258h80l-198 -323l222 -371h-90l-178 298l-181 -298h-82z" />
    <glyph glyph-name="Y" unicode="Y" horiz-adv-x="509" 
d="M215 0v293l-235 401h91l191 -334l190 334h82l-236 -404v-290h-83z" />
    <glyph glyph-name="Z" unicode="Z" horiz-adv-x="514" 
d="M15 0v72l383 555h-365v67h464v-59l-390 -563h400v-72h-492z" />
    <glyph glyph-name="bracketleft" unicode="[" horiz-adv-x="326" 
d="M98 -130v824h181v-56h-109v-712h109v-56h-181z" />
    <glyph glyph-name="backslash" unicode="\" horiz-adv-x="278" 
d="M331 -93h-59l-296 801h60z" />
    <glyph glyph-name="bracketright" unicode="]" horiz-adv-x="326" 
d="M48 -130v56h108v712h-108v56h180v-824h-180z" />
    <glyph glyph-name="asciicircum" unicode="^" horiz-adv-x="1000" 
d="M539 712l254 -272h-77l-216 214l-216 -214h-78l254 272h79z" />
    <glyph glyph-name="underscore" unicode="_" 
d="M500 -178v-58h-500v58h500z" />
    <glyph glyph-name="quoteleft" unicode="&#x2018;" horiz-adv-x="255" 
d="M183 587v-106h-103v95l69 132h42l-57 -121h49z" />
    <glyph glyph-name="a" unicode="a" horiz-adv-x="523" 
d="M387 260c-21 2 -41 2 -60 2c-138 0 -209 -41 -209 -117c0 -56 40 -93 107 -93c90 0 162 81 162 181v27zM399 0c-8 29 -12 62 -12 97c-35 -69 -99 -109 -177 -109c-105 0 -176 66 -176 156c0 116 104 176 309 176c14 0 29 0 44 -1v32c0 77 -41 115 -128 115
c-78 0 -123 -28 -137 -89l-73 11c21 92 96 140 223 140c134 0 190 -64 190 -203v-220c0 -39 3 -73 14 -105h-77z" />
    <glyph glyph-name="b" unicode="b" horiz-adv-x="528" 
d="M69 -5v699h75v-271c35 69 88 105 154 105c111 0 197 -104 197 -267c0 -166 -87 -271 -201 -271c-63 0 -115 32 -156 97l-31 -92h-38zM144 216c0 -101 55 -160 131 -160c83 0 137 73 137 203c0 128 -53 201 -134 201c-72 0 -134 -64 -134 -159v-85z" />
    <glyph glyph-name="c" unicode="c" horiz-adv-x="479" 
d="M376 334c-10 82 -60 130 -120 130c-80 0 -140 -76 -140 -207c0 -129 57 -205 138 -205c62 0 109 45 125 126l69 -13c-20 -115 -93 -179 -197 -179c-129 0 -218 104 -218 271c0 165 94 271 230 271c98 0 168 -66 185 -183z" />
    <glyph glyph-name="d" unicode="d" horiz-adv-x="530" 
d="M386 300c0 100 -54 160 -135 160c-78 0 -133 -73 -133 -203c0 -128 53 -201 134 -201c73 0 134 64 134 165v79zM460 694v-694h-69v102c-35 -75 -91 -114 -159 -114c-111 0 -198 103 -198 266c0 167 89 272 203 272c62 0 114 -32 149 -92v260h74z" />
    <glyph glyph-name="e" unicode="e" horiz-adv-x="523" 
d="M117 307h290c-4 100 -57 157 -140 157c-84 0 -137 -55 -150 -157zM483 138c-36 -99 -113 -152 -220 -152c-138 0 -230 104 -230 271c0 164 95 271 230 271c138 0 227 -100 227 -266v-11h-374v-3c0 -125 60 -197 153 -197c64 0 115 36 141 100z" />
    <glyph glyph-name="f" unicode="f" horiz-adv-x="280" 
d="M94 0v458h-91v56h91v4c0 125 49 186 153 186c26 0 51 -2 76 -7v-64c-27 5 -48 7 -62 7c-63 0 -92 -34 -92 -107c0 -6 1 -13 1 -19h123v-56h-123v-458h-76z" />
    <glyph glyph-name="g" unicode="g" horiz-adv-x="490" 
d="M131 217c-45 31 -69 75 -69 129c0 101 80 179 190 179c40 0 76 -9 111 -28c9 59 46 89 109 89c9 0 20 -1 32 -2v-57h-26c-45 0 -71 -20 -77 -60c31 -38 46 -77 46 -119c0 -99 -74 -170 -196 -170c-27 0 -52 4 -76 13c-35 -10 -53 -27 -53 -49c0 -33 23 -52 66 -54l157 -8
c112 -6 170 -50 170 -127c0 -90 -88 -145 -255 -145c-157 0 -239 51 -239 134c0 49 30 88 85 104c-38 19 -55 45 -55 82c0 41 26 70 80 89zM255 466c-69 0 -115 -47 -115 -116s45 -115 115 -115s115 46 115 115s-46 116 -115 116zM151 23c-37 -17 -54 -38 -54 -71
c0 -58 58 -86 174 -86c111 0 167 29 167 81c0 46 -38 63 -116 67z" />
    <glyph glyph-name="h" unicode="h" horiz-adv-x="537" 
d="M69 0v694h75v-271c37 70 90 105 161 105c109 0 167 -69 167 -203v-325h-74v332c0 85 -39 132 -106 132c-82 0 -148 -73 -148 -180v-284h-75z" />
    <glyph glyph-name="i" unicode="i" horiz-adv-x="220" 
d="M72 618v76h76v-76h-76zM72 0v514h76v-514h-76z" />
    <glyph glyph-name="j" unicode="j" horiz-adv-x="220" 
d="M72 14v500h76v-496c0 -145 -32 -210 -145 -210c-20 0 -43 2 -72 8v60c25 -4 44 -5 57 -5c76 0 84 44 84 143zM72 618v76h76v-76h-76z" />
    <glyph glyph-name="k" unicode="k" horiz-adv-x="472" 
d="M69 0v694h75v-441l232 261h83l-158 -168l183 -346h-81l-153 292l-106 -113v-179h-75z" />
    <glyph glyph-name="l" unicode="l" horiz-adv-x="220" 
d="M72 0v694h76v-694h-76z" />
    <glyph glyph-name="m" unicode="m" horiz-adv-x="824" 
d="M442 414c43 75 95 111 161 111c101 0 157 -69 157 -200v-325h-74v332c0 84 -37 129 -96 129c-74 0 -138 -72 -138 -177v-284h-74v332c0 83 -37 129 -96 129c-74 0 -138 -72 -138 -177v-284h-75v514h70v-95c40 71 91 106 155 106c74 0 128 -40 148 -111z" />
    <glyph glyph-name="n" unicode="n" horiz-adv-x="537" 
d="M69 0v514h70v-95c42 74 95 109 166 109c109 0 167 -69 167 -203v-325h-74v332c0 85 -39 132 -106 132c-82 0 -148 -73 -148 -180v-284h-75z" />
    <glyph glyph-name="o" unicode="o" horiz-adv-x="528" 
d="M263 -14c-136 0 -230 106 -230 271c0 166 94 271 230 271c137 0 232 -105 232 -271c0 -165 -95 -271 -232 -271zM263 50c88 0 148 77 148 207c0 131 -59 207 -148 207s-147 -75 -147 -207c0 -131 59 -207 147 -207z" />
    <glyph glyph-name="p" unicode="p" horiz-adv-x="530" 
d="M144 216c0 -101 55 -160 131 -160c83 0 137 73 137 203c0 128 -53 201 -134 201c-72 0 -134 -64 -134 -158v-86zM69 -178v692h70v-100c35 75 90 114 158 114c112 0 198 -103 198 -267c0 -168 -89 -271 -203 -271c-60 0 -113 32 -148 92v-260h-75z" />
    <glyph glyph-name="q" unicode="q" horiz-adv-x="528" 
d="M386 304c0 96 -55 156 -135 156c-78 0 -133 -73 -133 -203c0 -128 53 -201 134 -201c74 0 134 63 134 167v81zM460 521v-699h-74v271c-35 -69 -87 -104 -153 -104c-113 0 -199 102 -199 265c0 169 89 272 203 272c62 0 113 -32 155 -97l31 92h37z" />
    <glyph glyph-name="r" unicode="r" horiz-adv-x="308" 
d="M69 0v514h73v-115c31 87 79 130 150 130c9 0 18 -1 28 -2v-77h-13c-98 0 -161 -73 -161 -192v-258h-77z" />
    <glyph glyph-name="s" unicode="s" horiz-adv-x="454" 
d="M21 134l69 14c21 -63 75 -99 146 -99c72 0 116 37 116 87c0 63 -54 69 -148 92c-112 27 -164 60 -164 146c0 87 72 154 184 154c95 0 161 -46 186 -130l-71 -15c-16 53 -56 81 -118 81c-65 0 -104 -32 -104 -81c0 -64 58 -65 157 -90c107 -27 158 -68 158 -147
c0 -92 -78 -160 -196 -160c-113 0 -191 55 -215 148z" />
    <glyph glyph-name="t" unicode="t" horiz-adv-x="308" 
d="M92 191v267h-90v56h90v122l77 8v-130h122v-56h-122v-269c0 -96 9 -137 87 -137c16 0 34 1 53 6v-64c-21 -5 -43 -8 -64 -8c-61 0 -103 18 -132 61c-21 30 -21 78 -21 144z" />
    <glyph glyph-name="u" unicode="u" horiz-adv-x="537" 
d="M468 514v-514h-70v95c-42 -74 -95 -109 -166 -109c-109 0 -167 69 -167 203v325h74v-332c0 -86 39 -132 106 -132c82 0 149 73 149 180v284h74z" />
    <glyph glyph-name="v" unicode="v" horiz-adv-x="419" 
d="M168 0l-174 514h76l146 -439l146 439h70l-180 -514h-84z" />
    <glyph glyph-name="w" unicode="w" horiz-adv-x="655" 
d="M156 0l-151 514h76l114 -414l107 414h59l114 -414l120 414h68l-156 -514h-67l-111 407l-104 -407h-69z" />
    <glyph glyph-name="x" unicode="x" horiz-adv-x="400" 
d="M-10 0l172 272l-150 242h85l107 -174l112 174h73l-148 -233l174 -281h-85l-132 214l-135 -214h-73z" />
    <glyph glyph-name="y" unicode="y" horiz-adv-x="421" 
d="M2 -184v67c24 -5 43 -8 59 -8c64 0 94 38 119 129l-183 510h77l144 -413l146 413h67l-201 -556c-39 -108 -81 -149 -170 -149c-19 0 -38 2 -58 7z" />
    <glyph glyph-name="z" unicode="z" horiz-adv-x="382" 
d="M9 0v65l267 384h-251v65h352v-42l-281 -407h288v-65h-375z" />
    <glyph glyph-name="braceleft" unicode="{" 
d="M419 659c-8 0 -15 1 -22 1c-86 0 -101 -30 -101 -119v-118c0 -96 -16 -142 -97 -164c81 -22 97 -68 97 -164v-118c0 -90 16 -118 104 -118h19v-61h-17c-56 0 -97 5 -128 25c-44 29 -49 77 -49 153v119c0 97 -30 134 -119 134c-7 0 -14 -1 -22 -1v62c8 0 15 -1 22 -1
c89 0 119 37 119 135v119c0 76 4 124 49 153c31 20 71 25 128 25h17v-62z" />
    <glyph glyph-name="bar" unicode="|" 
d="M281 764v-1000h-62v1000h62z" />
    <glyph glyph-name="braceright" unicode="}" 
d="M275 543v-119c0 -98 31 -135 120 -135c7 0 14 1 22 1v-62c-8 0 -15 1 -22 1c-89 0 -120 -37 -120 -135v-118c0 -76 -4 -125 -48 -154c-30 -20 -71 -24 -126 -24h-20v61c8 0 15 -1 22 -1c86 0 101 31 101 120v117c0 96 16 142 97 164c-81 22 -97 68 -97 164v118
c0 90 -16 119 -104 119h-19v61h17c56 0 98 -5 129 -25c44 -29 48 -77 48 -153z" />
    <glyph glyph-name="asciitilde" unicode="~" horiz-adv-x="833" 
d="M747 306c-66 -47 -129 -70 -189 -70c-29 0 -60 6 -93 17c-69 23 -128 50 -190 50c-59 0 -117 -28 -188 -78v65c68 47 131 71 189 71c52 0 97 -16 142 -32c48 -17 91 -36 141 -36c60 0 118 28 188 77v-64z" />
    <glyph glyph-name="exclamdown" unicode="&#xa1;" horiz-adv-x="319" 
d="M212 694v-101h-104v101h104zM177 520l41 -520h-117l41 520h35z" />
    <glyph glyph-name="cent" unicode="&#xa2;" horiz-adv-x="597" 
d="M438 417c-8 71 -61 117 -114 117c-78 0 -135 -70 -135 -186s58 -183 133 -183c56 0 104 42 119 113l66 -11c-18 -94 -75 -149 -166 -160v-147h-49v147c-114 20 -183 112 -183 241c0 130 68 219 183 240v133h49v-131c93 -8 151 -65 166 -163z" />
    <glyph glyph-name="sterling" unicode="&#xa3;" horiz-adv-x="597" 
d="M55 0v74c98 6 152 67 152 171c0 23 -4 53 -9 89h-111v60h103c-5 34 -8 64 -8 89c0 140 77 225 192 225c66 0 123 -30 165 -88l-60 -43c-31 44 -64 65 -107 65c-68 0 -105 -46 -105 -131c0 -25 3 -64 9 -117h145v-60h-140c2 -24 3 -46 3 -65c0 -97 -29 -158 -107 -202h200
c88 0 138 17 172 81l54 -33c-39 -88 -105 -115 -220 -115h-328z" />
    <glyph glyph-name="fraction" unicode="&#x2044;" horiz-adv-x="167" 
d="M-167 -14l438 722h62l-438 -722h-62z" />
    <glyph glyph-name="yen" unicode="&#xa5;" horiz-adv-x="597" 
d="M259 0v293h-222v47h193l-47 82h-146v47h119l-132 225h86l192 -334l189 334h82l-132 -225h118v-47h-145l-49 -82h194v-47h-222v-293h-78z" />
    <glyph glyph-name="florin" unicode="&#x192;" horiz-adv-x="597" 
d="M344 463h119l-10 -60h-119l-63 -355c-23 -129 -88 -193 -199 -193c-19 0 -40 3 -64 7l10 60c19 -3 36 -4 52 -4c68 0 111 43 126 130l62 355h-91l11 60h91l9 51c24 130 89 193 200 193c19 0 40 -3 64 -7l-11 -60c-19 3 -36 4 -52 4c-69 0 -110 -43 -126 -130z" />
    <glyph glyph-name="section" unicode="&#xa7;" 
d="M137 373c0 -27 21 -56 57 -97c49 -57 85 -86 116 -86c28 0 49 20 49 49c0 26 -17 58 -52 95c-52 55 -83 91 -117 91c-31 0 -53 -22 -53 -52zM93 -28l61 38c26 -42 59 -63 92 -63c37 0 62 24 62 61c0 21 -15 56 -43 86l-154 162c-32 33 -49 71 -49 106
c0 62 44 110 110 115c-35 40 -53 75 -53 115c0 67 53 116 124 116c63 0 108 -23 147 -78l-54 -38c-31 38 -60 56 -86 56c-38 0 -60 -21 -60 -55c0 -25 16 -42 40 -67l123 -128c52 -54 84 -98 84 -155c0 -63 -40 -105 -109 -110c36 -40 55 -79 55 -122
c0 -78 -57 -132 -139 -132c-61 0 -113 31 -151 93z" />
    <glyph glyph-name="currency" unicode="&#xa4;" horiz-adv-x="606" 
d="M178 592c38 29 78 44 125 44s89 -15 127 -44l100 101l35 -36l-100 -100c28 -37 42 -79 42 -125s-14 -88 -42 -125l100 -100l-35 -36l-100 101c-37 -29 -79 -43 -127 -43s-88 14 -125 43l-101 -101l-35 36l101 100c-28 37 -43 79 -43 125s15 88 43 125l-101 100l35 36z
M457 433c0 84 -68 153 -153 153s-153 -69 -153 -153c0 -85 68 -154 153 -154s153 70 153 154z" />
    <glyph glyph-name="quotesingle" unicode="'" horiz-adv-x="149" 
d="M103 700v-270h-57v270h57z" />
    <glyph glyph-name="quotedblleft" unicode="&#x201c;" horiz-adv-x="417" 
d="M183 587v-106h-103v95l69 132h42l-57 -121h49zM345 587v-106h-103v95l69 132h42l-56 -121h48z" />
    <glyph glyph-name="guillemotleft" unicode="&#xab;" horiz-adv-x="380" 
d="M120 256l61 -160h-51l-91 160l91 161h51zM282 256l61 -160h-51l-91 160l91 161h51z" />
    <glyph glyph-name="guilsinglleft" unicode="&#x2039;" horiz-adv-x="218" 
d="M120 256l61 -160h-51l-91 160l91 161h51z" />
    <glyph glyph-name="guilsinglright" unicode="&#x203a;" horiz-adv-x="218" 
d="M99 256l-60 161h50l92 -161l-92 -160h-50z" />
    <glyph glyph-name="fi" unicode="&#xfb01;" horiz-adv-x="488" 
d="M94 0v458h-91v56h91v4c0 125 50 186 154 186c12 0 27 0 43 -2v-63c-9 1 -18 1 -26 1c-69 0 -97 -33 -97 -108v-18h123v-56h-123v-458h-74zM342 0v514h74v-514h-74zM342 618v76h74v-76h-74z" />
    <glyph glyph-name="fl" unicode="&#xfb02;" horiz-adv-x="488" 
d="M94 0v458h-91v56h91v4c0 125 50 186 154 186c12 0 27 0 43 -2v-63c-9 1 -18 1 -26 1c-69 0 -97 -33 -97 -108v-18h123v-56h-123v-458h-74zM342 0v694h74v-694h-74z" />
    <glyph glyph-name="endash" unicode="&#x2013;" 
d="M0 239v48h500v-48h-500z" />
    <glyph glyph-name="dagger" unicode="&#x2020;" 
d="M232 -139c-2 177 -11 316 -29 419c13 59 22 117 28 175l-159 -25v87l160 -26l-27 203h89l-26 -203l160 26v-87l-161 25c9 -77 20 -135 28 -175c-16 -76 -24 -215 -28 -419h-35z" />
    <glyph glyph-name="daggerdbl" unicode="&#x2021;" 
d="M204 283c13 59 22 116 27 172l-158 -25v87l159 -26l-27 203h90l-27 -203l160 26v-87l-161 25c6 -60 16 -117 28 -172c-9 -36 -17 -93 -26 -171l159 25v-87l-160 25l27 -203h-90l27 204l-160 -26v87l161 -25c-8 69 -17 126 -29 171z" />
    <glyph glyph-name="periodcentered" unicode="&#xb7;" horiz-adv-x="299" 
d="M88 347c0 33 28 62 61 62s61 -29 61 -62s-27 -60 -61 -60c-33 0 -61 27 -61 60z" />
    <glyph glyph-name="paragraph" unicode="&#xb6;" 
d="M463 684h-61v-684h-46v684h-90v-684h-46v382c-114 5 -183 73 -183 170c0 100 74 170 192 170h234v-38z" />
    <glyph glyph-name="bullet" unicode="&#x2022;" horiz-adv-x="590" 
d="M150 372c0 80 65 144 145 144c79 0 144 -64 144 -144c0 -79 -65 -145 -145 -145s-144 65 -144 145z" />
    <glyph glyph-name="quotesinglbase" unicode="&#x201a;" horiz-adv-x="255" 
d="M80 -4v106h103v-95l-69 -132h-42l56 121h-48z" />
    <glyph glyph-name="quotedblbase" unicode="&#x201e;" horiz-adv-x="417" 
d="M80 -4v106h103v-95l-69 -132h-42l56 121h-48zM242 -4v106h103v-95l-69 -132h-42l57 121h-49z" />
    <glyph glyph-name="quotedblright" unicode="&#x201d;" horiz-adv-x="417" 
d="M88 588v106h103v-94l-69 -133h-42l57 121h-49zM250 588v106h103v-94l-69 -133h-42l57 121h-49z" />
    <glyph glyph-name="guillemotright" unicode="&#xbb;" horiz-adv-x="380" 
d="M97 256l-60 161h50l92 -161l-92 -160h-50zM259 256l-60 161h51l91 -161l-91 -160h-51z" />
    <glyph glyph-name="ellipsis" unicode="&#x2026;" horiz-adv-x="1000" 
d="M110 0v120h112v-120h-112zM443 0v120h112v-120h-112zM777 0v120h112v-120h-112z" />
    <glyph glyph-name="perthousand" unicode="&#x2030;" horiz-adv-x="1150" 
d="M135 -14l438 722h62l-438 -722h-62zM183 710c95 0 161 -71 161 -182c0 -110 -65 -182 -161 -182c-95 0 -161 71 -161 182s66 182 161 182zM279 528c0 83 -39 132 -96 132c-56 0 -96 -49 -96 -132c0 -82 40 -132 96 -132s96 49 96 132zM587 351c95 0 161 -71 161 -182
c0 -110 -65 -182 -161 -182c-95 0 -160 71 -160 182s65 182 160 182zM683 169c0 83 -39 132 -96 132c-56 0 -96 -49 -96 -132c0 -82 40 -132 96 -132s96 49 96 132zM967 351c95 0 161 -71 161 -182c0 -110 -65 -182 -161 -182c-95 0 -161 71 -161 182s66 182 161 182z
M1063 169c0 83 -39 132 -96 132c-56 0 -96 -49 -96 -132c0 -82 40 -132 96 -132s96 49 96 132z" />
    <glyph glyph-name="questiondown" unicode="&#xbf;" horiz-adv-x="558" 
d="M356 695v-102h-104v102h104zM344 522v-72c0 -47 -16 -83 -52 -110c-50 -38 -96 -56 -113 -78c-21 -27 -32 -52 -32 -84c0 -71 54 -122 137 -122c85 0 146 56 156 150l79 -15c-22 -130 -112 -205 -244 -205c-57 0 -110 18 -142 45c-52 43 -79 93 -79 152
c0 37 11 70 34 104c25 37 74 64 139 101c29 17 44 40 44 70v64h73z" />
    <glyph glyph-name="grave" unicode="`" 
d="M265 582l-137 170h87l102 -170h-52z" />
    <glyph glyph-name="acute" unicode="&#xb4;" 
d="M183 582l102 170h87l-137 -170h-52z" />
    <glyph glyph-name="circumflex" unicode="&#x2c6;" 
d="M110 582l96 170h87l96 -170h-52l-87 119l-88 -119h-52z" />
    <glyph glyph-name="tilde" unicode="&#x2dc;" 
d="M392 713c-15 -58 -48 -94 -97 -94c-11 0 -21 1 -32 5l-39 13c-9 3 -18 4 -26 4c-22 0 -37 -9 -47 -31h-43c14 60 48 91 96 91c11 0 21 -1 30 -4l38 -13c10 -3 20 -6 30 -6c23 0 39 12 47 35h43z" />
    <glyph glyph-name="macron" unicode="&#xaf;" 
d="M124 628v62h252v-62h-252z" />
    <glyph glyph-name="breve" unicode="&#x2d8;" 
d="M112 733h44c4 -50 33 -71 94 -71s90 21 94 71h44c-6 -91 -49 -132 -138 -132s-132 41 -138 132z" />
    <glyph glyph-name="dotaccent" unicode="&#x2d9;" 
d="M207 609v101h86v-101h-86z" />
    <glyph glyph-name="dieresis" unicode="&#xa8;" 
d="M133 613v92h78v-92h-78zM289 613v92h78v-92h-78z" />
    <glyph glyph-name="ring" unicode="&#x2da;" 
d="M129 694c0 68 53 121 121 121s121 -53 121 -121s-53 -121 -121 -121s-121 53 -121 121zM181 694c0 -39 30 -70 69 -70s70 31 70 70s-31 69 -70 69s-69 -30 -69 -69z" />
    <glyph glyph-name="cedilla" unicode="&#xb8;" 
d="M146 -206v42c52 -11 92 -17 120 -17c39 0 59 13 59 40c0 35 -21 48 -67 48c-8 0 -17 0 -26 -1v94h36v-52h11c73 0 110 -30 110 -86c0 -58 -41 -89 -121 -89c-31 0 -72 8 -122 21z" />
    <glyph glyph-name="hungarumlaut" unicode="&#x2dd;" 
d="M157 582l72 170h77l-108 -170h-41zM283 582l82 170h76l-117 -170h-41z" />
    <glyph glyph-name="ogonek" unicode="&#x2db;" 
d="M289 0c-44 -40 -67 -75 -67 -109c0 -29 13 -40 47 -40h40v-63h-39c-73 0 -108 25 -108 80c0 48 31 85 91 132h36z" />
    <glyph glyph-name="caron" unicode="&#x2c7;" 
d="M110 752h52l88 -118l87 118h52l-96 -170h-87z" />
    <glyph glyph-name="emdash" unicode="&#x2014;" horiz-adv-x="1000" 
d="M0 239v48h1000v-48h-1000z" />
    <glyph glyph-name="AE" unicode="&#xc6;" horiz-adv-x="861" 
d="M846 72v-72h-446v211h-244l-127 -211h-81l415 694h474v-69h-356v-227h282v-69h-282v-257h365zM400 278v353l-203 -353h203z" />
    <glyph glyph-name="ordfeminine" unicode="&#xaa;" horiz-adv-x="392" 
d="M290 517c-15 1 -30 1 -45 1c-103 0 -156 -28 -156 -82c0 -39 30 -65 80 -65c67 0 121 57 121 127v19zM299 335c-6 20 -9 43 -9 68c-26 -48 -74 -76 -132 -76c-79 0 -132 46 -132 109c0 81 78 123 231 123c11 0 22 0 33 -1v23c0 54 -30 80 -96 80c-58 0 -92 -19 -102 -62
l-55 8c16 64 72 98 167 98c101 0 143 -45 143 -143v-154c0 -27 2 -51 10 -73h-58z" />
    <glyph glyph-name="Lslash" unicode="&#x141;" horiz-adv-x="475" 
d="M88 0v300l-79 -56v67l79 55v328h86v-279l157 112v-68l-157 -112v-271h317v-76h-403z" />
    <glyph glyph-name="Oslash" unicode="&#xd8;" horiz-adv-x="644" 
d="M166 160l282 419c-37 39 -78 58 -126 58c-116 0 -193 -105 -193 -289c0 -72 11 -134 37 -188zM24 -49l90 135c-51 67 -77 155 -77 262c0 223 118 360 285 360c66 0 123 -21 172 -62l66 98h58l-90 -133c53 -72 79 -158 79 -263c0 -223 -118 -361 -285 -361
c-70 0 -132 23 -175 64l-67 -100h-56zM194 119c31 -39 76 -60 128 -60c116 0 192 105 192 289c0 78 -13 141 -38 188z" />
    <glyph glyph-name="OE" unicode="&#x152;" horiz-adv-x="977" 
d="M517 0v72c-50 -56 -118 -85 -195 -85c-168 0 -285 138 -285 361c0 226 114 361 297 361c80 0 143 -25 183 -72v57h438v-69h-357v-225h281v-67h-281v-261h365v-72h-446zM517 193v328c-34 78 -94 119 -177 119c-134 0 -211 -103 -211 -292c0 -186 78 -289 199 -289
c82 0 151 47 189 134z" />
    <glyph glyph-name="ordmasculine" unicode="&#xba;" horiz-adv-x="396" 
d="M197 325c-102 0 -172 74 -172 190s70 190 172 190c103 0 174 -74 174 -190s-71 -190 -174 -190zM197 370c66 0 111 54 111 145c0 92 -44 145 -111 145c-66 0 -110 -53 -110 -145s44 -145 110 -145z" />
    <glyph glyph-name="ae" unicode="&#xe6;" horiz-adv-x="862" 
d="M404 120c-47 -89 -109 -132 -194 -132c-105 0 -176 65 -176 155c0 110 98 179 279 179c18 0 43 -2 74 -3v32c0 77 -41 115 -128 115c-78 0 -123 -28 -137 -89l-73 11c21 92 96 140 223 140c77 0 134 -27 166 -76c44 51 98 76 165 76c139 0 227 -100 227 -266v-11h-371v-7
c0 -123 56 -193 149 -193c66 0 116 35 142 100l72 -13c-36 -98 -112 -152 -213 -152c-98 0 -169 47 -205 134zM387 260c-21 2 -41 2 -60 2c-138 0 -209 -41 -209 -117c0 -56 40 -93 107 -93c90 0 162 80 162 181v27zM460 307h287c-5 103 -55 157 -144 157
c-76 0 -132 -57 -143 -157z" />
    <glyph glyph-name="dotlessi" unicode="&#x131;" horiz-adv-x="220" 
d="M72 0v514h76v-514h-76z" />
    <glyph glyph-name="lslash" unicode="&#x142;" horiz-adv-x="238" 
d="M81 0v303l-72 -50v60l72 50v331h76v-289l72 50v-61l-72 -50v-344h-76z" />
    <glyph glyph-name="oslash" unicode="&#xf8;" horiz-adv-x="528" 
d="M48 -69l67 109c-55 55 -82 128 -82 218c0 164 95 270 230 270c45 0 83 -10 115 -30l49 86h49l-64 -111c57 -55 83 -125 83 -216c0 -166 -95 -271 -232 -271c-43 0 -80 10 -114 30l-52 -85h-49zM183 77c22 -17 48 -27 80 -27c88 0 148 77 148 207c0 62 -12 111 -38 149z
M154 107l190 330c-22 18 -49 27 -81 27c-89 0 -147 -75 -147 -207c0 -62 12 -111 38 -150z" />
    <glyph glyph-name="oe" unicode="&#x153;" horiz-adv-x="896" 
d="M449 85c-47 -67 -107 -99 -186 -99c-136 0 -230 106 -230 271c0 166 94 271 230 271c77 0 140 -32 187 -97c45 65 107 97 184 97c140 0 229 -100 229 -266v-11h-375v-6c0 -124 57 -194 151 -194c67 0 117 35 143 100l73 -13c-37 -100 -112 -152 -221 -152
c-82 0 -142 33 -185 99zM116 257c0 -131 59 -207 147 -207s148 77 148 207c0 131 -59 207 -148 207s-147 -75 -147 -207zM490 307h290c-4 100 -58 157 -141 157c-84 0 -136 -55 -149 -157z" />
    <glyph glyph-name="germandbls" unicode="&#xdf;" horiz-adv-x="579" 
d="M94 -35v430h-54v66h54c3 156 87 245 223 245c106 0 178 -64 178 -145c0 -70 -45 -111 -139 -130c-50 -10 -81 -2 -81 -20c0 -14 39 -25 109 -51c119 -44 177 -103 177 -191c0 -102 -90 -184 -221 -184c-35 0 -68 4 -99 14l18 57c30 -7 57 -11 79 -11c86 0 141 52 141 123
c0 68 -57 94 -156 133c-75 29 -119 46 -119 100c0 24 9 43 27 61c122 9 182 42 182 101c0 46 -41 82 -104 82c-97 0 -140 -64 -140 -197v-483h-75z" />
    <glyph glyph-name="Aacute" unicode="&#xc1;" horiz-adv-x="558" 
d="M164 274h218l-110 341zM-1 0l230 694h99l227 -694h-84l-67 207h-262l-64 -207h-79zM212 763l102 170h87l-137 -170h-52z" />
    <glyph glyph-name="Acircumflex" unicode="&#xc2;" horiz-adv-x="558" 
d="M164 274h218l-110 341zM-1 0l230 694h99l227 -694h-84l-67 207h-262l-64 -207h-79zM139 763l96 170h87l96 -170h-52l-87 119l-88 -119h-52z" />
    <glyph glyph-name="Adieresis" unicode="&#xc4;" horiz-adv-x="558" 
d="M164 274h218l-110 341zM-1 0l230 694h99l227 -694h-84l-67 207h-262l-64 -207h-79zM162 794v92h78v-92h-78zM318 794v92h78v-92h-78z" />
    <glyph glyph-name="Agrave" unicode="&#xc0;" horiz-adv-x="558" 
d="M164 274h218l-110 341zM-1 0l230 694h99l227 -694h-84l-67 207h-262l-64 -207h-79zM294 763l-137 170h87l102 -170h-52z" />
    <glyph glyph-name="Aring" unicode="&#xc5;" horiz-adv-x="558" 
d="M159 845c0 66 52 119 118 119s119 -52 119 -118c0 -67 -52 -119 -119 -119c-66 0 -118 52 -118 118zM209 845c0 -38 30 -68 68 -68s68 29 68 68c0 38 -30 69 -68 69s-68 -31 -68 -69zM-1 0l230 694h99l227 -694h-84l-67 207h-262l-64 -207h-79zM164 274h218l-110 341z
" />
    <glyph glyph-name="Atilde" unicode="&#xc3;" horiz-adv-x="558" 
d="M164 274h218l-110 341zM-1 0l230 694h99l227 -694h-84l-67 207h-262l-64 -207h-79zM421 894c-15 -58 -48 -94 -97 -94c-11 0 -21 1 -32 5l-39 13c-9 3 -18 4 -26 4c-22 0 -37 -9 -47 -31h-43c14 60 48 91 96 91c11 0 21 -1 30 -4l38 -13c10 -3 20 -6 30 -6
c23 0 39 12 47 35h43z" />
    <glyph glyph-name="Ccedilla" unicode="&#xc7;" horiz-adv-x="601" 
d="M494 469c-22 109 -84 168 -172 168c-115 0 -193 -105 -193 -289s77 -289 193 -289c89 0 149 58 176 171l77 -17c-33 -148 -121 -226 -253 -226c-174 0 -285 135 -285 361c0 117 32 210 95 278c49 53 116 82 190 82c132 0 218 -76 251 -223zM207 -206v42
c52 -11 92 -17 120 -17c39 0 59 13 59 40c0 35 -21 48 -67 48c-8 0 -17 0 -26 -1v94h36v-52h11c73 0 110 -30 110 -86c0 -58 -41 -89 -121 -89c-31 0 -72 8 -122 21z" />
    <glyph glyph-name="Eacute" unicode="&#xc9;" horiz-adv-x="542" 
d="M79 0v694h440v-69h-357v-225h281v-67h-281v-261h366v-72h-449zM237 763l102 170h87l-137 -170h-52z" />
    <glyph glyph-name="Ecircumflex" unicode="&#xca;" horiz-adv-x="542" 
d="M79 0v694h440v-69h-357v-225h281v-67h-281v-261h366v-72h-449zM164 763l96 170h87l96 -170h-52l-87 119l-88 -119h-52z" />
    <glyph glyph-name="Edieresis" unicode="&#xcb;" horiz-adv-x="542" 
d="M79 0v694h440v-69h-357v-225h281v-67h-281v-261h366v-72h-449zM187 794v92h78v-92h-78zM343 794v92h78v-92h-78z" />
    <glyph glyph-name="Egrave" unicode="&#xc8;" horiz-adv-x="542" 
d="M79 0v694h440v-69h-357v-225h281v-67h-281v-261h366v-72h-449zM319 763l-137 170h87l102 -170h-52z" />
    <glyph glyph-name="Iacute" unicode="&#xcd;" horiz-adv-x="248" 
d="M81 0v694h86v-694h-86zM57 763l102 170h87l-137 -170h-52z" />
    <glyph glyph-name="Icircumflex" unicode="&#xce;" horiz-adv-x="248" 
d="M81 0v694h86v-694h-86zM-16 763l96 170h87l96 -170h-52l-87 119l-88 -119h-52z" />
    <glyph glyph-name="Idieresis" unicode="&#xcf;" horiz-adv-x="248" 
d="M81 0v694h86v-694h-86zM7 794v92h78v-92h-78zM163 794v92h78v-92h-78z" />
    <glyph glyph-name="Igrave" unicode="&#xcc;" horiz-adv-x="248" 
d="M81 0v694h86v-694h-86zM139 763l-137 170h87l102 -170h-52z" />
    <glyph glyph-name="Ntilde" unicode="&#xd1;" horiz-adv-x="667" 
d="M79 0v694h112l327 -572v572h70v-694h-85l-355 618v-618h-69zM481 894c-15 -58 -48 -94 -97 -94c-11 0 -21 1 -32 5l-39 13c-9 3 -18 4 -26 4c-22 0 -37 -9 -47 -31h-43c14 60 48 91 96 91c11 0 21 -1 30 -4l38 -13c10 -3 20 -6 30 -6c23 0 39 12 47 35h43z" />
    <glyph glyph-name="Oacute" unicode="&#xd3;" horiz-adv-x="644" 
d="M322 -13c-167 0 -285 138 -285 361s118 360 285 360s285 -137 285 -360s-118 -361 -285 -361zM322 59c116 0 192 105 192 289s-77 289 -192 289c-116 0 -193 -105 -193 -289s77 -289 193 -289zM255 763l102 170h87l-137 -170h-52z" />
    <glyph glyph-name="Ocircumflex" unicode="&#xd4;" horiz-adv-x="644" 
d="M322 -13c-167 0 -285 138 -285 361s118 360 285 360s285 -137 285 -360s-118 -361 -285 -361zM322 59c116 0 192 105 192 289s-77 289 -192 289c-116 0 -193 -105 -193 -289s77 -289 193 -289zM182 763l96 170h87l96 -170h-52l-87 119l-88 -119h-52z" />
    <glyph glyph-name="Odieresis" unicode="&#xd6;" horiz-adv-x="644" 
d="M322 -13c-167 0 -285 138 -285 361s118 360 285 360s285 -137 285 -360s-118 -361 -285 -361zM322 59c116 0 192 105 192 289s-77 289 -192 289c-116 0 -193 -105 -193 -289s77 -289 193 -289zM205 794v92h78v-92h-78zM361 794v92h78v-92h-78z" />
    <glyph glyph-name="Ograve" unicode="&#xd2;" horiz-adv-x="644" 
d="M322 -13c-167 0 -285 138 -285 361s118 360 285 360s285 -137 285 -360s-118 -361 -285 -361zM322 59c116 0 192 105 192 289s-77 289 -192 289c-116 0 -193 -105 -193 -289s77 -289 193 -289zM337 763l-137 170h87l102 -170h-52z" />
    <glyph glyph-name="Otilde" unicode="&#xd5;" horiz-adv-x="644" 
d="M322 -13c-167 0 -285 138 -285 361s118 360 285 360s285 -137 285 -360s-118 -361 -285 -361zM322 59c116 0 192 105 192 289s-77 289 -192 289c-116 0 -193 -105 -193 -289s77 -289 193 -289zM464 894c-15 -58 -48 -94 -97 -94c-11 0 -21 1 -32 5l-39 13
c-9 3 -18 4 -26 4c-22 0 -37 -9 -47 -31h-43c14 60 48 91 96 91c11 0 21 -1 30 -4l38 -13c10 -3 20 -6 30 -6c23 0 39 12 47 35h43z" />
    <glyph glyph-name="Scaron" unicode="&#x160;" horiz-adv-x="604" 
d="M25 190l83 16c28 -95 99 -147 198 -147s164 55 164 120c0 84 -58 107 -175 138c-66 17 -130 27 -186 78c-32 29 -50 70 -50 115c0 114 93 199 232 199c129 0 217 -62 254 -175l-81 -19c-24 79 -85 122 -173 122c-89 0 -144 -49 -144 -115c0 -32 15 -59 39 -75
c44 -29 96 -38 150 -53c150 -43 223 -91 223 -206c0 -118 -98 -201 -251 -201c-145 0 -244 72 -283 203zM162 933h52l88 -118l87 118h52l-96 -170h-87z" />
    <glyph glyph-name="Uacute" unicode="&#xda;" horiz-adv-x="628" 
d="M79 694h85v-441c0 -131 45 -194 154 -194c115 0 160 63 160 194v441h71v-441c0 -179 -75 -267 -238 -267c-161 0 -232 87 -232 267v441zM253 763l102 170h87l-137 -170h-52z" />
    <glyph glyph-name="Ucircumflex" unicode="&#xdb;" horiz-adv-x="628" 
d="M79 694h85v-441c0 -131 45 -194 154 -194c115 0 160 63 160 194v441h71v-441c0 -179 -75 -267 -238 -267c-161 0 -232 87 -232 267v441zM180 763l96 170h87l96 -170h-52l-87 119l-88 -119h-52z" />
    <glyph glyph-name="Udieresis" unicode="&#xdc;" horiz-adv-x="628" 
d="M79 694h85v-441c0 -131 45 -194 154 -194c115 0 160 63 160 194v441h71v-441c0 -179 -75 -267 -238 -267c-161 0 -232 87 -232 267v441zM203 794v92h78v-92h-78zM359 794v92h78v-92h-78z" />
    <glyph glyph-name="Ugrave" unicode="&#xd9;" horiz-adv-x="628" 
d="M79 694h85v-441c0 -131 45 -194 154 -194c115 0 160 63 160 194v441h71v-441c0 -179 -75 -267 -238 -267c-161 0 -232 87 -232 267v441zM335 763l-137 170h87l102 -170h-52z" />
    <glyph glyph-name="Ydieresis" unicode="&#x178;" horiz-adv-x="509" 
d="M215 0v293l-235 401h91l191 -334l190 334h82l-236 -404v-290h-83zM138 794v92h78v-92h-78zM294 794v92h78v-92h-78z" />
    <glyph glyph-name="Zcaron" unicode="&#x17d;" horiz-adv-x="514" 
d="M15 0v72l383 555h-365v67h464v-59l-390 -563h400v-72h-492zM117 933h52l88 -118l87 118h52l-96 -170h-87z" />
    <glyph glyph-name="aacute" unicode="&#xe1;" horiz-adv-x="523" 
d="M387 260c-21 2 -41 2 -60 2c-138 0 -209 -41 -209 -117c0 -56 40 -93 107 -93c90 0 162 81 162 181v27zM399 0c-8 29 -12 62 -12 97c-35 -69 -99 -109 -177 -109c-105 0 -176 66 -176 156c0 116 104 176 309 176c14 0 29 0 44 -1v32c0 77 -41 115 -128 115
c-78 0 -123 -28 -137 -89l-73 11c21 92 96 140 223 140c134 0 190 -64 190 -203v-220c0 -39 3 -73 14 -105h-77zM195 582l102 170h87l-137 -170h-52z" />
    <glyph glyph-name="acircumflex" unicode="&#xe2;" horiz-adv-x="523" 
d="M387 260c-21 2 -41 2 -60 2c-138 0 -209 -41 -209 -117c0 -56 40 -93 107 -93c90 0 162 81 162 181v27zM399 0c-8 29 -12 62 -12 97c-35 -69 -99 -109 -177 -109c-105 0 -176 66 -176 156c0 116 104 176 309 176c14 0 29 0 44 -1v32c0 77 -41 115 -128 115
c-78 0 -123 -28 -137 -89l-73 11c21 92 96 140 223 140c134 0 190 -64 190 -203v-220c0 -39 3 -73 14 -105h-77zM122 582l96 170h87l96 -170h-52l-87 119l-88 -119h-52z" />
    <glyph glyph-name="adieresis" unicode="&#xe4;" horiz-adv-x="523" 
d="M387 260c-21 2 -41 2 -60 2c-138 0 -209 -41 -209 -117c0 -56 40 -93 107 -93c90 0 162 81 162 181v27zM399 0c-8 29 -12 62 -12 97c-35 -69 -99 -109 -177 -109c-105 0 -176 66 -176 156c0 116 104 176 309 176c14 0 29 0 44 -1v32c0 77 -41 115 -128 115
c-78 0 -123 -28 -137 -89l-73 11c21 92 96 140 223 140c134 0 190 -64 190 -203v-220c0 -39 3 -73 14 -105h-77zM145 613v92h78v-92h-78zM301 613v92h78v-92h-78z" />
    <glyph glyph-name="agrave" unicode="&#xe0;" horiz-adv-x="523" 
d="M387 260c-21 2 -41 2 -60 2c-138 0 -209 -41 -209 -117c0 -56 40 -93 107 -93c90 0 162 81 162 181v27zM399 0c-8 29 -12 62 -12 97c-35 -69 -99 -109 -177 -109c-105 0 -176 66 -176 156c0 116 104 176 309 176c14 0 29 0 44 -1v32c0 77 -41 115 -128 115
c-78 0 -123 -28 -137 -89l-73 11c21 92 96 140 223 140c134 0 190 -64 190 -203v-220c0 -39 3 -73 14 -105h-77zM277 582l-137 170h87l102 -170h-52z" />
    <glyph glyph-name="aring" unicode="&#xe5;" horiz-adv-x="523" 
d="M387 260c-21 2 -41 2 -60 2c-138 0 -209 -41 -209 -117c0 -56 40 -93 107 -93c90 0 162 81 162 181v27zM399 0c-8 29 -12 62 -12 97c-35 -69 -99 -109 -177 -109c-105 0 -176 66 -176 156c0 116 104 176 309 176c14 0 29 0 44 -1v32c0 77 -41 115 -128 115
c-78 0 -123 -28 -137 -89l-73 11c21 92 96 140 223 140c134 0 190 -64 190 -203v-220c0 -39 3 -73 14 -105h-77zM141 681c0 68 53 121 121 121s121 -53 121 -121s-53 -121 -121 -121s-121 53 -121 121zM193 681c0 -39 30 -70 69 -70s70 31 70 70s-31 70 -70 70
s-69 -31 -69 -70z" />
    <glyph glyph-name="atilde" unicode="&#xe3;" horiz-adv-x="523" 
d="M387 260c-21 2 -41 2 -60 2c-138 0 -209 -41 -209 -117c0 -56 40 -93 107 -93c90 0 162 81 162 181v27zM399 0c-8 29 -12 62 -12 97c-35 -69 -99 -109 -177 -109c-105 0 -176 66 -176 156c0 116 104 176 309 176c14 0 29 0 44 -1v32c0 77 -41 115 -128 115
c-78 0 -123 -28 -137 -89l-73 11c21 92 96 140 223 140c134 0 190 -64 190 -203v-220c0 -39 3 -73 14 -105h-77zM404 713c-15 -58 -48 -94 -97 -94c-11 0 -21 1 -32 5l-39 13c-9 3 -18 4 -26 4c-22 0 -37 -9 -47 -31h-43c14 60 48 91 96 91c11 0 21 -1 30 -4l38 -13
c10 -3 20 -6 30 -6c23 0 39 12 47 35h43z" />
    <glyph glyph-name="ccedilla" unicode="&#xe7;" horiz-adv-x="479" 
d="M376 334c-10 82 -60 130 -120 130c-80 0 -140 -76 -140 -207c0 -129 57 -205 138 -205c62 0 109 45 125 126l69 -13c-20 -115 -93 -179 -197 -179c-129 0 -218 104 -218 271c0 165 94 271 230 271c98 0 168 -66 185 -183zM136 -206v42c52 -11 92 -17 120 -17
c39 0 59 13 59 40c0 35 -21 48 -67 48c-8 0 -17 0 -26 -1v94h36v-52h11c73 0 110 -30 110 -86c0 -58 -41 -89 -121 -89c-31 0 -72 8 -122 21z" />
    <glyph glyph-name="eacute" unicode="&#xe9;" horiz-adv-x="523" 
d="M117 307h290c-4 100 -57 157 -140 157c-84 0 -137 -55 -150 -157zM483 138c-36 -99 -113 -152 -220 -152c-138 0 -230 104 -230 271c0 164 95 271 230 271c138 0 227 -100 227 -266v-11h-374v-3c0 -125 60 -197 153 -197c64 0 115 36 141 100zM203 582l102 170h87
l-137 -170h-52z" />
    <glyph glyph-name="ecircumflex" unicode="&#xea;" horiz-adv-x="523" 
d="M117 307h290c-4 100 -57 157 -140 157c-84 0 -137 -55 -150 -157zM483 138c-36 -99 -113 -152 -220 -152c-138 0 -230 104 -230 271c0 164 95 271 230 271c138 0 227 -100 227 -266v-11h-374v-3c0 -125 60 -197 153 -197c64 0 115 36 141 100zM130 582l96 170h87l96 -170
h-52l-87 119l-88 -119h-52z" />
    <glyph glyph-name="edieresis" unicode="&#xeb;" horiz-adv-x="523" 
d="M117 307h290c-4 100 -57 157 -140 157c-84 0 -137 -55 -150 -157zM483 138c-36 -99 -113 -152 -220 -152c-138 0 -230 104 -230 271c0 164 95 271 230 271c138 0 227 -100 227 -266v-11h-374v-3c0 -125 60 -197 153 -197c64 0 115 36 141 100zM153 613v92h78v-92h-78z
M309 613v92h78v-92h-78z" />
    <glyph glyph-name="egrave" unicode="&#xe8;" horiz-adv-x="523" 
d="M117 307h290c-4 100 -57 157 -140 157c-84 0 -137 -55 -150 -157zM483 138c-36 -99 -113 -152 -220 -152c-138 0 -230 104 -230 271c0 164 95 271 230 271c138 0 227 -100 227 -266v-11h-374v-3c0 -125 60 -197 153 -197c64 0 115 36 141 100zM285 582l-137 170h87
l102 -170h-52z" />
    <glyph glyph-name="iacute" unicode="&#xed;" horiz-adv-x="220" 
d="M72 0v514h76v-514h-76zM43 582l102 170h87l-137 -170h-52z" />
    <glyph glyph-name="icircumflex" unicode="&#xee;" horiz-adv-x="220" 
d="M72 0v514h76v-514h-76zM-30 582l96 170h87l96 -170h-52l-87 119l-88 -119h-52z" />
    <glyph glyph-name="idieresis" unicode="&#xef;" horiz-adv-x="220" 
d="M72 0v514h76v-514h-76zM-7 613v92h78v-92h-78zM149 613v92h78v-92h-78z" />
    <glyph glyph-name="igrave" unicode="&#xec;" horiz-adv-x="220" 
d="M72 0v514h76v-514h-76zM125 582l-137 170h87l102 -170h-52z" />
    <glyph glyph-name="ntilde" unicode="&#xf1;" horiz-adv-x="537" 
d="M69 0v514h70v-95c42 74 95 109 166 109c109 0 167 -69 167 -203v-325h-74v332c0 85 -39 132 -106 132c-82 0 -148 -73 -148 -180v-284h-75zM416 713c-15 -58 -48 -94 -97 -94c-11 0 -21 1 -32 5l-39 13c-9 3 -18 4 -26 4c-22 0 -37 -9 -47 -31h-43c14 60 48 91 96 91
c11 0 21 -1 30 -4l38 -13c10 -3 20 -6 30 -6c23 0 39 12 47 35h43z" />
    <glyph glyph-name="oacute" unicode="&#xf3;" horiz-adv-x="528" 
d="M263 -14c-136 0 -230 106 -230 271c0 166 94 271 230 271c137 0 232 -105 232 -271c0 -165 -95 -271 -232 -271zM263 50c88 0 148 77 148 207c0 131 -59 207 -148 207s-147 -75 -147 -207c0 -131 59 -207 147 -207zM197 582l102 170h87l-137 -170h-52z" />
    <glyph glyph-name="ocircumflex" unicode="&#xf4;" horiz-adv-x="528" 
d="M263 -14c-136 0 -230 106 -230 271c0 166 94 271 230 271c137 0 232 -105 232 -271c0 -165 -95 -271 -232 -271zM263 50c88 0 148 77 148 207c0 131 -59 207 -148 207s-147 -75 -147 -207c0 -131 59 -207 147 -207zM124 582l96 170h87l96 -170h-52l-87 119l-88 -119h-52z
" />
    <glyph glyph-name="odieresis" unicode="&#xf6;" horiz-adv-x="528" 
d="M263 -14c-136 0 -230 106 -230 271c0 166 94 271 230 271c137 0 232 -105 232 -271c0 -165 -95 -271 -232 -271zM263 50c88 0 148 77 148 207c0 131 -59 207 -148 207s-147 -75 -147 -207c0 -131 59 -207 147 -207zM147 613v92h78v-92h-78zM303 613v92h78v-92h-78z" />
    <glyph glyph-name="ograve" unicode="&#xf2;" horiz-adv-x="528" 
d="M263 -14c-136 0 -230 106 -230 271c0 166 94 271 230 271c137 0 232 -105 232 -271c0 -165 -95 -271 -232 -271zM263 50c88 0 148 77 148 207c0 131 -59 207 -148 207s-147 -75 -147 -207c0 -131 59 -207 147 -207zM279 582l-137 170h87l102 -170h-52z" />
    <glyph glyph-name="otilde" unicode="&#xf5;" horiz-adv-x="528" 
d="M263 -14c-136 0 -230 106 -230 271c0 166 94 271 230 271c137 0 232 -105 232 -271c0 -165 -95 -271 -232 -271zM263 50c88 0 148 77 148 207c0 131 -59 207 -148 207s-147 -75 -147 -207c0 -131 59 -207 147 -207zM406 713c-15 -58 -48 -94 -97 -94c-11 0 -21 1 -32 5
l-39 13c-9 3 -18 4 -26 4c-22 0 -37 -9 -47 -31h-43c14 60 48 91 96 91c11 0 21 -1 30 -4l38 -13c10 -3 20 -6 30 -6c23 0 39 12 47 35h43z" />
    <glyph glyph-name="scaron" unicode="&#x161;" horiz-adv-x="454" 
d="M21 134l69 14c21 -63 75 -99 146 -99c72 0 116 37 116 87c0 63 -54 69 -148 92c-112 27 -164 60 -164 146c0 87 72 154 184 154c95 0 161 -46 186 -130l-71 -15c-16 53 -56 81 -118 81c-65 0 -104 -32 -104 -81c0 -64 58 -65 157 -90c107 -27 158 -68 158 -147
c0 -92 -78 -160 -196 -160c-113 0 -191 55 -215 148zM87 752h52l88 -118l87 118h52l-96 -170h-87z" />
    <glyph glyph-name="uacute" unicode="&#xfa;" horiz-adv-x="537" 
d="M468 514v-514h-70v95c-42 -74 -95 -109 -166 -109c-109 0 -167 69 -167 203v325h74v-332c0 -86 39 -132 106 -132c82 0 149 73 149 180v284h74zM203 582l102 170h87l-137 -170h-52z" />
    <glyph glyph-name="ucircumflex" unicode="&#xfb;" horiz-adv-x="537" 
d="M468 514v-514h-70v95c-42 -74 -95 -109 -166 -109c-109 0 -167 69 -167 203v325h74v-332c0 -86 39 -132 106 -132c82 0 149 73 149 180v284h74zM130 582l96 170h87l96 -170h-52l-87 119l-88 -119h-52z" />
    <glyph glyph-name="udieresis" unicode="&#xfc;" horiz-adv-x="537" 
d="M468 514v-514h-70v95c-42 -74 -95 -109 -166 -109c-109 0 -167 69 -167 203v325h74v-332c0 -86 39 -132 106 -132c82 0 149 73 149 180v284h74zM153 613v92h78v-92h-78zM309 613v92h78v-92h-78z" />
    <glyph glyph-name="ugrave" unicode="&#xf9;" horiz-adv-x="537" 
d="M468 514v-514h-70v95c-42 -74 -95 -109 -166 -109c-109 0 -167 69 -167 203v325h74v-332c0 -86 39 -132 106 -132c82 0 149 73 149 180v284h74zM285 582l-137 170h87l102 -170h-52z" />
    <glyph glyph-name="ydieresis" unicode="&#xff;" horiz-adv-x="421" 
d="M2 -184v67c24 -5 43 -8 59 -8c64 0 94 38 119 129l-183 510h77l144 -413l146 413h67l-201 -556c-39 -108 -81 -149 -170 -149c-19 0 -38 2 -58 7zM94 613v92h78v-92h-78zM250 613v92h78v-92h-78z" />
    <glyph glyph-name="zcaron" unicode="&#x17e;" horiz-adv-x="382" 
d="M9 0v65l267 384h-251v65h352v-42l-281 -407h288v-65h-375zM51 752h52l88 -118l87 118h52l-96 -170h-87z" />
    <glyph glyph-name="trademark" unicode="&#x2122;" horiz-adv-x="833" 
d="M339 711v-33h-84v-228h-46v228h-85v33h215zM463 711l78 -198l73 198h64v-261h-40v224l-84 -224h-26l-88 224v-224h-40v261h63z" />
    <glyph glyph-name="copyright" unicode="&#xa9;" horiz-adv-x="833" 
d="M416 713c97 0 187 -36 256 -105c67 -67 103 -157 103 -254c0 -98 -36 -186 -103 -252c-71 -69 -162 -107 -256 -107c-95 0 -183 37 -252 106s-106 158 -106 253s38 185 107 255c66 67 154 104 251 104zM733 354c0 85 -33 165 -92 224c-60 60 -139 92 -225 92
s-163 -32 -221 -91c-61 -62 -94 -142 -94 -225s33 -161 93 -222c60 -60 138 -93 222 -93c83 0 164 33 226 94c59 58 91 135 91 221zM520 445c-10 51 -49 80 -102 80c-75 0 -121 -61 -121 -172c0 -107 48 -168 121 -168c56 0 97 33 107 89h63c-7 -83 -77 -140 -173 -140
c-113 0 -188 83 -188 218c0 138 78 223 193 223c90 0 156 -54 163 -130h-63z" />
    <glyph glyph-name="logicalnot" unicode="&#xac;" horiz-adv-x="833" 
d="M709 419v-245h-56v188h-529v57h585z" />
    <glyph glyph-name="registered" unicode="&#xae;" horiz-adv-x="833" 
d="M416 713c98 0 187 -37 256 -106c67 -67 103 -157 103 -253c0 -98 -36 -186 -104 -252c-71 -69 -161 -107 -255 -107c-95 0 -184 38 -253 107c-68 68 -105 157 -105 252s38 186 108 256c66 67 153 103 250 103zM733 352c0 86 -32 166 -91 225c-61 61 -139 93 -226 93
c-85 0 -162 -31 -220 -90c-62 -62 -95 -142 -95 -226c0 -83 33 -161 93 -222s139 -93 221 -93c85 0 164 32 226 93c59 58 92 135 92 220zM426 565c114 0 171 -36 171 -113c0 -57 -36 -99 -96 -109l92 -188h-77l-86 178h-87v-178h-69v410h152zM413 520h-70v-142h72
c76 0 111 17 111 69c0 53 -36 73 -113 73z" />
    <glyph glyph-name="minus" unicode="&#x2212;" horiz-adv-x="833" 
d="M709 327v-58h-585v58h585z" />
    <glyph glyph-name="Eth" unicode="&#xd0;" horiz-adv-x="667" 
d="M171 72h132c149 0 235 99 235 275s-86 276 -238 276h-129v-228h174v-56h-174v-267zM88 0v339h-79v56h79v299h224c77 0 139 -17 185 -52c87 -66 134 -168 134 -295c0 -210 -129 -347 -331 -347h-212z" />
    <glyph glyph-name="Thorn" unicode="&#xde;" horiz-adv-x="566" 
d="M162 0h-83v694h83v-128h150c154 0 237 -77 237 -213c0 -116 -89 -201 -241 -201h-146v-152zM162 224h137c104 0 157 47 157 138c0 78 -55 132 -151 132h-143v-270z" />
    <glyph glyph-name="Yacute" unicode="&#xdd;" horiz-adv-x="509" 
d="M215 0v293l-235 401h91l191 -334l190 334h82l-236 -404v-290h-83zM188 763l102 170h87l-137 -170h-52z" />
    <glyph glyph-name="brokenbar" unicode="&#xa6;" 
d="M281 699v-370h-62v370h62zM281 199v-370h-62v370h62z" />
    <glyph glyph-name="degree" unicode="&#xb0;" horiz-adv-x="329" 
d="M165 710c76 0 138 -62 138 -138c0 -75 -61 -138 -139 -138c-77 0 -137 61 -137 138c0 78 62 138 138 138zM263 572c0 54 -43 98 -98 98c-54 0 -99 -43 -99 -98c0 -56 45 -99 99 -99c56 0 98 45 98 99z" />
    <glyph glyph-name="divide" unicode="&#xf7;" horiz-adv-x="833" 
d="M417 530c31 0 56 -25 56 -56c0 -30 -24 -56 -56 -56s-56 25 -56 56s26 56 56 56zM709 327v-57h-585v57h585zM417 178c30 0 56 -25 56 -56c0 -30 -24 -56 -56 -56c-31 0 -56 25 -56 56c0 32 26 56 56 56z" />
    <glyph glyph-name="eth" unicode="&#xf0;" horiz-adv-x="528" 
d="M263 50c88 0 148 74 148 198c0 125 -59 199 -148 199c-90 0 -147 -73 -147 -199c0 -125 58 -198 147 -198zM349 485c-24 39 -51 73 -83 104l-132 -73l-21 39l119 66c-14 13 -27 25 -39 36l46 52c22 -18 43 -35 61 -51l92 51l21 -39l-79 -43c107 -117 160 -242 160 -379
c0 -161 -93 -262 -231 -262c-137 0 -230 103 -230 262s95 262 226 262c32 0 61 -8 90 -25z" />
    <glyph glyph-name="mu" unicode="&#xb5;" horiz-adv-x="551" 
d="M177 522l-62 -291c-5 -22 -7 -44 -7 -67c0 -70 38 -111 106 -111c82 0 135 66 164 200l59 269h76l-79 -368c-7 -31 -11 -53 -11 -66c0 -21 12 -32 35 -32c2 0 8 0 17 1l-13 -61c-17 -4 -33 -5 -45 -5c-46 0 -67 22 -71 72c-26 -45 -78 -72 -141 -72c-56 0 -99 22 -128 67
l-55 -266h-76l154 730h77z" />
    <glyph glyph-name="multiply" unicode="&#xd7;" horiz-adv-x="833" 
d="M419 338l232 233l40 -40l-232 -233l232 -232l-40 -40l-232 232l-233 -232l-39 40l232 232l-232 233l39 40z" />
    <glyph glyph-name="onehalf" unicode="&#xbd;" horiz-adv-x="919" 
d="M53 306v39h131v299c-37 -36 -77 -64 -120 -83v47c60 28 104 60 133 94h39v-357h121v-39h-304zM209 -14l438 722h62l-438 -722h-62zM572 0v41c164 106 253 173 253 237c0 46 -40 80 -99 80c-56 0 -96 -34 -104 -89l-49 14c18 72 75 113 156 113c88 0 149 -50 149 -120
s-82 -138 -235 -235h239v-41h-310z" />
    <glyph glyph-name="onequarter" unicode="&#xbc;" horiz-adv-x="919" 
d="M53 306v39h131v299c-37 -36 -77 -64 -120 -83v47c60 28 104 60 133 94h39v-357h121v-39h-304zM209 -14l438 722h62l-438 -722h-62zM785 0v94h-217v29l199 273h65v-265h70v-37h-70v-94h-47zM785 131v229l-164 -229h164z" />
    <glyph glyph-name="onesuperior" unicode="&#xb9;" horiz-adv-x="394" 
d="M54 278v41h138v321c-39 -38 -80 -68 -125 -89v50c62 30 109 65 139 102h41v-384h126v-41h-319z" />
    <glyph glyph-name="plusminus" unicode="&#xb1;" horiz-adv-x="833" 
d="M446 576v-168h263v-57h-263v-168h-58v168h-264v57h264v168h58zM709 77v-57h-585v57h585z" />
    <glyph glyph-name="thorn" unicode="&#xfe;" horiz-adv-x="530" 
d="M69 -178v872h75v-269c36 68 89 103 153 103c111 0 198 -103 198 -267c0 -168 -89 -271 -203 -271c-60 0 -113 32 -148 92v-260h-75zM144 216c0 -101 55 -160 131 -160c83 0 137 73 137 203c0 128 -53 201 -134 201c-72 0 -134 -64 -134 -158v-86z" />
    <glyph glyph-name="threequarters" unicode="&#xbe;" horiz-adv-x="919" 
d="M12 396l51 14c18 -47 59 -72 118 -72c67 0 109 33 109 75c0 43 -43 76 -109 76h-59v39h54c62 0 100 29 100 70c0 38 -36 68 -90 68s-92 -22 -105 -62l-48 13c23 56 76 86 155 86c87 0 143 -45 143 -103c0 -44 -32 -77 -85 -89c63 -12 99 -49 99 -99
c0 -66 -62 -114 -164 -114c-87 0 -147 36 -169 98zM209 -14l438 722h62l-438 -722h-62zM785 0v94h-217v29l199 273h65v-265h70v-37h-70v-94h-47zM785 131v229l-164 -229h164z" />
    <glyph glyph-name="threesuperior" unicode="&#xb3;" horiz-adv-x="394" 
d="M13 375l53 14c19 -50 61 -77 124 -77c69 0 114 36 114 81s-45 81 -114 81h-63v42h57c65 0 105 31 105 75c0 41 -38 72 -94 72c-57 0 -96 -23 -110 -65l-51 13c25 61 80 92 163 92c91 0 150 -48 150 -110c0 -47 -33 -83 -90 -95c66 -13 105 -53 105 -106
c0 -71 -66 -122 -172 -122c-91 0 -154 38 -177 105z" />
    <glyph glyph-name="twosuperior" unicode="&#xb2;" horiz-adv-x="394" 
d="M30 278v44c172 113 265 185 265 254c0 49 -42 85 -103 85c-59 0 -101 -36 -109 -95l-52 15c19 77 79 122 164 122c92 0 155 -55 155 -130s-85 -147 -246 -251h251v-44h-325z" />
    <glyph glyph-name="yacute" unicode="&#xfd;" horiz-adv-x="421" 
d="M2 -184v67c24 -5 43 -8 59 -8c64 0 94 38 119 129l-183 510h77l144 -413l146 413h67l-201 -556c-39 -108 -81 -149 -170 -149c-19 0 -38 2 -58 7zM144 582l102 170h87l-137 -170h-52z" />
  </font>
</defs>
</svg>
