<?xml version="1.0" encoding="utf-8"?>
<!-- Generator: Adobe Illustrator 15.0.0, SVG Export Plug-In . SVG Version: 6.00 Build 0)  -->
<!DOCTYPE svg PUBLIC "-//W3C//DTD SVG 1.1//EN" "http://www.w3.org/Graphics/SVG/1.1/DTD/svg11.dtd">
<svg version="1.1" id="Layer_1" xmlns="http://www.w3.org/2000/svg" xmlns:xlink="http://www.w3.org/1999/xlink" x="0px" y="0px"
	 width="20.918px" height="22.897px" viewBox="0 0 20.918 22.897" enable-background="new 0 0 20.918 22.897" xml:space="preserve">
<g>
	<path fill="#6E6F71" d="M0,21.697c0-0.307,0.117-0.614,0.352-0.849l10.11-10.104l10.104,10.104c0.469,0.469,0.469,1.229,0,1.697
		s-1.229,0.469-1.697,0l-8.408-8.407l-8.413,8.407c-0.469,0.469-1.229,0.468-1.696-0.001C0.117,22.311,0,22.004,0,21.697z"/>
	<path fill="#6E6F71" d="M0,10.955c0-0.307,0.117-0.614,0.352-0.849L10.462,0l10.104,10.106c0.469,0.469,0.469,1.229,0,1.697
		s-1.229,0.468-1.697,0l-8.408-8.409l-8.413,8.409c-0.469,0.469-1.229,0.468-1.696-0.001C0.117,11.569,0,11.262,0,10.955z"/>
</g>
</svg>
