<?xml version="1.0" encoding="utf-8"?>
<!-- Generator: Adobe Illustrator 15.0.0, SVG Export Plug-In . SVG Version: 6.00 Build 0)  -->
<!DOCTYPE svg PUBLIC "-//W3C//DTD SVG 1.1//EN" "http://www.w3.org/Graphics/SVG/1.1/DTD/svg11.dtd">
<svg version="1.1" id="Layer_1" xmlns="http://www.w3.org/2000/svg" xmlns:xlink="http://www.w3.org/1999/xlink" x="0px" y="0px"
	 width="22.896px" height="20.918px" viewBox="0 0 22.896 20.918" enable-background="new 0 0 22.896 20.918" xml:space="preserve">
<g>
	<path fill="#6E6F71" d="M21.696,20.918c-0.307,0-0.614-0.117-0.849-0.352l-10.104-10.11L20.848,0.352
		c0.469-0.469,1.229-0.469,1.697,0s0.469,1.229,0,1.697l-8.407,8.408l8.407,8.413c0.469,0.469,0.469,1.229,0,1.696
		C22.311,20.801,22.004,20.918,21.696,20.918z"/>
	<path fill="#6E6F71" d="M10.954,20.918c-0.307,0-0.614-0.117-0.849-0.352L0,10.456L10.105,0.352c0.469-0.469,1.229-0.469,1.697,0
		s0.469,1.229,0,1.697l-8.409,8.408l8.409,8.413c0.469,0.469,0.469,1.229,0,1.696C11.568,20.801,11.262,20.918,10.954,20.918z"/>
</g>
</svg>
