<?xml version="1.0" encoding="utf-8"?>
<!-- Generator: Adobe Illustrator 15.0.0, SVG Export Plug-In . SVG Version: 6.00 Build 0)  -->
<!DOCTYPE svg PUBLIC "-//W3C//DTD SVG 1.1//EN" "http://www.w3.org/Graphics/SVG/1.1/DTD/svg11.dtd">
<svg version="1.1" id="Layer_1" xmlns="http://www.w3.org/2000/svg" xmlns:xlink="http://www.w3.org/1999/xlink" x="0px" y="0px"
	 width="61.199px" height="61.199px" viewBox="3.4 3.4 61.199 61.199" enable-background="new 3.4 3.4 61.199 61.199"
	 xml:space="preserve">
<g>
	<g>
		<g>
			<path fill="#424243" d="M64.6,34C64.6,50.9,50.9,64.6,33.999,64.6C17.099,64.6,3.4,50.9,3.4,34C3.4,17.103,17.099,3.4,33.999,3.4
				C50.9,3.4,64.6,17.103,64.6,34z"/>
		</g>
		<g>
			<path fill="#FFFFFF" d="M32.042,18.206c2.383,0,4.317-1.938,4.317-4.316c0-2.381-1.933-4.314-4.317-4.314
				c-2.381,0-4.312,1.932-4.312,4.314C27.73,16.268,29.661,18.206,32.042,18.206z"/>
			<path fill="#FFFFFF" d="M42.539,34.38c0-2.021-0.908-3.832-2.355-5.027l-0.005-0.003c-4.973-4.31-3.145-5.706-4.636-7.496H35.54
				c-0.782-1.082-2.054-1.796-3.498-1.796c-2.13,0-3.897,1.551-4.249,3.586l0,0l-0.011,0.066c-0.019,0.143-0.031,0.289-0.037,0.438
				l-2.292,22.228h5.378V56.5c0.016,1.067,0.868,1.925,1.927,1.925c1.063,0,1.923-0.857,1.923-1.925V46.375h5.379l-1.042-6.201
				C41.11,39.086,42.539,36.902,42.539,34.38z M39.045,36.645c-0.25,0.478-0.73,0.748-1.237,0.748c-0.222,0-0.441-0.044-0.653-0.156
				l-6.393-3.275c-0.45-0.238-0.731-0.684-0.76-1.189l-0.373-9.07c0-0.016,0.007-0.035,0.007-0.048c0-0.018-0.007-0.031-0.007-0.041
				c0-0.059,0.015-0.109,0.018-0.164c0-0.014,0-0.026,0.003-0.039c0.1-0.801,0.771-1.42,1.598-1.42c0.891,0,1.615,0.729,1.615,1.623
				c-0.028,1.807-0.116,6.8-0.1,8.238l5.684,2.904C39.135,35.111,39.407,35.96,39.045,36.645z"/>
		</g>
	</g>
</g>
</svg>
