<?xml version="1.0" encoding="utf-8"?>
<!-- Generator: Adobe Illustrator 16.0.3, SVG Export Plug-In . SVG Version: 6.00 Build 0)  -->
<!DOCTYPE svg PUBLIC "-//W3C//DTD SVG 1.1//EN" "http://www.w3.org/Graphics/SVG/1.1/DTD/svg11.dtd">
<svg version="1.1" id="Layer_1" xmlns="http://www.w3.org/2000/svg" xmlns:xlink="http://www.w3.org/1999/xlink" x="0px" y="0px"
	 width="24px" height="24px" viewBox="0 0 24 24" enable-background="new 0 0 24 24" xml:space="preserve">
<g>
	<path fill="#F1F1F2" d="M24,12c0,6.561-5.316,11.875-11.875,11.875C5.563,23.875,0.25,18.561,0.25,12
		c0-6.559,5.314-11.875,11.875-11.875C18.684,0.125,24,5.441,24,12z"/>
	<path fill="#424142" d="M15.982,18.434c-0.078,0-0.155-0.02-0.229-0.058l-3.63-1.906l-3.629,1.906
		c-0.165,0.088-0.369,0.073-0.521-0.038c-0.152-0.111-0.229-0.298-0.197-0.484l0.695-4.039l-2.938-2.86
		c-0.135-0.132-0.184-0.328-0.126-0.507c0.059-0.18,0.213-0.311,0.399-0.338l4.058-0.59l1.815-3.674c0.166-0.34,0.721-0.34,0.887,0
		l1.815,3.674l4.058,0.59c0.187,0.027,0.342,0.158,0.399,0.338s0.011,0.376-0.125,0.507l-2.938,2.86l0.693,4.039
		c0.032,0.188-0.044,0.373-0.195,0.484C16.188,18.4,16.086,18.434,15.982,18.434z"/>
</g>
</svg>
