<?xml version="1.0" encoding="utf-8"?>
<!-- Generator: Adobe Illustrator 15.0.0, SVG Export Plug-In . SVG Version: 6.00 Build 0)  -->
<!DOCTYPE svg PUBLIC "-//W3C//DTD SVG 1.1//EN" "http://www.w3.org/Graphics/SVG/1.1/DTD/svg11.dtd">
<svg version="1.1" id="Layer_1" xmlns="http://www.w3.org/2000/svg" xmlns:xlink="http://www.w3.org/1999/xlink" x="0px" y="0px"
	 width="36px" height="29.201px" viewBox="0 0 36 29.201" enable-background="new 0 0 36 29.201" xml:space="preserve">
<path fill="#424142" d="M31.781,4.627c1.613-0.991,2.684-2.348,3.209-4.069c-1.572,0.834-3.139,1.406-4.701,1.722
	C28.883,0.768,27.102,0,24.969,0c-2.085,0-3.847,0.732-5.286,2.155c-1.43,1.435-2.151,3.177-2.151,5.21
	c0,0.617,0.078,1.17,0.233,1.639C11.613,8.795,6.521,6.24,2.51,1.33C1.83,2.531,1.49,3.756,1.49,5.021
	c0,2.602,1.098,4.664,3.29,6.178c-1.25-0.105-2.353-0.422-3.29-0.939c0,1.857,0.546,3.41,1.64,4.774
	c1.098,1.353,2.508,2.216,4.229,2.583c-0.623,0.159-1.281,0.235-1.957,0.235c-0.624,0-1.066-0.053-1.328-0.165
	c0.46,1.514,1.328,2.741,2.582,3.682c1.25,0.942,2.688,1.442,4.303,1.485c-2.664,2.089-5.709,3.124-9.155,3.124
	C0.96,25.979,0.362,25.967,0,25.9c3.394,2.207,7.172,3.301,11.352,3.301c4.277,0,8.058-1.084,11.349-3.254
	c3.288-2.156,5.716-4.815,7.276-7.945c1.565-3.13,2.344-6.385,2.344-9.783V7.281c1.516-1.141,2.742-2.424,3.68-3.842
	C34.641,4.025,33.234,4.424,31.781,4.627z"/>
</svg>
