<?xml version="1.0" standalone="no"?>
<!DOCTYPE svg PUBLIC "-//W3C//DTD SVG 1.1//EN" "http://www.w3.org/Graphics/SVG/1.1/DTD/svg11.dtd" >
<svg xmlns="http://www.w3.org/2000/svg" xmlns:xlink="http://www.w3.org/1999/xlink" version="1.1">
<metadata>
Created by FontForge 20141024 at Thu May 28 06:47:12 2015
 By Jimmy Warting
Copyright 1990 as an unpublished work by Bitstream Inc.  All rights reserved.  Confidential.
</metadata>
<defs>
<font id="FranklinGothicITCbyBT-BookItal" horiz-adv-x="500" >
  <font-face 
    font-family="ITC Franklin Gothic"
    font-weight="400"
    font-style="italic"
    font-stretch="normal"
    units-per-em="1000"
    panose-1="2 0 5 3 0 0 0 0 0 0"
    ascent="800"
    descent="-200"
    x-height="514"
    cap-height="694"
    bbox="-230 -236 1096 964"
    underline-thickness="46"
    underline-position="-89"
    slope="10"
    stemh="63"
    stemv="75"
    unicode-range="U+0020-FB02"
  />
    <missing-glyph />
    <glyph glyph-name="space" unicode=" " horiz-adv-x="301" 
 />
    <glyph glyph-name="exclam" unicode="!" horiz-adv-x="306" 
d="M109 180l48 514h110l-118 -514h-40zM42 0l18 100h103l-17 -100h-104z" />
    <glyph glyph-name="quotedbl" unicode="&#x22;" horiz-adv-x="288" 
d="M103 700v-270h-57v270h57zM242 700v-270h-58v270h58z" />
    <glyph glyph-name="numbersign" unicode="#" horiz-adv-x="769" 
d="M450 711l-81 -230h127l82 230h70l-80 -230h150l-21 -60h-152l-46 -133h161l-21 -60h-162l-81 -229h-71l82 229h-129l-82 -229h-70l81 229h-156l21 60h156l47 133h-167l21 60h168l82 230h71zM475 421h-129l-46 -133h128z" />
    <glyph glyph-name="dollar" unicode="$" horiz-adv-x="602" 
d="M210 -95l17 108c-96 22 -161 76 -194 163l71 33c29 -72 72 -113 134 -126l38 247c-113 24 -173 86 -173 176c0 108 88 186 232 187l14 91h52l-15 -96c86 -13 147 -56 179 -127l-68 -31c-29 53 -67 87 -121 96l-36 -229c130 -25 199 -91 199 -178
c0 -124 -96 -212 -253 -212h-8l-16 -102h-52zM289 75h16c93 0 151 51 151 122c0 66 -43 108 -129 121zM290 410l35 221c-91 0 -146 -47 -146 -113c0 -55 38 -94 111 -108z" />
    <glyph glyph-name="percent" unicode="%" horiz-adv-x="762" 
d="M556 -14c-94 0 -154 63 -154 159c0 119 78 207 172 207c88 0 149 -65 149 -163c0 -116 -76 -203 -167 -203zM463 139c0 -63 36 -104 88 -104c61 0 110 64 110 162c0 65 -36 104 -88 104c-59 0 -110 -67 -110 -162zM137 -14h-66l560 722h67zM199 342
c-94 0 -155 64 -155 160c0 119 78 206 172 206c88 0 150 -65 150 -163c0 -116 -76 -203 -167 -203zM106 495c0 -63 36 -103 88 -103c61 0 110 63 110 161c0 65 -36 105 -88 105c-59 0 -110 -68 -110 -163z" />
    <glyph glyph-name="ampersand" unicode="&#x26;" horiz-adv-x="669" 
d="M420 53c-56 -43 -114 -64 -181 -64c-130 0 -212 80 -212 194c0 104 76 188 221 231l-16 34c-19 41 -31 76 -31 111c0 87 68 149 162 149c96 0 160 -59 160 -141c0 -80 -61 -140 -184 -185l105 -226c61 64 111 139 145 222l64 -24c-43 -97 -102 -182 -174 -255
c13 -31 39 -48 73 -48c14 0 31 2 53 8l-9 -61c-21 -8 -40 -12 -59 -12c-50 0 -88 21 -117 67zM389 107l-118 255c-105 -39 -157 -92 -157 -169c0 -81 59 -140 137 -140c46 0 91 18 138 54zM318 437c89 26 135 72 135 129c0 50 -38 86 -91 86c-50 0 -88 -39 -88 -91
c0 -20 7 -43 19 -70z" />
    <glyph glyph-name="quoteright" unicode="&#x2019;" horiz-adv-x="255" 
d="M91 454l79 126h-49l20 114h106l-18 -103l-98 -137h-40z" />
    <glyph glyph-name="parenleft" unicode="(" horiz-adv-x="324" 
d="M161 -129c-64 113 -96 228 -96 340c0 174 79 345 235 497h59c-148 -153 -226 -340 -226 -536c0 -109 24 -210 73 -301h-45z" />
    <glyph glyph-name="parenright" unicode=")" horiz-adv-x="324" 
d="M135 708c64 -114 96 -228 96 -340c0 -174 -79 -346 -235 -498h-59c148 153 225 341 225 537c0 109 -24 210 -72 301h45z" />
    <glyph glyph-name="asterisk" unicode="*" 
d="M277 459l-84 -144l-63 47l111 123l-161 37l23 73l152 -68l-12 167h67l-11 -167l151 68l24 -73l-162 -37l112 -123l-64 -47z" />
    <glyph glyph-name="plus" unicode="+" horiz-adv-x="833" 
d="M446 596v-269h263v-57h-263v-270h-58v270h-264v57h264v269h58z" />
    <glyph glyph-name="comma" unicode="," horiz-adv-x="301" 
d="M-4 -158l95 153h-53l21 121h113l-19 -109l-118 -165h-39z" />
    <glyph glyph-name="hyphen" unicode="-" horiz-adv-x="347" 
d="M37 231l11 65h232l-11 -65h-232z" />
    <glyph glyph-name="period" unicode="." horiz-adv-x="301" 
d="M38 0l22 120h113l-22 -120h-113z" />
    <glyph glyph-name="slash" unicode="/" horiz-adv-x="278" 
d="M302 708l-296 -801h-59l295 801h60z" />
    <glyph glyph-name="zero" unicode="0" horiz-adv-x="602" 
d="M272 -14c-140 0 -239 112 -239 282c0 139 40 260 115 352c45 56 115 89 187 89c137 0 235 -112 235 -287c0 -126 -35 -241 -99 -328c-52 -71 -122 -108 -199 -108zM116 257c0 -130 62 -207 153 -207c119 0 216 150 216 396c0 122 -62 199 -152 199
c-49 0 -94 -26 -128 -74c-54 -77 -89 -192 -89 -314z" />
    <glyph glyph-name="one" unicode="1" horiz-adv-x="602" 
d="M19 0l12 65h203l94 533c-40 -48 -111 -80 -206 -86l13 72c109 16 183 54 229 124h66l-113 -643h214l-12 -65h-500z" />
    <glyph glyph-name="two" unicode="2" horiz-adv-x="602" 
d="M6 0l10 87c303 179 461 290 461 414c0 81 -61 142 -147 142c-85 0 -148 -54 -180 -159l-69 27c41 127 135 198 256 198c134 0 226 -90 226 -212c0 -82 -44 -149 -135 -219c-72 -55 -179 -121 -319 -204h400l-13 -74h-490z" />
    <glyph glyph-name="three" unicode="3" horiz-adv-x="602" 
d="M77 186c34 -88 97 -131 188 -131c99 0 165 63 165 148c0 76 -57 127 -152 127h-84l10 68h62c126 0 189 41 189 123c0 70 -56 123 -139 123c-67 0 -121 -37 -155 -107l-65 32c47 93 126 140 229 140c130 0 217 -79 217 -181c0 -84 -54 -145 -154 -164
c82 -24 128 -84 128 -164c0 -119 -104 -214 -254 -214c-120 0 -210 61 -253 171z" />
    <glyph glyph-name="four" unicode="4" horiz-adv-x="602" 
d="M327 0l30 171h-335l11 65l393 472h99l-83 -472h116l-11 -65h-116l-31 -171h-73zM368 236l70 395l-328 -395h258z" />
    <glyph glyph-name="five" unicode="5" horiz-adv-x="602" 
d="M104 176c33 -78 97 -122 175 -122c105 0 181 76 181 182c0 98 -68 168 -157 168c-60 0 -110 -32 -143 -94l-74 23l78 361h409l-26 -74h-328l-50 -225c40 50 93 76 158 76c123 0 217 -96 217 -230c0 -147 -112 -255 -267 -255c-113 0 -205 61 -243 161z" />
    <glyph glyph-name="six" unicode="6" horiz-adv-x="602" 
d="M143 214c0 -92 68 -161 164 -161c92 0 163 75 163 176c0 94 -64 160 -153 160c-97 0 -174 -78 -174 -175zM138 338c41 79 109 121 191 121c131 0 225 -93 225 -223c0 -49 -13 -96 -39 -136c-48 -74 -123 -113 -215 -113c-146 0 -249 113 -249 298c0 123 42 239 109 319
c58 69 128 103 211 103c108 0 186 -55 225 -157l-77 -17c-25 71 -77 108 -147 108c-114 0 -200 -104 -234 -303z" />
    <glyph glyph-name="seven" unicode="7" horiz-adv-x="602" 
d="M154 0c25 249 140 456 343 620h-392l23 74h466l-8 -58c-214 -190 -326 -395 -339 -636h-93z" />
    <glyph glyph-name="eight" unicode="8" horiz-adv-x="602" 
d="M226 366c-77 32 -116 85 -116 155c0 109 92 187 245 187c127 0 217 -79 217 -171c0 -73 -57 -133 -165 -167c94 -41 142 -103 142 -181c0 -112 -103 -202 -260 -202c-155 0 -257 87 -257 195c0 90 66 155 194 184zM296 335c-122 -31 -183 -84 -183 -154
c0 -75 68 -131 172 -131c108 0 177 57 177 129c0 65 -55 113 -166 156zM332 400c104 27 159 77 159 139c0 58 -59 109 -150 109s-147 -51 -147 -117c0 -59 44 -96 138 -131z" />
    <glyph glyph-name="nine" unicode="9" horiz-adv-x="602" 
d="M478 353c-41 -77 -108 -118 -192 -118c-126 0 -222 95 -222 223c0 50 14 98 42 139c48 71 122 110 208 110c148 0 252 -113 252 -286c0 -133 -42 -252 -114 -334c-58 -66 -127 -99 -208 -99c-103 0 -182 51 -217 138l66 31c31 -68 83 -104 149 -104
c112 0 200 104 236 300zM476 477c0 95 -70 164 -162 164c-94 0 -166 -77 -166 -174s63 -162 153 -162c97 0 175 80 175 172z" />
    <glyph glyph-name="colon" unicode=":" horiz-adv-x="301" 
d="M38 0l22 120h113l-22 -120h-113zM107 394l21 120h113l-21 -120h-113z" />
    <glyph glyph-name="semicolon" unicode=";" horiz-adv-x="301" 
d="M108 394l21 120h113l-21 -120h-113zM-4 -158l95 153h-53l21 121h113l-19 -109l-118 -165h-39z" />
    <glyph glyph-name="less" unicode="&#x3c;" horiz-adv-x="833" 
d="M704 497l-488 -199l488 -198v-63l-575 236v50l575 236v-62z" />
    <glyph glyph-name="equal" unicode="=" horiz-adv-x="833" 
d="M709 420v-57h-585v57h585zM709 233v-57h-585v57h585z" />
    <glyph glyph-name="greater" unicode="&#x3e;" horiz-adv-x="833" 
d="M704 323v-50l-575 -236v63l488 198l-488 199v62z" />
    <glyph glyph-name="question" unicode="?" horiz-adv-x="502" 
d="M144 181l12 72c8 46 27 76 66 99c57 34 104 49 122 67c37 35 57 64 57 109c0 68 -51 115 -126 115c-83 0 -140 -47 -168 -140l-71 30c44 117 124 175 240 175c124 0 212 -79 212 -184c0 -102 -58 -157 -176 -205c-53 -22 -77 -31 -89 -98l-7 -40h-72zM101 0l18 100h103
l-18 -100h-103z" />
    <glyph glyph-name="at" unicode="@" horiz-adv-x="1000" 
d="M587 231l29 118c-11 59 -49 93 -101 93c-96 0 -167 -98 -167 -224c0 -72 35 -112 96 -112c65 0 124 49 143 125zM631 412l28 59h54l-69 -277c-4 -16 -6 -29 -6 -39c0 -29 18 -44 54 -44c26 0 65 14 99 43c56 48 93 130 93 220c0 170 -135 288 -349 288
c-109 0 -204 -34 -279 -100c-92 -80 -138 -186 -138 -311c0 -112 38 -196 121 -261c64 -51 157 -82 261 -82c111 0 220 32 308 92l22 -32c-96 -72 -205 -108 -322 -108c-124 0 -227 30 -305 90c-99 76 -148 176 -148 305c0 107 34 203 98 282c94 114 228 175 392 175
c110 0 208 -31 273 -82c84 -65 128 -152 128 -250c0 -112 -43 -204 -120 -266c-45 -36 -98 -55 -152 -55c-64 0 -97 25 -97 76c0 3 1 7 1 11c-33 -57 -84 -87 -145 -87c-100 0 -153 57 -153 162c0 153 104 268 229 268c59 0 100 -26 122 -77z" />
    <glyph glyph-name="A" unicode="A" horiz-adv-x="525" 
d="M147 280h213l-54 326zM-66 0l341 694h91l122 -694h-79l-36 208h-260l-101 -208h-78z" />
    <glyph glyph-name="B" unicode="B" horiz-adv-x="650" 
d="M112 69h210c115 0 175 49 175 138c0 84 -55 123 -166 123h-173zM170 397h183c113 0 175 49 175 128c0 66 -45 102 -131 102h-186zM18 0l123 694h258c143 0 217 -56 217 -163c0 -81 -53 -142 -147 -165c78 -29 118 -83 118 -161c0 -128 -90 -205 -256 -205h-313z" />
    <glyph glyph-name="C" unicode="C" horiz-adv-x="583" 
d="M548 197c-50 -137 -146 -211 -269 -211c-140 0 -245 118 -245 301c0 121 43 239 117 325c55 64 125 97 206 97c135 0 223 -83 240 -231l-77 -18c-15 117 -71 178 -161 178c-55 0 -109 -27 -146 -74c-53 -67 -88 -171 -88 -281c0 -143 66 -226 164 -226
c78 0 142 56 189 166z" />
    <glyph glyph-name="D" unicode="D" horiz-adv-x="657" 
d="M22 0l122 694h184c191 0 294 -110 294 -307c0 -121 -41 -227 -113 -302c-59 -62 -132 -85 -233 -85h-254zM117 72h147c68 0 119 11 165 50c61 51 103 150 103 273c0 159 -69 229 -219 229h-99z" />
    <glyph glyph-name="E" unicode="E" horiz-adv-x="572" 
d="M18 0l123 694h457l-13 -69h-374l-40 -226h321l-12 -68h-321l-46 -259h404l-13 -72h-486z" />
    <glyph glyph-name="F" unicode="F" horiz-adv-x="519" 
d="M18 0l123 694h450l-13 -69h-367l-40 -226h314l-12 -68h-314l-59 -331h-82z" />
    <glyph glyph-name="G" unicode="G" horiz-adv-x="650" 
d="M476 74c-50 -59 -115 -88 -197 -88c-140 0 -245 118 -245 301c0 121 43 239 117 325c55 64 126 97 206 97c124 0 218 -73 255 -199l-75 -24c-26 97 -92 152 -177 152c-56 0 -110 -27 -147 -74c-53 -67 -88 -171 -88 -281c0 -147 67 -229 178 -229c112 0 183 79 198 228
h-179l12 67h262l-63 -356h-48z" />
    <glyph glyph-name="H" unicode="H" horiz-adv-x="657" 
d="M18 0l123 694h82l-52 -292h334l52 292h82l-122 -694h-83l58 330h-333l-59 -330h-82z" />
    <glyph glyph-name="I" unicode="I" horiz-adv-x="243" 
d="M225 694l-122 -694h-85l123 694h84z" />
    <glyph glyph-name="J" unicode="J" horiz-adv-x="380" 
d="M-69 -2l16 70c27 -6 55 -9 83 -9c114 0 145 60 170 201l78 434h85l-82 -465c-30 -169 -99 -244 -248 -244c-33 0 -67 4 -102 13z" />
    <glyph glyph-name="K" unicode="K" horiz-adv-x="576" 
d="M18 0l123 694h82l-69 -392l383 392h97l-238 -241l159 -453h-85l-136 392l-200 -203l-34 -189h-82z" />
    <glyph glyph-name="L" unicode="L" horiz-adv-x="498" 
d="M18 0l123 694h82l-110 -622h350l-12 -72h-433z" />
    <glyph glyph-name="M" unicode="M" horiz-adv-x="826" 
d="M18 0l123 694h120l114 -584l300 584h134l-123 -694h-82l114 643l-333 -643h-62l-122 632l-112 -632h-71z" />
    <glyph glyph-name="N" unicode="N" horiz-adv-x="670" 
d="M18 0l123 694h95l245 -565l100 565h71l-123 -694h-70l-263 606l-107 -606h-71z" />
    <glyph glyph-name="O" unicode="O" horiz-adv-x="650" 
d="M124 282c0 -136 73 -223 173 -223c63 0 119 36 162 106c40 64 67 159 67 259c0 133 -71 215 -175 215c-54 0 -105 -26 -142 -75c-52 -69 -85 -172 -85 -282zM298 -13c-155 0 -264 122 -264 306c0 125 41 237 115 320c54 61 128 95 205 95c155 0 262 -119 262 -300
c0 -111 -32 -214 -93 -298c-58 -81 -137 -123 -225 -123z" />
    <glyph glyph-name="P" unicode="P" horiz-adv-x="567" 
d="M18 0l123 694h212c141 0 217 -69 217 -190c0 -139 -97 -222 -277 -222h-143l-50 -282h-82zM162 351h148c109 0 169 54 169 145c0 86 -49 129 -147 129h-121z" />
    <glyph glyph-name="Q" unicode="Q" horiz-adv-x="650" 
d="M124 282c0 -136 73 -223 173 -223c63 0 119 36 162 106c40 64 67 159 67 259c0 133 -71 215 -175 215c-54 0 -105 -26 -142 -75c-52 -69 -85 -172 -85 -282zM487 -158c-34 -7 -60 -9 -81 -9c-96 0 -140 34 -140 118c0 10 1 23 3 38c-140 13 -235 132 -235 304
c0 124 41 237 115 320c54 61 128 95 205 95c155 0 262 -119 262 -300c0 -148 -57 -280 -150 -360c-36 -32 -81 -50 -134 -58c-2 -9 -2 -17 -2 -24c0 -45 29 -66 88 -66c18 0 45 3 80 11z" />
    <glyph glyph-name="R" unicode="R" horiz-adv-x="623" 
d="M18 0l123 694h235c151 0 230 -67 230 -182c0 -98 -61 -173 -160 -191l97 -321h-85l-91 307h-212l-55 -307h-82zM166 374h168c118 0 182 52 182 133c0 82 -51 120 -157 120h-148z" />
    <glyph glyph-name="S" unicode="S" horiz-adv-x="574" 
d="M69 219c26 -107 98 -166 202 -166c98 0 163 57 163 135c0 75 -53 101 -153 135c-130 44 -196 93 -196 190c0 116 84 195 214 195c122 0 217 -67 251 -176l-69 -26c-27 90 -90 138 -178 138c-83 0 -134 -48 -134 -117c0 -29 11 -54 32 -71c43 -36 99 -47 155 -68
c111 -41 164 -97 164 -189c0 -122 -98 -213 -246 -213c-147 0 -249 77 -276 209z" />
    <glyph glyph-name="T" unicode="T" horiz-adv-x="468" 
d="M130 0l109 622h-202l13 72h489l-12 -72h-203l-109 -622h-85z" />
    <glyph glyph-name="U" unicode="U" horiz-adv-x="637" 
d="M141 694h85l-76 -426c-5 -29 -8 -53 -8 -72c0 -86 55 -137 149 -137c114 0 165 64 189 200l76 435h69l-79 -446c-14 -77 -30 -133 -60 -171c-47 -59 -116 -91 -202 -91c-139 0 -226 79 -226 204c0 25 4 55 10 90z" />
    <glyph glyph-name="V" unicode="V" horiz-adv-x="525" 
d="M180 0l-135 694h78l112 -575l278 575h77l-337 -694h-73z" />
    <glyph glyph-name="W" unicode="W" horiz-adv-x="799" 
d="M121 0l-68 694h76l58 -597l234 597h68l70 -585l231 585h71l-276 -694h-86l-66 559l-218 -559h-94z" />
    <glyph glyph-name="X" unicode="X" horiz-adv-x="484" 
d="M-83 0l290 363l-157 331h87l125 -265l216 265h89l-273 -331l172 -363h-85l-142 295l-234 -295h-88z" />
    <glyph glyph-name="Y" unicode="Y" horiz-adv-x="481" 
d="M142 0l52 293l-178 401h88l146 -333l241 333h85l-300 -404l-51 -290h-83z" />
    <glyph glyph-name="Z" unicode="Z" horiz-adv-x="523" 
d="M-34 0l13 69l466 558h-361l12 67h460l-11 -59l-474 -566h403l-13 -69h-495z" />
    <glyph glyph-name="bracketleft" unicode="[" horiz-adv-x="324" 
d="M103 -79h69l-9 -51h-142l145 824h142l-9 -50h-69z" />
    <glyph glyph-name="backslash" unicode="\" horiz-adv-x="278" 
d="M206 -93h-56l-74 801h58z" />
    <glyph glyph-name="bracketright" unicode="]" horiz-adv-x="324" 
d="M199 643h-69l9 51h142l-145 -824h-143l9 51h70z" />
    <glyph glyph-name="asciicircum" unicode="^" horiz-adv-x="1000" 
d="M539 712l254 -272h-77l-216 214l-216 -214h-78l254 272h79z" />
    <glyph glyph-name="underscore" unicode="_" 
d="M500 -178v-58h-500v58h500z" />
    <glyph glyph-name="quoteleft" unicode="&#x2018;" horiz-adv-x="255" 
d="M247 708l-79 -126h49l-20 -115h-106l18 104l98 137h40z" />
    <glyph glyph-name="a" unicode="a" horiz-adv-x="534" 
d="M382 264c-29 4 -56 5 -83 5c-136 0 -207 -42 -207 -121c0 -56 35 -90 96 -90c80 0 173 82 194 206zM355 106c-46 -73 -112 -112 -183 -112c-97 0 -164 66 -164 147c0 117 100 185 292 185c27 0 58 -2 92 -5c3 19 5 35 5 49c0 60 -43 96 -120 96c-66 0 -116 -29 -138 -78
l-73 28c37 71 112 113 214 113c126 0 189 -53 189 -157c0 -18 -1 -38 -5 -60l-39 -220c-1 -8 -3 -25 -3 -50c0 -4 0 -18 3 -42h-75c-2 13 -2 25 -2 35c0 16 2 39 7 71z" />
    <glyph glyph-name="b" unicode="b" horiz-adv-x="532" 
d="M297 462c-53 0 -100 -36 -140 -109c-19 -34 -36 -97 -36 -159c0 -87 49 -141 117 -141c89 0 164 105 164 265c0 91 -42 144 -105 144zM10 -3l124 697h73l-48 -267c45 66 104 100 163 100c95 0 165 -84 165 -212c0 -90 -28 -173 -79 -239c-43 -56 -101 -85 -161 -85
c-67 0 -121 35 -148 100l-54 -94h-35z" />
    <glyph glyph-name="c" unicode="c" horiz-adv-x="470" 
d="M419 151c-43 -109 -114 -163 -215 -163c-109 0 -189 87 -189 222c0 82 22 157 62 217c43 64 110 101 180 101c98 0 175 -69 190 -178l-75 -18c-10 81 -58 128 -120 128c-83 0 -154 -99 -154 -250c0 -97 44 -152 113 -152c59 0 110 42 141 121z" />
    <glyph glyph-name="d" unicode="d" horiz-adv-x="532" 
d="M450 692h73l-122 -692h-74l17 95c-43 -72 -98 -109 -162 -109c-98 0 -168 84 -168 213c0 90 28 172 80 238c43 56 100 86 161 86c66 0 119 -33 149 -93zM380 319c0 88 -49 142 -117 142c-88 0 -163 -105 -163 -265c0 -91 42 -144 105 -144c53 0 99 36 139 109
c19 34 36 97 36 158z" />
    <glyph glyph-name="e" unicode="e" horiz-adv-x="522" 
d="M451 120c-51 -88 -128 -134 -223 -134c-124 0 -214 93 -214 235c0 73 21 141 58 195c49 71 121 111 203 111c127 0 205 -83 205 -219c0 -20 -1 -38 -4 -56h-378c-2 -15 -3 -29 -3 -39c0 -100 56 -161 139 -161c59 0 107 32 149 98zM108 310h293v14c0 90 -48 144 -132 144
c-81 0 -140 -56 -161 -158z" />
    <glyph glyph-name="f" unicode="f" horiz-adv-x="285" 
d="M34 0l80 454h-91l11 60h91c23 129 88 193 199 193c19 0 40 -3 64 -7l-10 -60c-19 3 -36 4 -52 4c-68 0 -111 -43 -126 -130h131l-11 -60h-131l-80 -454h-75z" />
    <glyph glyph-name="g" unicode="g" horiz-adv-x="498" 
d="M254 232c71 0 124 51 124 122c0 64 -45 108 -112 108c-76 0 -124 -49 -124 -118c0 -67 45 -112 112 -112zM121 222c-38 28 -58 68 -58 117c0 101 85 182 203 182c29 0 57 -6 85 -17c20 74 63 111 134 111c15 0 30 -2 46 -4l-9 -65c-19 3 -34 4 -46 4
c-42 0 -71 -22 -86 -66c43 -32 65 -73 65 -125c0 -106 -83 -184 -201 -184c-37 0 -69 7 -99 21c-44 -18 -66 -38 -66 -64c0 -51 57 -44 161 -49c52 -2 98 -2 143 -26c37 -20 59 -57 59 -100c0 -91 -89 -149 -253 -149c-160 0 -244 48 -244 127c0 46 33 86 98 110
c-27 15 -41 36 -41 63c0 45 38 90 109 114zM99 21c-42 -12 -67 -40 -67 -71c0 -53 61 -83 179 -83c109 0 166 29 166 79c0 41 -28 54 -83 63c-15 2 -81 -3 -195 12z" />
    <glyph glyph-name="h" unicode="h" horiz-adv-x="542" 
d="M10 0l122 694h75l-48 -273c44 71 103 107 171 107c89 0 148 -58 148 -150c0 -17 -2 -37 -6 -59l-56 -319h-73l54 307c3 16 5 32 5 47c0 72 -37 112 -100 112c-77 0 -150 -77 -173 -209l-46 -257h-73z" />
    <glyph glyph-name="i" unicode="i" horiz-adv-x="221" 
d="M13 0l90 514h76l-91 -514h-75zM104 597l18 97h99l-17 -97h-100z" />
    <glyph glyph-name="j" unicode="j" horiz-adv-x="221" 
d="M104 597l18 97h99l-17 -97h-100zM13 0l90 514h76l-91 -514c-23 -132 -69 -191 -183 -191c-18 0 -38 2 -61 6l8 59c19 -4 35 -6 49 -6c71 0 96 42 112 132z" />
    <glyph glyph-name="k" unicode="k" horiz-adv-x="468" 
d="M10 0l123 694h73l-76 -432l276 252h93l-198 -179l124 -335h-76l-105 287l-131 -118l-29 -169h-74z" />
    <glyph glyph-name="l" unicode="l" horiz-adv-x="221" 
d="M13 0l121 694h77l-123 -694h-75z" />
    <glyph glyph-name="m" unicode="m" horiz-adv-x="815" 
d="M10 0l91 514h66l-20 -111c46 81 104 122 169 122c70 0 116 -43 132 -124c50 83 106 124 172 124c78 0 132 -59 132 -140c0 -22 -2 -44 -6 -66l-56 -319h-73l54 305c4 22 5 40 5 54c0 66 -32 103 -79 103c-72 0 -142 -75 -165 -205l-46 -257h-73l54 306c4 20 6 38 6 53
c0 66 -33 103 -80 103c-72 0 -141 -76 -164 -205l-46 -257h-73z" />
    <glyph glyph-name="n" unicode="n" horiz-adv-x="542" 
d="M10 0l91 514h66l-20 -111c47 83 109 125 183 125c89 0 147 -58 147 -143c0 -22 -1 -44 -5 -66l-56 -319h-73l54 306c3 19 5 36 5 50c0 70 -37 110 -99 110c-79 0 -151 -77 -174 -209l-46 -257h-73z" />
    <glyph glyph-name="o" unicode="o" horiz-adv-x="532" 
d="M98 201c0 -86 58 -150 134 -150c95 0 172 107 172 261c0 93 -53 154 -137 154c-96 0 -169 -108 -169 -265zM237 -15c-129 0 -221 95 -221 235c0 179 113 309 252 309c129 0 218 -92 218 -230c0 -181 -110 -314 -249 -314z" />
    <glyph glyph-name="p" unicode="p" horiz-adv-x="532" 
d="M-22 -178l122 692h66l-20 -104c50 78 110 117 175 117c94 0 165 -84 165 -212c0 -90 -27 -173 -79 -239c-43 -56 -100 -85 -161 -85c-66 0 -119 33 -149 93l-46 -262h-73zM296 462c-53 0 -100 -36 -140 -109c-19 -34 -35 -97 -35 -159c0 -87 48 -141 116 -141
c89 0 164 105 164 265c0 91 -42 144 -105 144z" />
    <glyph glyph-name="q" unicode="q" horiz-adv-x="532" 
d="M342 89c-45 -66 -103 -100 -162 -100c-95 0 -165 84 -165 212c0 90 27 173 79 239c43 56 101 86 161 86c67 0 120 -36 148 -101l53 94h35l-123 -697h-73zM100 199c0 -91 42 -145 106 -145c51 0 100 36 139 109c19 35 35 98 35 159c0 88 -48 141 -116 141
c-89 0 -164 -104 -164 -264z" />
    <glyph glyph-name="r" unicode="r" horiz-adv-x="315" 
d="M10 0l91 514h75l-26 -143c40 104 104 156 187 156c8 0 17 0 25 -1l-14 -79c-9 1 -18 1 -24 1c-106 0 -175 -92 -208 -276l-30 -172h-76z" />
    <glyph glyph-name="s" unicode="s" horiz-adv-x="440" 
d="M54 153c23 -68 75 -103 148 -103c68 0 112 40 112 89c0 26 -11 47 -31 58c-39 23 -86 28 -128 43c-79 28 -117 66 -117 132c0 88 72 155 176 155c95 0 162 -44 191 -123l-65 -25c-26 57 -69 87 -125 87c-58 0 -98 -38 -98 -85c0 -55 47 -62 127 -87
c100 -32 150 -71 150 -145c0 -93 -79 -163 -197 -163c-105 0 -178 50 -213 144z" />
    <glyph glyph-name="t" unicode="t" horiz-adv-x="299" 
d="M131 170c-3 -18 -5 -32 -5 -43c0 -48 26 -72 76 -72c18 0 38 1 59 5l-11 -62c-22 -4 -41 -6 -59 -6c-90 0 -140 44 -140 117c0 26 3 54 9 86l46 259h-77l10 60h77l22 123l76 4l-23 -127h121l-10 -60h-121z" />
    <glyph glyph-name="u" unicode="u" horiz-adv-x="542" 
d="M501 514l-91 -514h-66l20 111c-47 -83 -109 -125 -183 -125c-90 0 -147 57 -147 151c0 18 2 38 5 57l56 320h73l-54 -308c-3 -17 -5 -33 -5 -49c0 -70 37 -109 99 -109c78 0 151 77 174 209l46 257h73z" />
    <glyph glyph-name="v" unicode="v" horiz-adv-x="410" 
d="M114 0l-99 514h69l81 -426l212 426h70l-258 -514h-75z" />
    <glyph glyph-name="w" unicode="w" horiz-adv-x="660" 
d="M102 0l-80 514h70l59 -406l170 406h67l52 -394l176 394h70l-233 -514h-61l-54 405l-171 -405h-65z" />
    <glyph glyph-name="x" unicode="x" horiz-adv-x="398" 
d="M-61 0l214 272l-128 242h78l97 -184l144 184h77l-190 -242l143 -272h-76l-113 215l-168 -215h-78z" />
    <glyph glyph-name="y" unicode="y" horiz-adv-x="419" 
d="M-72 -182l11 73c19 -4 35 -6 49 -6c64 0 102 39 140 127l-109 502h72l85 -405l207 405h71l-277 -540c-55 -108 -103 -161 -197 -161c-15 0 -32 2 -52 5z" />
    <glyph glyph-name="z" unicode="z" horiz-adv-x="411" 
d="M-35 0l10 56l344 395h-275l11 63h372l-9 -52l-348 -397h295l-12 -65h-388z" />
    <glyph glyph-name="braceleft" unicode="{" 
d="M419 659c-8 0 -15 1 -22 1c-86 0 -101 -30 -101 -119v-118c0 -96 -16 -142 -97 -164c81 -22 97 -68 97 -164v-118c0 -90 16 -118 104 -118h19v-61h-17c-56 0 -97 5 -128 25c-44 29 -49 77 -49 153v119c0 97 -30 134 -119 134c-7 0 -14 -1 -22 -1v62c8 0 15 -1 22 -1
c89 0 119 37 119 135v119c0 76 4 124 49 153c31 20 71 25 128 25h17v-62z" />
    <glyph glyph-name="bar" unicode="|" 
d="M281 764v-1000h-62v1000h62z" />
    <glyph glyph-name="braceright" unicode="}" 
d="M275 543v-119c0 -98 31 -135 120 -135c7 0 14 1 22 1v-62c-8 0 -15 1 -22 1c-89 0 -120 -37 -120 -135v-118c0 -76 -4 -125 -48 -154c-30 -20 -71 -24 -126 -24h-20v61c8 0 15 -1 22 -1c86 0 101 31 101 120v117c0 96 16 142 97 164c-81 22 -97 68 -97 164v118
c0 90 -16 119 -104 119h-19v61h17c56 0 98 -5 129 -25c44 -29 48 -77 48 -153z" />
    <glyph glyph-name="asciitilde" unicode="~" horiz-adv-x="833" 
d="M747 306c-66 -47 -129 -70 -189 -70c-29 0 -60 6 -93 17c-69 23 -128 50 -190 50c-59 0 -117 -28 -188 -78v65c68 47 131 71 189 71c52 0 97 -16 142 -32c48 -17 91 -36 141 -36c60 0 118 28 188 77v-64z" />
    <glyph glyph-name="exclamdown" unicode="&#xa1;" horiz-adv-x="306" 
d="M207 514l-49 -514h-110l118 514h41zM273 694l-18 -99h-103l17 99h104z" />
    <glyph glyph-name="cent" unicode="&#xa2;" horiz-adv-x="602" 
d="M469 269c-35 -89 -92 -137 -172 -141l-25 -160h-50l26 164c-81 23 -126 90 -126 188c0 155 83 262 198 271l21 132h52l-22 -136c70 -19 112 -69 122 -147l-65 -16c-9 71 -47 108 -106 108c-70 0 -128 -86 -128 -213c0 -83 38 -131 97 -131c50 0 94 37 120 105z" />
    <glyph glyph-name="sterling" unicode="&#xa3;" horiz-adv-x="602" 
d="M11 0l13 69c130 13 188 92 188 245v23h-110l10 60h100c2 199 96 312 227 312c64 0 116 -31 150 -89l-62 -40c-25 46 -57 67 -99 67c-86 0 -132 -75 -132 -222c0 -9 1 -18 1 -28h147l-10 -60h-139v-4c0 -119 -46 -209 -134 -264h211c74 0 123 24 159 82l50 -39
c-45 -79 -112 -112 -216 -112h-354z" />
    <glyph glyph-name="fraction" unicode="&#x2044;" horiz-adv-x="167" 
d="M-164 -14h-66l559 722h68z" />
    <glyph glyph-name="yen" unicode="&#xa5;" horiz-adv-x="602" 
d="M84 694h83l146 -333l240 333h86l-170 -229h118l-8 -44h-143l-62 -84h191l-9 -44h-216l-52 -293h-78l52 293h-217l7 44h190l-37 84h-137l7 44h110z" />
    <glyph glyph-name="florin" unicode="&#x192;" horiz-adv-x="602" 
d="M344 463h119l-10 -60h-119l-63 -355c-23 -129 -88 -193 -199 -193c-19 0 -40 3 -64 7l10 60c19 -3 36 -4 52 -4c68 0 111 43 126 130l62 355h-91l11 60h91l9 51c24 130 89 193 200 193c19 0 40 -3 64 -7l-11 -60c-19 3 -36 4 -52 4c-69 0 -110 -43 -126 -130z" />
    <glyph glyph-name="section" unicode="&#xa7;" 
d="M38 -26l57 42c31 -42 63 -63 100 -63c38 0 63 26 63 64c0 43 -38 92 -88 166c-58 87 -93 149 -93 200c0 63 47 110 113 110c6 0 13 0 20 -1c-21 36 -33 67 -33 99c0 72 50 118 134 118c63 0 115 -30 146 -83l-60 -40c-26 38 -51 56 -81 56c-42 0 -65 -22 -65 -56
c0 -37 34 -79 82 -149c56 -81 97 -140 97 -203c0 -66 -44 -110 -112 -110c-7 0 -14 0 -21 1c24 -39 37 -72 37 -110c0 -79 -51 -133 -134 -133c-67 0 -121 31 -162 92zM154 382c0 -23 20 -63 59 -122c34 -51 60 -77 89 -77c30 0 49 20 49 51c0 39 -27 80 -67 138
c-28 40 -48 65 -79 65c-29 0 -51 -23 -51 -55z" />
    <glyph glyph-name="currency" unicode="&#xa4;" horiz-adv-x="606" 
d="M178 592c38 29 78 44 125 44s89 -15 127 -44l100 101l35 -36l-100 -100c28 -37 42 -79 42 -125s-14 -88 -42 -125l100 -100l-35 -36l-100 101c-37 -29 -79 -43 -127 -43s-88 14 -125 43l-101 -101l-35 36l101 100c-28 37 -43 79 -43 125s15 88 43 125l-101 100l35 36z
M457 433c0 84 -68 153 -153 153s-153 -69 -153 -153c0 -85 68 -154 153 -154s153 70 153 154z" />
    <glyph glyph-name="quotesingle" unicode="'" horiz-adv-x="149" 
d="M103 700v-270h-57v270h57z" />
    <glyph glyph-name="quotedblleft" unicode="&#x201c;" horiz-adv-x="417" 
d="M247 708l-79 -126h49l-20 -114h-106l18 103l98 137h40zM409 708l-79 -126h49l-20 -114h-106l18 103l98 137h40z" />
    <glyph glyph-name="guillemotleft" unicode="&#xab;" horiz-adv-x="375" 
d="M185 416l-82 -156l29 -156h-44l-66 156l114 156h49zM342 416l-81 -156l28 -156h-43l-67 156l114 156h49z" />
    <glyph glyph-name="guilsinglleft" unicode="&#x2039;" horiz-adv-x="218" 
d="M185 416l-82 -156l29 -156h-44l-66 156l114 156h49z" />
    <glyph glyph-name="guilsinglright" unicode="&#x203a;" horiz-adv-x="218" 
d="M7 104l81 156l-28 156h43l67 -156l-114 -156h-49z" />
    <glyph glyph-name="fi" unicode="&#xfb01;" horiz-adv-x="509" 
d="M393 597l16 97h100l-18 -97h-98zM301 0l90 514h76l-91 -514h-75zM34 0l80 454h-91l10 60h92c24 131 89 193 205 193c10 0 21 0 32 -1l-11 -62c-6 0 -11 1 -17 1c-77 0 -118 -41 -134 -131h131l-11 -60h-131l-80 -454h-75z" />
    <glyph glyph-name="fl" unicode="&#xfb02;" horiz-adv-x="509" 
d="M301 0l122 694h76l-123 -694h-75zM34 0l80 454h-91l10 60h92c24 131 89 193 205 193c10 0 21 0 32 -1l-11 -62c-6 0 -11 1 -17 1c-77 0 -118 -41 -134 -131h131l-11 -60h-131l-80 -454h-75z" />
    <glyph glyph-name="endash" unicode="&#x2013;" 
d="M-15 240l8 46h492l-8 -46h-492z" />
    <glyph glyph-name="dagger" unicode="&#x2020;" 
d="M137 -138c36 182 60 322 65 424l60 169l-162 -24l16 83l154 -25l19 205h86l-69 -205l165 24l-19 -84l-154 25l-10 -172c-24 -58 -61 -197 -117 -420h-34z" />
    <glyph glyph-name="daggerdbl" unicode="&#x2021;" 
d="M114 -127l67 202l-161 -23l20 86l153 -26l11 177l60 166l-162 -22l16 82l154 -23l20 202h86l-66 -203l161 23l-18 -85l-153 24l-11 -171l-63 -170l164 25l-18 -87l-152 23l-20 -200h-88z" />
    <glyph glyph-name="periodcentered" unicode="&#xb7;" horiz-adv-x="301" 
d="M90 347c0 33 28 62 61 62s61 -29 61 -62s-27 -60 -61 -60c-33 0 -61 27 -61 60z" />
    <glyph glyph-name="paragraph" unicode="&#xb6;" 
d="M463 684h-61v-684h-46v684h-90v-684h-46v382c-114 5 -183 73 -183 170c0 100 74 170 192 170h234v-38z" />
    <glyph glyph-name="bullet" unicode="&#x2022;" horiz-adv-x="590" 
d="M150 372c0 80 65 144 145 144c79 0 144 -64 144 -144c0 -79 -65 -145 -145 -145s-144 65 -144 145z" />
    <glyph glyph-name="quotesinglbase" unicode="&#x201a;" horiz-adv-x="255" 
d="M-9 -125l80 126h-50l20 115h107l-18 -104l-99 -137h-40z" />
    <glyph glyph-name="quotedblbase" unicode="&#x201e;" horiz-adv-x="417" 
d="M153 -125l80 126h-50l20 115h107l-18 -104l-98 -137h-41zM-9 -125l80 126h-50l20 115h107l-18 -104l-99 -137h-40z" />
    <glyph glyph-name="quotedblright" unicode="&#x201d;" horiz-adv-x="417" 
d="M91 454l79 126h-49l20 114h106l-18 -103l-98 -137h-40zM253 454l79 126h-49l20 114h106l-18 -103l-98 -137h-40z" />
    <glyph glyph-name="guillemotright" unicode="&#xbb;" horiz-adv-x="375" 
d="M7 104l81 156l-28 156h43l67 -156l-114 -156h-49zM164 104l81 156l-28 156h43l67 -156l-114 -156h-49z" />
    <glyph glyph-name="ellipsis" unicode="&#x2026;" horiz-adv-x="1000" 
d="M54 0l22 120h113l-22 -120h-113zM387 0l22 120h113l-22 -120h-113zM721 0l22 120h113l-22 -120h-113z" />
    <glyph glyph-name="perthousand" unicode="&#x2030;" horiz-adv-x="1134" 
d="M137 -14h-66l560 722h67zM199 342c-94 0 -155 64 -155 160c0 119 78 206 172 206c88 0 150 -65 150 -163c0 -116 -76 -203 -167 -203zM106 495c0 -63 36 -103 88 -103c61 0 110 63 110 161c0 65 -36 105 -88 105c-59 0 -110 -68 -110 -163zM556 -14
c-94 0 -154 63 -154 159c0 119 78 207 172 207c88 0 149 -65 149 -163c0 -116 -76 -203 -167 -203zM463 139c0 -63 36 -104 88 -104c61 0 110 64 110 162c0 65 -36 104 -88 104c-59 0 -110 -67 -110 -162zM836 139c0 -63 35 -104 87 -104c61 0 111 64 111 162
c0 65 -36 104 -88 104c-59 0 -110 -67 -110 -162zM929 -14c-94 0 -155 63 -155 159c0 119 78 207 172 207c88 0 150 -65 150 -163c0 -116 -76 -203 -167 -203z" />
    <glyph glyph-name="questiondown" unicode="&#xbf;" horiz-adv-x="502" 
d="M367 513l-12 -72c-8 -46 -27 -77 -66 -100c-57 -34 -104 -48 -122 -66c-37 -35 -57 -64 -57 -109c0 -69 50 -115 130 -115c78 0 137 49 164 140l71 -30c-45 -117 -124 -175 -240 -175c-124 0 -212 79 -212 184c0 103 58 157 176 205c53 22 77 31 89 98l7 40h72zM410 694
l-17 -100h-104l18 100h103z" />
    <glyph glyph-name="grave" unicode="`" 
d="M180 752h81l107 -170h-49z" />
    <glyph glyph-name="acute" unicode="&#xb4;" 
d="M354 752h87l-151 -170h-52z" />
    <glyph glyph-name="circumflex" unicode="&#x2c6;" 
d="M441 582h-47l-68 112l-112 -112h-52l132 170h75z" />
    <glyph glyph-name="tilde" unicode="&#x2dc;" 
d="M457 712c-20 -64 -45 -94 -91 -94c-12 0 -25 3 -39 7l-32 10c-14 4 -25 6 -34 6c-21 0 -33 -12 -41 -38h-42c19 65 47 96 93 96c12 0 25 -2 38 -6l32 -11c13 -4 25 -6 34 -6c21 0 34 11 40 36h42z" />
    <glyph glyph-name="macron" unicode="&#xaf;" 
d="M185 628l13 62h252l-13 -62h-252z" />
    <glyph glyph-name="breve" unicode="&#x2d8;" 
d="M195 734h43v-10c0 -41 25 -62 76 -62c56 0 92 23 114 72h45c-27 -90 -80 -134 -165 -134c-74 0 -114 39 -114 113c0 7 0 14 1 21z" />
    <glyph glyph-name="dotaccent" unicode="&#x2d9;" 
d="M264 609l22 101h86l-21 -101h-87z" />
    <glyph glyph-name="dieresis" unicode="&#xa8;" 
d="M191 613l19 92h78l-19 -92h-78zM348 613l19 92h78l-19 -92h-78z" />
    <glyph glyph-name="ring" unicode="&#x2da;" 
d="M206 694c0 68 53 121 121 121s121 -53 121 -121s-53 -121 -121 -121s-121 53 -121 121zM254 693c0 -41 33 -73 73 -73c41 0 72 32 72 73s-32 73 -72 73c-41 0 -73 -32 -73 -73z" />
    <glyph glyph-name="cedilla" unicode="&#xb8;" 
d="M71 -204l15 42c47 -14 84 -20 109 -20c40 0 61 18 61 51c0 31 -25 40 -80 40h-18l31 91h35l-17 -52h8c73 0 106 -25 106 -82c0 -55 -43 -95 -116 -95c-35 0 -80 9 -134 25z" />
    <glyph glyph-name="hungarumlaut" unicode="&#x2dd;" 
d="M298 752h77l-118 -170h-42zM435 752h77l-127 -170h-42z" />
    <glyph glyph-name="ogonek" unicode="&#x2db;" 
d="M225 0c-44 -40 -67 -75 -67 -109c0 -29 13 -40 47 -40h46l-13 -63h-32c-73 0 -108 25 -108 80c0 48 31 85 91 132h36z" />
    <glyph glyph-name="caron" unicode="&#x2c7;" 
d="M192 752h46l69 -111l112 111h52l-132 -170h-75z" />
    <glyph glyph-name="emdash" unicode="&#x2014;" horiz-adv-x="1000" 
d="M989 286l-8 -46h-1000l8 46h1000z" />
    <glyph glyph-name="AE" unicode="&#xc6;" horiz-adv-x="870" 
d="M391 310l56 315l-231 -315h175zM-7 0h-86l511 694h468l-12 -69h-348l-40 -228h298l-12 -67h-298l-45 -258h384l-13 -72h-464l43 243h-210z" />
    <glyph glyph-name="ordfeminine" unicode="&#xaa;" horiz-adv-x="401" 
d="M287 520c-22 3 -42 3 -63 3c-102 0 -155 -29 -155 -84c0 -40 26 -63 72 -63c60 0 130 57 146 144zM266 409c-34 -51 -84 -78 -137 -78c-73 0 -123 46 -123 103c0 82 75 129 219 129c20 0 44 -1 69 -3c2 13 4 24 4 34c0 42 -32 67 -90 67c-50 0 -87 -20 -104 -54l-54 19
c27 50 84 79 160 79c95 0 142 -37 142 -110c0 -12 -1 -26 -4 -42l-29 -154c-1 -5 -2 -17 -2 -35c0 -2 0 -12 2 -29h-56c-2 9 -2 17 -2 24c0 12 2 28 5 50z" />
    <glyph glyph-name="Lslash" unicode="&#x141;" horiz-adv-x="507" 
d="M30 0l53 301l-76 -43l12 67l76 44l58 325h82l-50 -284l190 109l-13 -68l-189 -109l-48 -270h350l-12 -72h-433z" />
    <glyph glyph-name="Oslash" unicode="&#xd8;" horiz-adv-x="650" 
d="M148 161l334 415c-31 41 -76 63 -131 63s-105 -26 -142 -75c-52 -68 -85 -172 -85 -278c0 -45 8 -87 24 -125zM170 123c31 -41 77 -64 127 -64c64 0 119 36 162 106c40 64 67 158 67 257c0 47 -7 86 -22 116zM-28 -56l120 148c-38 56 -57 125 -57 202
c0 125 40 236 114 319c54 61 128 95 205 95c70 0 129 -23 178 -70l77 96h55l-104 -131c37 -54 56 -117 56 -187c0 -117 -32 -221 -93 -306c-58 -81 -136 -123 -228 -123c-73 0 -134 25 -177 72l-93 -115h-53z" />
    <glyph glyph-name="OE" unicode="&#x152;" horiz-adv-x="975" 
d="M483 179l60 334c-43 82 -112 126 -190 126c-56 0 -106 -26 -144 -75c-52 -69 -85 -171 -85 -281c0 -138 73 -225 181 -225c76 0 139 42 178 121zM573 694h427l-12 -69h-347l-39 -226h293l-12 -68h-293l-46 -259h376l-13 -72h-456l11 60c-48 -49 -105 -73 -170 -73
c-60 0 -117 21 -157 57c-65 58 -101 145 -101 249c0 124 41 237 115 320c54 61 128 95 205 95c85 0 156 -35 204 -101z" />
    <glyph glyph-name="ordmasculine" unicode="&#xba;" horiz-adv-x="399" 
d="M74 476c0 -61 43 -105 100 -105c71 0 129 75 129 182c0 65 -40 108 -103 108c-72 0 -126 -75 -126 -185zM178 325c-97 0 -166 66 -166 164c0 125 85 216 189 216c97 0 164 -64 164 -161c0 -126 -83 -219 -187 -219z" />
    <glyph glyph-name="ae" unicode="&#xe6;" horiz-adv-x="875" 
d="M382 264c-30 4 -57 5 -83 5c-136 0 -207 -42 -207 -121c0 -57 35 -90 96 -90c82 0 170 80 194 206zM804 120c-50 -87 -128 -134 -219 -134c-100 0 -176 53 -204 141c-52 -86 -130 -133 -211 -133c-94 0 -162 65 -162 147c0 118 100 185 292 185c26 0 56 -2 92 -5
c3 20 5 36 5 49c0 60 -43 96 -120 96c-66 0 -115 -28 -138 -78l-73 28c37 72 113 113 213 113c86 0 146 -27 174 -75c49 49 107 73 172 73c132 0 208 -80 208 -225c0 -15 0 -32 -3 -50h-378c-2 -15 -3 -29 -3 -39c0 -100 55 -161 138 -161c59 0 107 32 149 98zM461 310h294
v13c0 91 -49 145 -133 145c-81 0 -140 -56 -161 -158z" />
    <glyph glyph-name="dotlessi" unicode="&#x131;" horiz-adv-x="221" 
d="M13 0l90 514h76l-91 -514h-75z" />
    <glyph glyph-name="lslash" unicode="&#x142;" horiz-adv-x="240" 
d="M22 0l54 309l-78 -44l11 60l78 46l57 323h77l-52 -290l78 44l-11 -61l-78 -45l-61 -342h-75z" />
    <glyph glyph-name="oslash" unicode="&#xf8;" horiz-adv-x="532" 
d="M114 126l254 297c-23 28 -58 43 -101 43c-42 0 -79 -19 -106 -54c-39 -51 -64 -127 -64 -202c0 -31 5 -58 17 -84zM137 93c24 -28 56 -42 94 -42c94 0 174 106 174 257c0 29 -6 55 -16 80zM-56 -72l119 139c-31 40 -47 91 -47 148c0 101 32 182 99 253
c35 37 93 61 153 61c58 0 107 -18 146 -53l94 110h52l-119 -139c30 -40 46 -88 46 -148c0 -90 -30 -175 -86 -240c-40 -47 -99 -73 -165 -73c-58 0 -108 18 -145 51l-94 -109h-53z" />
    <glyph glyph-name="oe" unicode="&#x153;" horiz-adv-x="900" 
d="M98 201c0 -87 58 -150 134 -150c94 0 172 104 172 261c0 94 -53 154 -137 154c-94 0 -169 -105 -169 -265zM487 310h293v13c0 91 -49 145 -133 145c-81 0 -139 -56 -160 -158zM830 120c-51 -89 -129 -134 -227 -134c-76 0 -140 36 -180 101c-48 -67 -111 -102 -187 -102
c-129 0 -220 95 -220 235c0 98 32 178 99 248c35 36 93 62 153 62c82 0 151 -39 186 -104c50 66 119 101 197 101c132 0 208 -80 208 -225c0 -15 -1 -32 -4 -50h-378c-2 -15 -3 -29 -3 -39c0 -100 55 -161 138 -161c59 0 108 32 150 98z" />
    <glyph glyph-name="germandbls" unicode="&#xdf;" horiz-adv-x="562" 
d="M18 -33l76 431h-51l9 61h53c29 159 103 251 248 251c98 0 164 -58 164 -133c0 -77 -62 -131 -179 -147c-40 -5 -65 0 -65 -20c0 -29 42 -33 114 -61c89 -34 134 -87 134 -164c0 -111 -96 -201 -237 -201c-42 0 -82 9 -122 26l26 59c28 -13 59 -21 95 -21
c91 0 154 56 154 124c0 27 -10 50 -28 72c-19 22 -63 36 -124 64c-55 25 -81 49 -81 89c0 34 22 64 51 69c120 22 183 43 183 109c0 45 -35 76 -94 76c-89 0 -144 -61 -166 -186l-87 -498h-73z" />
    <glyph glyph-name="Aacute" unicode="&#xc1;" horiz-adv-x="525" 
d="M147 280h213l-54 326zM-66 0l341 694h91l122 -694h-79l-36 208h-260l-101 -208h-78zM378 919h87l-151 -170h-52z" />
    <glyph glyph-name="Acircumflex" unicode="&#xc2;" horiz-adv-x="525" 
d="M147 280h213l-54 326zM-66 0l341 694h91l122 -694h-79l-36 208h-260l-101 -208h-78zM465 749h-47l-68 112l-112 -112h-52l132 170h75z" />
    <glyph glyph-name="Adieresis" unicode="&#xc4;" horiz-adv-x="525" 
d="M147 280h213l-54 326zM-66 0l341 694h91l122 -694h-79l-36 208h-260l-101 -208h-78zM215 780l19 92h78l-19 -92h-78zM372 780l19 92h78l-19 -92h-78z" />
    <glyph glyph-name="Agrave" unicode="&#xc0;" horiz-adv-x="525" 
d="M147 280h213l-54 326zM-66 0l341 694h91l122 -694h-79l-36 208h-260l-101 -208h-78zM204 919h81l107 -170h-49z" />
    <glyph glyph-name="Aring" unicode="&#xc5;" horiz-adv-x="525" 
d="M147 280h213l-54 326zM-66 0l341 694h91l122 -694h-79l-36 208h-260l-101 -208h-78zM266 845c0 -40 31 -71 71 -71c39 0 71 31 71 71s-32 71 -71 71c-40 0 -71 -31 -71 -71zM218 845c0 66 53 119 119 119s118 -52 118 -118c0 -67 -51 -119 -118 -119
c-66 0 -119 52 -119 118z" />
    <glyph glyph-name="Atilde" unicode="&#xc3;" horiz-adv-x="525" 
d="M147 280h213l-54 326zM-66 0l341 694h91l122 -694h-79l-36 208h-260l-101 -208h-78zM481 879c-20 -64 -45 -94 -91 -94c-12 0 -25 3 -39 7l-32 10c-14 4 -25 6 -34 6c-21 0 -33 -12 -41 -38h-42c19 65 47 96 93 96c12 0 25 -2 38 -6l32 -11c13 -4 25 -6 34 -6
c21 0 34 11 40 36h42z" />
    <glyph glyph-name="Ccedilla" unicode="&#xc7;" horiz-adv-x="583" 
d="M548 197c-50 -137 -146 -211 -269 -211c-140 0 -245 118 -245 301c0 121 43 239 117 325c55 64 125 97 206 97c135 0 223 -83 240 -231l-77 -18c-15 117 -71 178 -161 178c-55 0 -109 -27 -146 -74c-53 -67 -88 -171 -88 -281c0 -143 66 -226 164 -226
c78 0 142 56 189 166zM139 -204l15 42c47 -14 84 -20 109 -20c40 0 61 18 61 51c0 31 -25 40 -80 40h-18l31 91h35l-17 -52h8c73 0 106 -25 106 -82c0 -55 -43 -95 -116 -95c-35 0 -80 9 -134 25z" />
    <glyph glyph-name="Eacute" unicode="&#xc9;" horiz-adv-x="572" 
d="M18 0l123 694h457l-13 -69h-374l-40 -226h321l-12 -68h-321l-46 -259h404l-13 -72h-486zM426 919h87l-151 -170h-52z" />
    <glyph glyph-name="Ecircumflex" unicode="&#xca;" horiz-adv-x="572" 
d="M18 0l123 694h457l-13 -69h-374l-40 -226h321l-12 -68h-321l-46 -259h404l-13 -72h-486zM513 749h-47l-68 112l-112 -112h-52l132 170h75z" />
    <glyph glyph-name="Edieresis" unicode="&#xcb;" horiz-adv-x="572" 
d="M18 0l123 694h457l-13 -69h-374l-40 -226h321l-12 -68h-321l-46 -259h404l-13 -72h-486zM263 780l19 92h78l-19 -92h-78zM420 780l19 92h78l-19 -92h-78z" />
    <glyph glyph-name="Egrave" unicode="&#xc8;" horiz-adv-x="572" 
d="M18 0l123 694h457l-13 -69h-374l-40 -226h321l-12 -68h-321l-46 -259h404l-13 -72h-486zM252 919h81l107 -170h-49z" />
    <glyph glyph-name="Iacute" unicode="&#xcd;" horiz-adv-x="243" 
d="M225 694l-122 -694h-85l123 694h84zM242 919h87l-151 -170h-52z" />
    <glyph glyph-name="Icircumflex" unicode="&#xce;" horiz-adv-x="243" 
d="M225 694l-122 -694h-85l123 694h84zM329 749h-47l-68 112l-112 -112h-52l132 170h75z" />
    <glyph glyph-name="Idieresis" unicode="&#xcf;" horiz-adv-x="243" 
d="M225 694l-122 -694h-85l123 694h84zM79 780l19 92h78l-19 -92h-78zM236 780l19 92h78l-19 -92h-78z" />
    <glyph glyph-name="Igrave" unicode="&#xcc;" horiz-adv-x="243" 
d="M225 694l-122 -694h-85l123 694h84zM68 919h81l107 -170h-49z" />
    <glyph glyph-name="Ntilde" unicode="&#xd1;" horiz-adv-x="670" 
d="M18 0l123 694h95l245 -565l100 565h71l-123 -694h-70l-263 606l-107 -606h-71zM559 879c-20 -64 -45 -94 -91 -94c-12 0 -25 3 -39 7l-32 10c-14 4 -25 6 -34 6c-21 0 -33 -12 -41 -38h-42c19 65 47 96 93 96c12 0 25 -2 38 -6l32 -11c13 -4 25 -6 34 -6
c21 0 34 11 40 36h42z" />
    <glyph glyph-name="Oacute" unicode="&#xd3;" horiz-adv-x="650" 
d="M124 282c0 -136 73 -223 173 -223c63 0 119 36 162 106c40 64 67 159 67 259c0 133 -71 215 -175 215c-54 0 -105 -26 -142 -75c-52 -69 -85 -172 -85 -282zM298 -13c-155 0 -264 122 -264 306c0 125 41 237 115 320c54 61 128 95 205 95c155 0 262 -119 262 -300
c0 -111 -32 -214 -93 -298c-58 -81 -137 -123 -225 -123zM431 919h87l-151 -170h-52z" />
    <glyph glyph-name="Ocircumflex" unicode="&#xd4;" horiz-adv-x="650" 
d="M124 282c0 -136 73 -223 173 -223c63 0 119 36 162 106c40 64 67 159 67 259c0 133 -71 215 -175 215c-54 0 -105 -26 -142 -75c-52 -69 -85 -172 -85 -282zM298 -13c-155 0 -264 122 -264 306c0 125 41 237 115 320c54 61 128 95 205 95c155 0 262 -119 262 -300
c0 -111 -32 -214 -93 -298c-58 -81 -137 -123 -225 -123zM518 749h-47l-68 112l-112 -112h-52l132 170h75z" />
    <glyph glyph-name="Odieresis" unicode="&#xd6;" horiz-adv-x="650" 
d="M124 282c0 -136 73 -223 173 -223c63 0 119 36 162 106c40 64 67 159 67 259c0 133 -71 215 -175 215c-54 0 -105 -26 -142 -75c-52 -69 -85 -172 -85 -282zM298 -13c-155 0 -264 122 -264 306c0 125 41 237 115 320c54 61 128 95 205 95c155 0 262 -119 262 -300
c0 -111 -32 -214 -93 -298c-58 -81 -137 -123 -225 -123zM268 780l19 92h78l-19 -92h-78zM425 780l19 92h78l-19 -92h-78z" />
    <glyph glyph-name="Ograve" unicode="&#xd2;" horiz-adv-x="650" 
d="M124 282c0 -136 73 -223 173 -223c63 0 119 36 162 106c40 64 67 159 67 259c0 133 -71 215 -175 215c-54 0 -105 -26 -142 -75c-52 -69 -85 -172 -85 -282zM298 -13c-155 0 -264 122 -264 306c0 125 41 237 115 320c54 61 128 95 205 95c155 0 262 -119 262 -300
c0 -111 -32 -214 -93 -298c-58 -81 -137 -123 -225 -123zM257 919h81l107 -170h-49z" />
    <glyph glyph-name="Otilde" unicode="&#xd5;" horiz-adv-x="650" 
d="M124 282c0 -136 73 -223 173 -223c63 0 119 36 162 106c40 64 67 159 67 259c0 133 -71 215 -175 215c-54 0 -105 -26 -142 -75c-52 -69 -85 -172 -85 -282zM298 -13c-155 0 -264 122 -264 306c0 125 41 237 115 320c54 61 128 95 205 95c155 0 262 -119 262 -300
c0 -111 -32 -214 -93 -298c-58 -81 -137 -123 -225 -123zM534 879c-20 -64 -45 -94 -91 -94c-12 0 -25 3 -39 7l-32 10c-14 4 -25 6 -34 6c-21 0 -33 -12 -41 -38h-42c19 65 47 96 93 96c12 0 25 -2 38 -6l32 -11c13 -4 25 -6 34 -6c21 0 34 11 40 36h42z" />
    <glyph glyph-name="Scaron" unicode="&#x160;" horiz-adv-x="574" 
d="M69 219c26 -107 98 -166 202 -166c98 0 163 57 163 135c0 75 -53 101 -153 135c-130 44 -196 93 -196 190c0 116 84 195 214 195c122 0 217 -67 251 -176l-69 -26c-27 90 -90 138 -178 138c-83 0 -134 -48 -134 -117c0 -29 11 -54 32 -71c43 -36 99 -47 155 -68
c111 -41 164 -97 164 -189c0 -122 -98 -213 -246 -213c-147 0 -249 77 -276 209zM246 919h46l69 -111l112 111h52l-132 -170h-75z" />
    <glyph glyph-name="Uacute" unicode="&#xda;" horiz-adv-x="637" 
d="M141 694h85l-76 -426c-5 -29 -8 -53 -8 -72c0 -86 55 -137 149 -137c114 0 165 64 189 200l76 435h69l-79 -446c-14 -77 -30 -133 -60 -171c-47 -59 -116 -91 -202 -91c-139 0 -226 79 -226 204c0 25 4 55 10 90zM445 919h87l-151 -170h-52z" />
    <glyph glyph-name="Ucircumflex" unicode="&#xdb;" horiz-adv-x="637" 
d="M141 694h85l-76 -426c-5 -29 -8 -53 -8 -72c0 -86 55 -137 149 -137c114 0 165 64 189 200l76 435h69l-79 -446c-14 -77 -30 -133 -60 -171c-47 -59 -116 -91 -202 -91c-139 0 -226 79 -226 204c0 25 4 55 10 90zM532 749h-47l-68 112l-112 -112h-52l132 170h75z" />
    <glyph glyph-name="Udieresis" unicode="&#xdc;" horiz-adv-x="637" 
d="M141 694h85l-76 -426c-5 -29 -8 -53 -8 -72c0 -86 55 -137 149 -137c114 0 165 64 189 200l76 435h69l-79 -446c-14 -77 -30 -133 -60 -171c-47 -59 -116 -91 -202 -91c-139 0 -226 79 -226 204c0 25 4 55 10 90zM282 780l19 92h78l-19 -92h-78zM439 780l19 92h78
l-19 -92h-78z" />
    <glyph glyph-name="Ugrave" unicode="&#xd9;" horiz-adv-x="637" 
d="M141 694h85l-76 -426c-5 -29 -8 -53 -8 -72c0 -86 55 -137 149 -137c114 0 165 64 189 200l76 435h69l-79 -446c-14 -77 -30 -133 -60 -171c-47 -59 -116 -91 -202 -91c-139 0 -226 79 -226 204c0 25 4 55 10 90zM271 919h81l107 -170h-49z" />
    <glyph glyph-name="Ydieresis" unicode="&#x178;" horiz-adv-x="481" 
d="M142 0l52 293l-178 401h88l146 -333l241 333h85l-300 -404l-51 -290h-83zM198 780l19 92h78l-19 -92h-78zM355 780l19 92h78l-19 -92h-78z" />
    <glyph glyph-name="Zcaron" unicode="&#x17d;" horiz-adv-x="523" 
d="M-34 0l13 69l466 558h-361l12 67h460l-11 -59l-474 -566h403l-13 -69h-495zM220 919h46l69 -111l112 111h52l-132 -170h-75z" />
    <glyph glyph-name="aacute" unicode="&#xe1;" horiz-adv-x="534" 
d="M382 264c-29 4 -56 5 -83 5c-136 0 -207 -42 -207 -121c0 -56 35 -90 96 -90c80 0 173 82 194 206zM355 106c-46 -73 -112 -112 -183 -112c-97 0 -164 66 -164 147c0 117 100 185 292 185c27 0 58 -2 92 -5c3 19 5 35 5 49c0 60 -43 96 -120 96c-66 0 -116 -29 -138 -78
l-73 28c37 71 112 113 214 113c126 0 189 -53 189 -157c0 -18 -1 -38 -5 -60l-39 -220c-1 -8 -3 -25 -3 -50c0 -4 0 -18 3 -42h-75c-2 13 -2 25 -2 35c0 16 2 39 7 71zM356 752h87l-151 -170h-52z" />
    <glyph glyph-name="acircumflex" unicode="&#xe2;" horiz-adv-x="534" 
d="M382 264c-29 4 -56 5 -83 5c-136 0 -207 -42 -207 -121c0 -56 35 -90 96 -90c80 0 173 82 194 206zM355 106c-46 -73 -112 -112 -183 -112c-97 0 -164 66 -164 147c0 117 100 185 292 185c27 0 58 -2 92 -5c3 19 5 35 5 49c0 60 -43 96 -120 96c-66 0 -116 -29 -138 -78
l-73 28c37 71 112 113 214 113c126 0 189 -53 189 -157c0 -18 -1 -38 -5 -60l-39 -220c-1 -8 -3 -25 -3 -50c0 -4 0 -18 3 -42h-75c-2 13 -2 25 -2 35c0 16 2 39 7 71zM443 582h-47l-68 112l-112 -112h-52l132 170h75z" />
    <glyph glyph-name="adieresis" unicode="&#xe4;" horiz-adv-x="534" 
d="M382 264c-29 4 -56 5 -83 5c-136 0 -207 -42 -207 -121c0 -56 35 -90 96 -90c80 0 173 82 194 206zM355 106c-46 -73 -112 -112 -183 -112c-97 0 -164 66 -164 147c0 117 100 185 292 185c27 0 58 -2 92 -5c3 19 5 35 5 49c0 60 -43 96 -120 96c-66 0 -116 -29 -138 -78
l-73 28c37 71 112 113 214 113c126 0 189 -53 189 -157c0 -18 -1 -38 -5 -60l-39 -220c-1 -8 -3 -25 -3 -50c0 -4 0 -18 3 -42h-75c-2 13 -2 25 -2 35c0 16 2 39 7 71zM193 613l19 92h78l-19 -92h-78zM350 613l19 92h78l-19 -92h-78z" />
    <glyph glyph-name="agrave" unicode="&#xe0;" horiz-adv-x="534" 
d="M382 264c-29 4 -56 5 -83 5c-136 0 -207 -42 -207 -121c0 -56 35 -90 96 -90c80 0 173 82 194 206zM355 106c-46 -73 -112 -112 -183 -112c-97 0 -164 66 -164 147c0 117 100 185 292 185c27 0 58 -2 92 -5c3 19 5 35 5 49c0 60 -43 96 -120 96c-66 0 -116 -29 -138 -78
l-73 28c37 71 112 113 214 113c126 0 189 -53 189 -157c0 -18 -1 -38 -5 -60l-39 -220c-1 -8 -3 -25 -3 -50c0 -4 0 -18 3 -42h-75c-2 13 -2 25 -2 35c0 16 2 39 7 71zM182 752h81l107 -170h-49z" />
    <glyph glyph-name="aring" unicode="&#xe5;" horiz-adv-x="534" 
d="M382 264c-30 4 -57 5 -83 5c-136 0 -207 -42 -207 -121c0 -57 35 -90 96 -90c82 0 170 80 194 206zM355 106c-47 -74 -112 -112 -183 -112c-96 0 -164 65 -164 147c0 118 100 185 292 185c26 0 56 -2 92 -5c3 20 5 36 5 49c0 60 -43 96 -120 96c-66 0 -115 -28 -138 -78
l-73 28c38 72 113 113 214 113c126 0 189 -53 189 -157c0 -18 -1 -38 -5 -60l-39 -220c-3 -15 -3 -29 -3 -45c0 -12 1 -28 3 -47h-75c-2 14 -2 26 -2 35c0 16 2 39 7 71zM192 681c0 68 53 121 121 121s121 -53 121 -121s-53 -121 -121 -121s-121 53 -121 121zM240 681
c0 -41 33 -73 73 -73c41 0 72 32 72 73s-32 73 -72 73c-41 0 -73 -32 -73 -73z" />
    <glyph glyph-name="atilde" unicode="&#xe3;" horiz-adv-x="534" 
d="M382 264c-29 4 -56 5 -83 5c-136 0 -207 -42 -207 -121c0 -56 35 -90 96 -90c80 0 173 82 194 206zM355 106c-46 -73 -112 -112 -183 -112c-97 0 -164 66 -164 147c0 117 100 185 292 185c27 0 58 -2 92 -5c3 19 5 35 5 49c0 60 -43 96 -120 96c-66 0 -116 -29 -138 -78
l-73 28c37 71 112 113 214 113c126 0 189 -53 189 -157c0 -18 -1 -38 -5 -60l-39 -220c-1 -8 -3 -25 -3 -50c0 -4 0 -18 3 -42h-75c-2 13 -2 25 -2 35c0 16 2 39 7 71zM459 712c-20 -64 -45 -94 -91 -94c-12 0 -25 3 -39 7l-32 10c-14 4 -25 6 -34 6c-21 0 -33 -12 -41 -38
h-42c19 65 47 96 93 96c12 0 25 -2 38 -6l32 -11c13 -4 25 -6 34 -6c21 0 34 11 40 36h42z" />
    <glyph glyph-name="ccedilla" unicode="&#xe7;" horiz-adv-x="470" 
d="M419 151c-43 -109 -114 -163 -215 -163c-109 0 -189 87 -189 222c0 82 22 157 62 217c43 64 110 101 180 101c98 0 175 -69 190 -178l-75 -18c-10 81 -58 128 -120 128c-83 0 -154 -99 -154 -250c0 -97 44 -152 113 -152c59 0 110 42 141 121zM77 -204l15 42
c47 -14 84 -20 109 -20c40 0 61 18 61 51c0 31 -25 40 -80 40h-18l31 91h35l-17 -52h8c73 0 106 -25 106 -82c0 -55 -43 -95 -116 -95c-35 0 -80 9 -134 25z" />
    <glyph glyph-name="eacute" unicode="&#xe9;" horiz-adv-x="522" 
d="M451 120c-51 -88 -128 -134 -223 -134c-124 0 -214 93 -214 235c0 73 21 141 58 195c49 71 121 111 203 111c127 0 205 -83 205 -219c0 -20 -1 -38 -4 -56h-378c-2 -15 -3 -29 -3 -39c0 -100 56 -161 139 -161c59 0 107 32 149 98zM108 310h293v14c0 90 -48 144 -132 144
c-81 0 -140 -56 -161 -158zM352 752h87l-151 -170h-52z" />
    <glyph glyph-name="ecircumflex" unicode="&#xea;" horiz-adv-x="522" 
d="M451 120c-51 -88 -128 -134 -223 -134c-124 0 -214 93 -214 235c0 73 21 141 58 195c49 71 121 111 203 111c127 0 205 -83 205 -219c0 -20 -1 -38 -4 -56h-378c-2 -15 -3 -29 -3 -39c0 -100 56 -161 139 -161c59 0 107 32 149 98zM108 310h293v14c0 90 -48 144 -132 144
c-81 0 -140 -56 -161 -158zM439 582h-47l-68 112l-112 -112h-52l132 170h75z" />
    <glyph glyph-name="edieresis" unicode="&#xeb;" horiz-adv-x="522" 
d="M451 120c-51 -88 -128 -134 -223 -134c-124 0 -214 93 -214 235c0 73 21 141 58 195c49 71 121 111 203 111c127 0 205 -83 205 -219c0 -20 -1 -38 -4 -56h-378c-2 -15 -3 -29 -3 -39c0 -100 56 -161 139 -161c59 0 107 32 149 98zM108 310h293v14c0 90 -48 144 -132 144
c-81 0 -140 -56 -161 -158zM189 613l19 92h78l-19 -92h-78zM346 613l19 92h78l-19 -92h-78z" />
    <glyph glyph-name="egrave" unicode="&#xe8;" horiz-adv-x="522" 
d="M451 120c-51 -88 -128 -134 -223 -134c-124 0 -214 93 -214 235c0 73 21 141 58 195c49 71 121 111 203 111c127 0 205 -83 205 -219c0 -20 -1 -38 -4 -56h-378c-2 -15 -3 -29 -3 -39c0 -100 56 -161 139 -161c59 0 107 32 149 98zM108 310h293v14c0 90 -48 144 -132 144
c-81 0 -140 -56 -161 -158zM178 752h81l107 -170h-49z" />
    <glyph glyph-name="iacute" unicode="&#xed;" horiz-adv-x="221" 
d="M13 0l90 514h76l-91 -514h-75zM199 752h87l-151 -170h-52z" />
    <glyph glyph-name="icircumflex" unicode="&#xee;" horiz-adv-x="221" 
d="M13 0l90 514h76l-91 -514h-75zM286 582h-47l-68 112l-112 -112h-52l132 170h75z" />
    <glyph glyph-name="idieresis" unicode="&#xef;" horiz-adv-x="221" 
d="M13 0l90 514h76l-91 -514h-75zM36 613l19 92h78l-19 -92h-78zM193 613l19 92h78l-19 -92h-78z" />
    <glyph glyph-name="igrave" unicode="&#xec;" horiz-adv-x="221" 
d="M13 0l90 514h76l-91 -514h-75zM25 752h81l107 -170h-49z" />
    <glyph glyph-name="ntilde" unicode="&#xf1;" horiz-adv-x="542" 
d="M10 0l91 514h66l-20 -111c47 83 109 125 183 125c89 0 147 -58 147 -143c0 -22 -1 -44 -5 -66l-56 -319h-73l54 306c3 19 5 36 5 50c0 70 -37 110 -99 110c-79 0 -151 -77 -174 -209l-46 -257h-73zM468 712c-20 -64 -45 -94 -91 -94c-12 0 -25 3 -39 7l-32 10
c-14 4 -25 6 -34 6c-21 0 -33 -12 -41 -38h-42c19 65 47 96 93 96c12 0 25 -2 38 -6l32 -11c13 -4 25 -6 34 -6c21 0 34 11 40 36h42z" />
    <glyph glyph-name="oacute" unicode="&#xf3;" horiz-adv-x="532" 
d="M98 201c0 -86 58 -150 134 -150c95 0 172 107 172 261c0 93 -53 154 -137 154c-96 0 -169 -108 -169 -265zM237 -15c-129 0 -221 95 -221 235c0 179 113 309 252 309c129 0 218 -92 218 -230c0 -181 -110 -314 -249 -314zM370 752h87l-151 -170h-52z" />
    <glyph glyph-name="ocircumflex" unicode="&#xf4;" horiz-adv-x="532" 
d="M98 201c0 -86 58 -150 134 -150c95 0 172 107 172 261c0 93 -53 154 -137 154c-96 0 -169 -108 -169 -265zM237 -15c-129 0 -221 95 -221 235c0 179 113 309 252 309c129 0 218 -92 218 -230c0 -181 -110 -314 -249 -314zM457 582h-47l-68 112l-112 -112h-52l132 170h75z
" />
    <glyph glyph-name="odieresis" unicode="&#xf6;" horiz-adv-x="532" 
d="M98 201c0 -86 58 -150 134 -150c95 0 172 107 172 261c0 93 -53 154 -137 154c-96 0 -169 -108 -169 -265zM237 -15c-129 0 -221 95 -221 235c0 179 113 309 252 309c129 0 218 -92 218 -230c0 -181 -110 -314 -249 -314zM207 613l19 92h78l-19 -92h-78zM364 613l19 92
h78l-19 -92h-78z" />
    <glyph glyph-name="ograve" unicode="&#xf2;" horiz-adv-x="532" 
d="M98 201c0 -86 58 -150 134 -150c95 0 172 107 172 261c0 93 -53 154 -137 154c-96 0 -169 -108 -169 -265zM237 -15c-129 0 -221 95 -221 235c0 179 113 309 252 309c129 0 218 -92 218 -230c0 -181 -110 -314 -249 -314zM196 752h81l107 -170h-49z" />
    <glyph glyph-name="otilde" unicode="&#xf5;" horiz-adv-x="532" 
d="M98 201c0 -86 58 -150 134 -150c95 0 172 107 172 261c0 93 -53 154 -137 154c-96 0 -169 -108 -169 -265zM237 -15c-129 0 -221 95 -221 235c0 179 113 309 252 309c129 0 218 -92 218 -230c0 -181 -110 -314 -249 -314zM473 712c-20 -64 -45 -94 -91 -94
c-12 0 -25 3 -39 7l-32 10c-14 4 -25 6 -34 6c-21 0 -33 -12 -41 -38h-42c19 65 47 96 93 96c12 0 25 -2 38 -6l32 -11c13 -4 25 -6 34 -6c21 0 34 11 40 36h42z" />
    <glyph glyph-name="scaron" unicode="&#x161;" horiz-adv-x="440" 
d="M54 153c23 -68 75 -103 148 -103c68 0 112 40 112 89c0 26 -11 47 -31 58c-39 23 -86 28 -128 43c-79 28 -117 66 -117 132c0 88 72 155 176 155c95 0 162 -44 191 -123l-65 -25c-26 57 -69 87 -125 87c-58 0 -98 -38 -98 -85c0 -55 47 -62 127 -87
c100 -32 150 -71 150 -145c0 -93 -79 -163 -197 -163c-105 0 -178 50 -213 144zM162 752h46l69 -111l112 111h52l-132 -170h-75z" />
    <glyph glyph-name="uacute" unicode="&#xfa;" horiz-adv-x="542" 
d="M501 514l-91 -514h-66l20 111c-47 -83 -109 -125 -183 -125c-90 0 -147 57 -147 151c0 18 2 38 5 57l56 320h73l-54 -308c-3 -17 -5 -33 -5 -49c0 -70 37 -109 99 -109c78 0 151 77 174 209l46 257h73zM359 752h87l-151 -170h-52z" />
    <glyph glyph-name="ucircumflex" unicode="&#xfb;" horiz-adv-x="542" 
d="M501 514l-91 -514h-66l20 111c-47 -83 -109 -125 -183 -125c-90 0 -147 57 -147 151c0 18 2 38 5 57l56 320h73l-54 -308c-3 -17 -5 -33 -5 -49c0 -70 37 -109 99 -109c78 0 151 77 174 209l46 257h73zM446 582h-47l-68 112l-112 -112h-52l132 170h75z" />
    <glyph glyph-name="udieresis" unicode="&#xfc;" horiz-adv-x="542" 
d="M501 514l-91 -514h-66l20 111c-47 -83 -109 -125 -183 -125c-90 0 -147 57 -147 151c0 18 2 38 5 57l56 320h73l-54 -308c-3 -17 -5 -33 -5 -49c0 -70 37 -109 99 -109c78 0 151 77 174 209l46 257h73zM196 613l19 92h78l-19 -92h-78zM353 613l19 92h78l-19 -92h-78z" />
    <glyph glyph-name="ugrave" unicode="&#xf9;" horiz-adv-x="542" 
d="M501 514l-91 -514h-66l20 111c-47 -83 -109 -125 -183 -125c-90 0 -147 57 -147 151c0 18 2 38 5 57l56 320h73l-54 -308c-3 -17 -5 -33 -5 -49c0 -70 37 -109 99 -109c78 0 151 77 174 209l46 257h73zM185 752h81l107 -170h-49z" />
    <glyph glyph-name="ydieresis" unicode="&#xff;" horiz-adv-x="419" 
d="M-72 -182l11 73c19 -4 35 -6 49 -6c64 0 102 39 140 127l-109 502h72l85 -405l207 405h71l-277 -540c-55 -108 -103 -161 -197 -161c-15 0 -32 2 -52 5zM151 613l19 92h78l-19 -92h-78zM308 613l19 92h78l-19 -92h-78z" />
    <glyph glyph-name="zcaron" unicode="&#x17e;" horiz-adv-x="411" 
d="M-35 0l10 56l344 395h-275l11 63h372l-9 -52l-348 -397h295l-12 -65h-388zM148 752h46l69 -111l112 111h52l-132 -170h-75z" />
    <glyph glyph-name="trademark" unicode="&#x2122;" horiz-adv-x="833" 
d="M339 711v-33h-84v-228h-46v228h-85v33h215zM463 711l78 -198l73 198h64v-261h-40v224l-84 -224h-26l-88 224v-224h-40v261h63z" />
    <glyph glyph-name="copyright" unicode="&#xa9;" horiz-adv-x="833" 
d="M416 713c97 0 187 -36 256 -105c67 -67 103 -157 103 -254c0 -98 -36 -186 -103 -252c-71 -69 -162 -107 -256 -107c-95 0 -183 37 -252 106s-106 158 -106 253s38 185 107 255c66 67 154 104 251 104zM733 354c0 85 -33 165 -92 224c-60 60 -139 92 -225 92
s-163 -32 -221 -91c-61 -62 -94 -142 -94 -225s33 -161 93 -222c60 -60 138 -93 222 -93c83 0 164 33 226 94c59 58 91 135 91 221zM520 445c-10 51 -49 80 -102 80c-75 0 -121 -61 -121 -172c0 -107 48 -168 121 -168c56 0 97 33 107 89h63c-7 -83 -77 -140 -173 -140
c-113 0 -188 83 -188 218c0 138 78 223 193 223c90 0 156 -54 163 -130h-63z" />
    <glyph glyph-name="logicalnot" unicode="&#xac;" horiz-adv-x="833" 
d="M709 419v-245h-56v188h-529v57h585z" />
    <glyph glyph-name="registered" unicode="&#xae;" horiz-adv-x="833" 
d="M416 713c98 0 187 -37 256 -106c67 -67 103 -157 103 -253c0 -98 -36 -186 -104 -252c-71 -69 -161 -107 -255 -107c-95 0 -184 38 -253 107c-68 68 -105 157 -105 252s38 186 108 256c66 67 153 103 250 103zM733 352c0 86 -32 166 -91 225c-61 61 -139 93 -226 93
c-85 0 -162 -31 -220 -90c-62 -62 -95 -142 -95 -226c0 -83 33 -161 93 -222s139 -93 221 -93c85 0 164 32 226 93c59 58 92 135 92 220zM426 565c114 0 171 -36 171 -113c0 -57 -36 -99 -96 -109l92 -188h-77l-86 178h-87v-178h-69v410h152zM413 520h-70v-142h72
c76 0 111 17 111 69c0 53 -36 73 -113 73z" />
    <glyph glyph-name="minus" unicode="&#x2212;" horiz-adv-x="833" 
d="M709 327v-58h-585v58h585z" />
    <glyph glyph-name="Eth" unicode="&#xd0;" horiz-adv-x="667" 
d="M126 72h147c68 0 119 11 165 50c61 51 103 150 103 273c0 159 -69 229 -219 229h-99l-41 -232h171l-9 -53h-171zM31 0l60 339h-86l9 53h86l53 302h184c191 0 294 -110 294 -307c0 -121 -41 -227 -113 -302c-59 -62 -132 -85 -233 -85h-254z" />
    <glyph glyph-name="Thorn" unicode="&#xde;" horiz-adv-x="567" 
d="M138 219h149c109 0 169 54 169 145c0 86 -50 129 -148 129h-121zM199 563h131c141 0 216 -70 216 -191c0 -139 -97 -222 -277 -222h-143l-26 -150h-82l123 694h82z" />
    <glyph glyph-name="Yacute" unicode="&#xdd;" horiz-adv-x="481" 
d="M142 0l52 293l-178 401h88l146 -333l241 333h85l-300 -404l-51 -290h-83zM361 919h87l-151 -170h-52z" />
    <glyph glyph-name="brokenbar" unicode="&#xa6;" 
d="M281 699v-370h-62v370h62zM281 199v-370h-62v370h62z" />
    <glyph glyph-name="degree" unicode="&#xb0;" horiz-adv-x="329" 
d="M165 710c76 0 138 -62 138 -138c0 -75 -61 -138 -139 -138c-77 0 -137 61 -137 138c0 78 62 138 138 138zM263 572c0 54 -43 98 -98 98c-54 0 -99 -43 -99 -98c0 -56 45 -99 99 -99c56 0 98 45 98 99z" />
    <glyph glyph-name="divide" unicode="&#xf7;" horiz-adv-x="833" 
d="M417 530c31 0 56 -25 56 -56c0 -30 -24 -56 -56 -56s-56 25 -56 56s26 56 56 56zM709 327v-57h-585v57h585zM417 178c30 0 56 -25 56 -56c0 -30 -24 -56 -56 -56c-31 0 -56 25 -56 56c0 32 26 56 56 56z" />
    <glyph glyph-name="eth" unicode="&#xf0;" horiz-adv-x="532" 
d="M98 195c0 -83 57 -144 134 -144c94 0 172 102 172 251c0 90 -53 148 -137 148c-95 0 -169 -102 -169 -255zM377 475c-18 40 -39 76 -64 111l-142 -49l-15 42l129 45c-10 14 -21 28 -32 42l55 43c19 -21 35 -41 50 -60l99 34l15 -42l-87 -28c70 -103 105 -207 105 -316
c0 -95 -34 -184 -89 -241c-45 -47 -101 -70 -165 -70c-131 0 -220 90 -220 226c0 94 32 171 99 239c34 35 91 59 149 59c42 0 79 -11 113 -35z" />
    <glyph glyph-name="mu" unicode="&#xb5;" horiz-adv-x="551" 
d="M177 522l-62 -291c-5 -22 -7 -44 -7 -67c0 -70 38 -111 106 -111c82 0 135 66 164 200l59 269h76l-79 -368c-7 -31 -11 -53 -11 -66c0 -21 12 -32 35 -32c2 0 8 0 17 1l-13 -61c-17 -4 -33 -5 -45 -5c-46 0 -67 22 -71 72c-26 -45 -78 -72 -141 -72c-56 0 -99 22 -128 67
l-55 -266h-76l154 730h77z" />
    <glyph glyph-name="multiply" unicode="&#xd7;" horiz-adv-x="833" 
d="M419 338l232 233l40 -40l-232 -233l232 -232l-40 -40l-232 232l-233 -232l-39 40l232 232l-232 233l39 40z" />
    <glyph glyph-name="onehalf" unicode="&#xbd;" horiz-adv-x="925" 
d="M12 306l8 36h128l59 299c-25 -27 -70 -45 -130 -48l8 40c69 9 116 30 145 69h41l-71 -360h135l-8 -36h-315zM215 -14h-66l559 722h68zM550 0l6 49c191 100 291 162 291 232c0 45 -39 79 -93 79s-93 -30 -114 -89l-43 15c26 71 85 111 161 111c85 0 143 -50 143 -119
c0 -46 -28 -83 -85 -122c-46 -31 -113 -68 -201 -115h252l-9 -41h-308z" />
    <glyph glyph-name="onequarter" unicode="&#xbc;" horiz-adv-x="925" 
d="M12 306l8 36h128l59 299c-25 -27 -70 -45 -130 -48l8 40c69 9 116 30 145 69h41l-71 -360h135l-8 -36h-315zM215 -14h-66l559 722h68zM752 0l19 96h-211l7 36l247 264h63l-53 -264h74l-7 -36h-73l-20 -96h-46zM778 132l44 221l-207 -221h163z" />
    <glyph glyph-name="onesuperior" unicode="&#xb9;" horiz-adv-x="397" 
d="M12 278l8 39h134l62 320c-26 -29 -73 -48 -136 -52l9 43c72 10 121 33 151 75h44l-75 -386h141l-8 -39h-330z" />
    <glyph glyph-name="plusminus" unicode="&#xb1;" horiz-adv-x="833" 
d="M446 576v-168h263v-57h-263v-168h-58v168h-264v57h264v168h58zM709 77v-57h-585v57h585z" />
    <glyph glyph-name="thorn" unicode="&#xfe;" horiz-adv-x="532" 
d="M296 462c-53 0 -100 -36 -140 -109c-19 -34 -35 -97 -35 -159c0 -87 48 -141 116 -141c89 0 164 105 164 265c0 91 -42 144 -105 144zM-22 -178l152 872h73l-48 -271c48 69 106 104 166 104c95 0 165 -84 165 -212c0 -90 -27 -173 -79 -239c-43 -56 -100 -85 -161 -85
c-66 0 -119 33 -149 93l-46 -262h-73z" />
    <glyph glyph-name="threequarters" unicode="&#xbe;" horiz-adv-x="926" 
d="M49 410c21 -49 61 -73 118 -73c62 0 104 35 104 83c0 42 -36 71 -96 71h-53l7 38h39c79 0 119 23 119 69c0 39 -36 69 -88 69c-42 0 -76 -21 -98 -60l-41 18c30 52 80 78 145 78c82 0 136 -44 136 -101c0 -47 -34 -82 -97 -92c52 -14 81 -47 81 -92
c0 -67 -65 -120 -160 -120c-76 0 -132 34 -159 96zM215 -14h-66l559 722h68zM752 0l19 96h-211l7 36l247 264h63l-53 -264h74l-7 -36h-73l-20 -96h-46zM778 132l44 221l-207 -221h163z" />
    <glyph glyph-name="threesuperior" unicode="&#xb3;" horiz-adv-x="397" 
d="M51 390c22 -53 64 -79 124 -79c65 0 109 38 109 89c0 45 -38 76 -101 76h-55l7 41h41c83 0 124 24 124 74c0 42 -37 73 -91 73c-45 0 -80 -22 -103 -64l-43 19c31 56 84 84 152 84c85 0 143 -47 143 -108c0 -51 -36 -87 -102 -99c54 -14 85 -50 85 -98
c0 -71 -69 -128 -168 -128c-79 0 -139 36 -167 102z" />
    <glyph glyph-name="twosuperior" unicode="&#xb2;" horiz-adv-x="397" 
d="M4 278l7 52c200 108 304 174 304 249c0 48 -40 85 -97 85c-56 0 -98 -33 -119 -96l-46 17c28 76 90 118 169 118c89 0 150 -54 150 -127c0 -49 -29 -89 -90 -131c-47 -33 -118 -73 -210 -123h264l-9 -44h-323z" />
    <glyph glyph-name="yacute" unicode="&#xfd;" horiz-adv-x="419" 
d="M-72 -182l11 73c19 -4 35 -6 49 -6c64 0 102 39 140 127l-109 502h72l85 -405l207 405h71l-277 -540c-55 -108 -103 -161 -197 -161c-15 0 -32 2 -52 5zM314 752h87l-151 -170h-52z" />
  </font>
</defs>
</svg>
